<?xml version="1.0" encoding="UTF-8" standalone="no"?>
<!DOCTYPE svg PUBLIC "-//W3C//DTD SVG 1.1//EN"
 "http://www.w3.org/Graphics/SVG/1.1/DTD/svg11.dtd">
<!-- Generated by graphviz version 2.40.1 (20161225.0304)
 -->
<!-- Title: G Pages: 1 -->
<svg width="966pt" height="790pt"
 viewBox="0.00 0.00 966.00 790.39" xmlns="http://www.w3.org/2000/svg" xmlns:xlink="http://www.w3.org/1999/xlink">
<g id="graph0" class="graph" transform="scale(1 1) rotate(0) translate(4 786.3877)">
<title>G</title>
<polygon fill="#ffffff" stroke="transparent" points="-4,4 -4,-786.3877 962,-786.3877 962,4 -4,4"/>
<g id="clust1" class="cluster">
<title>cluster_subG</title>
<polygon fill="none" stroke="#000000" points="8,-8 8,-774.3877 950,-774.3877 950,-8 8,-8"/>
</g>
<g id="clust2" class="cluster">
<title>cluster_sta</title>
<polygon fill="none" stroke="#000000" points="16,-16 16,-766.3877 942,-766.3877 942,-16 16,-16"/>
<text text-anchor="middle" x="479" y="-751.1877" font-family="Arial" font-size="14.00" fill="#000000">Software Testing, Analysis, and Synthesis</text>
</g>
<g id="clust3" class="cluster">
<title>cluster_adverse</title>
<polygon fill="none" stroke="#000000" points="762,-373.8945 762,-459.9932 934,-459.9932 934,-373.8945 762,-373.8945"/>
<text text-anchor="middle" x="848" y="-444.7932" font-family="Arial" font-size="14.00" fill="#000000">Adversarial Conditions</text>
</g>
<g id="clust4" class="cluster">
<title>cluster_concurrency</title>
<polygon fill="none" stroke="#000000" points="454,-169.1973 454,-266.2959 682,-266.2959 682,-169.1973 454,-169.1973"/>
<text text-anchor="middle" x="568" y="-251.0959" font-family="Arial" font-size="14.00" fill="#000000">Exploration of Interleaving Spaces</text>
</g>
<g id="clust5" class="cluster">
<title>cluster_synthesis</title>
<polygon fill="none" stroke="#000000" points="458,-24 458,-161.1973 720,-161.1973 720,-24 458,-24"/>
<text text-anchor="middle" x="589" y="-145.9973" font-family="Arial" font-size="14.00" fill="#000000">Program Synthesis</text>
</g>
<g id="clust6" class="cluster">
<title>cluster_transformer</title>
<polygon fill="none" stroke="#000000" points="466,-32 466,-129.0986 712,-129.0986 712,-32 466,-32"/>
<text text-anchor="middle" x="589" y="-113.8986" font-family="Arial" font-size="14.00" fill="#000000">Transformers</text>
</g>
<g id="clust7" class="cluster">
<title>cluster_analysis</title>
<polygon fill="none" stroke="#000000" points="230,-467.9932 230,-554.0918 442,-554.0918 442,-467.9932 230,-467.9932"/>
<text text-anchor="middle" x="336" y="-538.8918" font-family="Arial" font-size="14.00" fill="#000000">Software Analysis</text>
</g>
<g id="clust8" class="cluster">
<title>cluster_smd</title>
<polygon fill="none" stroke="#000000" points="454,-274.2959 454,-734.2891 754,-734.2891 754,-274.2959 454,-274.2959"/>
<text text-anchor="middle" x="604" y="-719.0891" font-family="Arial" font-size="14.00" fill="#000000">Understanding Shared Memory Dependences</text>
</g>
<g id="clust9" class="cluster">
<title>cluster_mobile</title>
<polygon fill="none" stroke="#000000" points="24,-37.5 24,-459.9932 446,-459.9932 446,-37.5 24,-37.5"/>
<text text-anchor="middle" x="235" y="-444.7932" font-family="Arial" font-size="14.00" fill="#000000">Mobile Apps</text>
</g>
<g id="clust10" class="cluster">
<title>cluster_tech</title>
<polygon fill="none" stroke="#000000" points="728,-32 728,-129.0986 929,-129.0986 929,-32 728,-32"/>
<text text-anchor="middle" x="828.5" y="-113.8986" font-family="Arial" font-size="14.00" fill="#000000">Fun and Profits</text>
</g>
<g id="clust11" class="cluster">
<title>cluster_compiler</title>
<polygon fill="none" stroke="#000000" points="168,-562.0918 168,-648.1904 302,-648.1904 302,-562.0918 168,-562.0918"/>
<text text-anchor="middle" x="235" y="-632.9904" font-family="Arial" font-size="14.00" fill="#000000">Compiler Toolchain</text>
</g>
<g id="clust12" class="cluster">
<title>cluster_system</title>
<polygon fill="none" stroke="#000000" points="762,-279.7959 762,-365.8945 883,-365.8945 883,-279.7959 762,-279.7959"/>
<text text-anchor="middle" x="822.5" y="-350.6945" font-family="Arial" font-size="14.00" fill="#000000">System Software</text>
</g>
<!-- rescue -->
<g id="node1" class="node">
<title>rescue</title>
<path fill="#d3d3d3" stroke="#d3d3d3" d="M868,-382.3945C868,-382.3945 914,-382.3945 914,-382.3945 920,-382.3945 926,-388.3945 926,-394.3945 926,-394.3945 926,-415.3945 926,-415.3945 926,-421.3945 920,-427.3945 914,-427.3945 914,-427.3945 868,-427.3945 868,-427.3945 862,-427.3945 856,-421.3945 856,-415.3945 856,-415.3945 856,-394.3945 856,-394.3945 856,-388.3945 862,-382.3945 868,-382.3945"/>
<polygon fill="none" stroke="#d3d3d3" points="867,-388.8945 867,-419.8945 915,-419.8945 915,-388.8945 867,-388.8945"/>
<text text-anchor="start" x="869.6172" y="-406.6945" font-family="Times,serif" font-size="14.00" fill="#000000">ReScue</text>
<text text-anchor="start" x="870.8208" y="-395.0945" font-family="Arial" font-size="11.00" fill="#606060">[ASE18]</text>
<polygon fill="none" stroke="#d3d3d3" points="864,-386.3945 864,-423.3945 918,-423.3945 918,-386.3945 864,-386.3945"/>
</g>
<!-- scs -->
<g id="node2" class="node">
<title>scs</title>
<path fill="#d3d3d3" stroke="#d3d3d3" d="M589.5,-183.1973C589.5,-183.1973 632.5,-183.1973 632.5,-183.1973 638.5,-183.1973 644.5,-189.1973 644.5,-195.1973 644.5,-195.1973 644.5,-216.1973 644.5,-216.1973 644.5,-222.1973 638.5,-228.1973 632.5,-228.1973 632.5,-228.1973 589.5,-228.1973 589.5,-228.1973 583.5,-228.1973 577.5,-222.1973 577.5,-216.1973 577.5,-216.1973 577.5,-195.1973 577.5,-195.1973 577.5,-189.1973 583.5,-183.1973 589.5,-183.1973"/>
<polygon fill="none" stroke="#d3d3d3" points="589,-189.6973 589,-220.6973 634,-220.6973 634,-189.6973 589,-189.6973"/>
<text text-anchor="start" x="599.0449" y="-207.4973" font-family="Times,serif" font-size="14.00" fill="#000000">SCS</text>
<text text-anchor="start" x="591.6296" y="-195.8973" font-family="Arial" font-size="11.00" fill="#606060">[FSE18]</text>
<polygon fill="none" stroke="#d3d3d3" points="585.5,-187.1973 585.5,-224.1973 636.5,-224.1973 636.5,-187.1973 585.5,-187.1973"/>
</g>
<!-- abc -->
<g id="node15" class="node">
<title>abc</title>
<path fill="#d3d3d3" stroke="#d3d3d3" d="M748.5,-46C748.5,-46 807.5,-46 807.5,-46 813.5,-46 819.5,-52 819.5,-58 819.5,-58 819.5,-79 819.5,-79 819.5,-85 813.5,-91 807.5,-91 807.5,-91 748.5,-91 748.5,-91 742.5,-91 736.5,-85 736.5,-79 736.5,-79 736.5,-58 736.5,-58 736.5,-52 742.5,-46 748.5,-46"/>
<polygon fill="none" stroke="#d3d3d3" points="748,-52.5 748,-83.5 809,-83.5 809,-52.5 748,-52.5"/>
<text text-anchor="start" x="764.1069" y="-70.3" font-family="Times,serif" font-size="14.00" fill="#000000">ABC</text>
<text text-anchor="start" x="750.6804" y="-58.7" font-family="Arial" font-size="11.00" fill="#606060">[APSEC15]</text>
<polygon fill="none" stroke="#d3d3d3" points="744.5,-50 744.5,-87 811.5,-87 811.5,-50 744.5,-50"/>
</g>
<!-- scs&#45;&gt;abc -->
<!-- enter -->
<g id="node16" class="node">
<title>enter</title>
<path fill="#d3d3d3" stroke="#d3d3d3" d="M486,-46C486,-46 568,-46 568,-46 574,-46 580,-52 580,-58 580,-58 580,-79 580,-79 580,-85 574,-91 568,-91 568,-91 486,-91 486,-91 480,-91 474,-85 474,-79 474,-79 474,-58 474,-58 474,-52 480,-46 486,-46"/>
<polygon fill="none" stroke="#d3d3d3" points="485,-52.5 485,-83.5 569,-83.5 569,-52.5 485,-52.5"/>
<text text-anchor="start" x="504.4482" y="-70.3" font-family="Times,serif" font-size="14.00" fill="#000000">ENTER</text>
<text text-anchor="start" x="487.5654" y="-58.7" font-family="Arial" font-size="11.00" fill="#606060">[ICSE18 Poster]</text>
<polygon fill="none" stroke="#d3d3d3" points="482,-50 482,-87 572,-87 572,-50 482,-50"/>
</g>
<!-- scs&#45;&gt;enter -->
<!-- aotes -->
<g id="node3" class="node">
<title>aotes</title>
<path fill="#d3d3d3" stroke="#d3d3d3" d="M610,-40.5C610,-40.5 692,-40.5 692,-40.5 698,-40.5 704,-46.5 704,-52.5 704,-52.5 704,-84.5 704,-84.5 704,-90.5 698,-96.5 692,-96.5 692,-96.5 610,-96.5 610,-96.5 604,-96.5 598,-90.5 598,-84.5 598,-84.5 598,-52.5 598,-52.5 598,-46.5 604,-40.5 610,-40.5"/>
<polygon fill="none" stroke="#d3d3d3" points="609,-47.5 609,-89.5 693,-89.5 693,-47.5 609,-47.5"/>
<text text-anchor="start" x="628.4448" y="-76.3" font-family="Times,serif" font-size="14.00" fill="#000000">AOTES</text>
<text text-anchor="start" x="611.5654" y="-64.7" font-family="Arial" font-size="11.00" fill="#606060">[ICSE17 Poster]</text>
<text text-anchor="start" x="621.9612" y="-53.7" font-family="Arial" font-size="11.00" fill="#606060">[ECOOP18]</text>
<polygon fill="none" stroke="#d3d3d3" points="606,-44.5 606,-92.5 696,-92.5 696,-44.5 606,-44.5"/>
</g>
<!-- needle -->
<g id="node4" class="node">
<title>needle</title>
<path fill="#d3d3d3" stroke="#d3d3d3" d="M370,-476.4932C370,-476.4932 422,-476.4932 422,-476.4932 428,-476.4932 434,-482.4932 434,-488.4932 434,-488.4932 434,-509.4932 434,-509.4932 434,-515.4932 428,-521.4932 422,-521.4932 422,-521.4932 370,-521.4932 370,-521.4932 364,-521.4932 358,-515.4932 358,-509.4932 358,-509.4932 358,-488.4932 358,-488.4932 358,-482.4932 364,-476.4932 370,-476.4932"/>
<polygon fill="none" stroke="#d3d3d3" points="369,-482.9932 369,-513.9932 423,-513.9932 423,-482.9932 369,-482.9932"/>
<text text-anchor="start" x="376.1792" y="-500.7932" font-family="Times,serif" font-size="14.00" fill="#000000">Needle</text>
<text text-anchor="start" x="371.5508" y="-489.1932" font-family="Arial" font-size="11.00" fill="#606060">[TURC18]</text>
<polygon fill="none" stroke="#d3d3d3" points="366,-480.4932 366,-517.4932 426,-517.4932 426,-480.4932 366,-480.4932"/>
</g>
<!-- repdroid -->
<g id="node6" class="node">
<title>repdroid</title>
<path fill="#d3d3d3" stroke="#d3d3d3" d="M366.5,-382.3945C366.5,-382.3945 425.5,-382.3945 425.5,-382.3945 431.5,-382.3945 437.5,-388.3945 437.5,-394.3945 437.5,-394.3945 437.5,-415.3945 437.5,-415.3945 437.5,-421.3945 431.5,-427.3945 425.5,-427.3945 425.5,-427.3945 366.5,-427.3945 366.5,-427.3945 360.5,-427.3945 354.5,-421.3945 354.5,-415.3945 354.5,-415.3945 354.5,-394.3945 354.5,-394.3945 354.5,-388.3945 360.5,-382.3945 366.5,-382.3945"/>
<polygon fill="none" stroke="#d3d3d3" points="366,-388.8945 366,-419.8945 427,-419.8945 427,-388.8945 366,-388.8945"/>
<text text-anchor="start" x="368.8931" y="-406.6945" font-family="Times,serif" font-size="14.00" fill="#000000">RepDroid</text>
<text text-anchor="start" x="374.1858" y="-395.0945" font-family="Arial" font-size="11.00" fill="#606060">[ICPC17]</text>
<polygon fill="none" stroke="#d3d3d3" points="362.5,-386.3945 362.5,-423.3945 429.5,-423.3945 429.5,-386.3945 362.5,-386.3945"/>
</g>
<!-- needle&#45;&gt;repdroid -->
<g id="edge11" class="edge">
<title>needle&#45;&gt;repdroid</title>
<path fill="none" stroke="#000000" d="M396,-476.2145C396,-464.6562 396,-450.4068 396,-437.6911"/>
<polygon fill="#000000" stroke="#000000" points="399.5001,-437.4634 396,-427.4634 392.5001,-437.4635 399.5001,-437.4634"/>
</g>
<!-- thesis -->
<g id="node5" class="node">
<title>thesis</title>
<path fill="#d3d3d3" stroke="#d3d3d3" d="M565,-282.7959C565,-282.7959 657,-282.7959 657,-282.7959 663,-282.7959 669,-288.7959 669,-294.7959 669,-294.7959 669,-326.7959 669,-326.7959 669,-332.7959 663,-338.7959 657,-338.7959 657,-338.7959 565,-338.7959 565,-338.7959 559,-338.7959 553,-332.7959 553,-326.7959 553,-326.7959 553,-294.7959 553,-294.7959 553,-288.7959 559,-282.7959 565,-282.7959"/>
<polygon fill="none" stroke="#d3d3d3" points="564,-289.7959 564,-331.7959 658,-331.7959 658,-289.7959 564,-289.7959"/>
<text text-anchor="start" x="578.6489" y="-318.5959" font-family="Times,serif" font-size="14.00" fill="#000000">PhD Thesis</text>
<text text-anchor="start" x="578.0779" y="-306.9959" font-family="Arial" font-size="11.00" fill="#606060">Yanyan Jiang</text>
<text text-anchor="start" x="566.6777" y="-295.9959" font-family="Arial" font-size="11.00" fill="#606060">Nanjing University</text>
<polygon fill="none" stroke="#d3d3d3" points="561,-286.7959 561,-334.7959 661,-334.7959 661,-286.7959 561,-286.7959"/>
</g>
<!-- thesis&#45;&gt;scs -->
<g id="edge12" class="edge">
<title>thesis&#45;&gt;scs</title>
<path fill="none" stroke="#000000" d="M611,-282.6314C611,-269.0646 611,-252.7115 611,-238.5771"/>
<polygon fill="#000000" stroke="#000000" points="614.5001,-238.2839 611,-228.2839 607.5001,-238.2839 614.5001,-238.2839"/>
</g>
<!-- lesdroid -->
<g id="node23" class="node">
<title>lesdroid</title>
<path fill="#d3d3d3" stroke="#d3d3d3" d="M364.5,-288.2959C364.5,-288.2959 425.5,-288.2959 425.5,-288.2959 431.5,-288.2959 437.5,-294.2959 437.5,-300.2959 437.5,-300.2959 437.5,-321.2959 437.5,-321.2959 437.5,-327.2959 431.5,-333.2959 425.5,-333.2959 425.5,-333.2959 364.5,-333.2959 364.5,-333.2959 358.5,-333.2959 352.5,-327.2959 352.5,-321.2959 352.5,-321.2959 352.5,-300.2959 352.5,-300.2959 352.5,-294.2959 358.5,-288.2959 364.5,-288.2959"/>
<polygon fill="none" stroke="#d3d3d3" points="364,-294.7959 364,-325.7959 427,-325.7959 427,-294.7959 364,-294.7959"/>
<text text-anchor="start" x="366.7241" y="-312.5959" font-family="Times,serif" font-size="14.00" fill="#000000">LESDroid</text>
<text text-anchor="start" x="373.1858" y="-300.9959" font-family="Arial" font-size="11.00" fill="#606060">[ICPC18]</text>
<polygon fill="none" stroke="#d3d3d3" points="360.5,-292.2959 360.5,-329.2959 429.5,-329.2959 429.5,-292.2959 360.5,-292.2959"/>
</g>
<!-- repdroid&#45;&gt;lesdroid -->
<g id="edge8" class="edge">
<title>repdroid&#45;&gt;lesdroid</title>
<path fill="none" stroke="#000000" d="M395.7579,-382.1159C395.6351,-370.5576 395.4837,-356.3081 395.3485,-343.5925"/>
<polygon fill="#000000" stroke="#000000" points="398.846,-343.327 395.2398,-333.3648 391.8464,-343.4014 398.846,-343.327"/>
</g>
<!-- gain -->
<g id="node7" class="node">
<title>gain</title>
<path fill="#d3d3d3" stroke="#d3d3d3" d="M849.5,-40.5C849.5,-40.5 908.5,-40.5 908.5,-40.5 914.5,-40.5 920.5,-46.5 920.5,-52.5 920.5,-52.5 920.5,-84.5 920.5,-84.5 920.5,-90.5 914.5,-96.5 908.5,-96.5 908.5,-96.5 849.5,-96.5 849.5,-96.5 843.5,-96.5 837.5,-90.5 837.5,-84.5 837.5,-84.5 837.5,-52.5 837.5,-52.5 837.5,-46.5 843.5,-40.5 849.5,-40.5"/>
<polygon fill="none" stroke="#d3d3d3" points="849,-47.5 849,-89.5 910,-89.5 910,-47.5 849,-47.5"/>
<text text-anchor="start" x="862.0034" y="-76.3" font-family="Times,serif" font-size="14.00" fill="#000000">GAIN</text>
<text text-anchor="start" x="851.6804" y="-64.7" font-family="Arial" font-size="11.00" fill="#606060">[APSEC14]</text>
<text text-anchor="start" x="861.77" y="-53.7" font-family="Arial" font-size="11.00" fill="#606060">[IST16]</text>
<polygon fill="none" stroke="#d3d3d3" points="845.5,-44.5 845.5,-92.5 912.5,-92.5 912.5,-44.5 845.5,-44.5"/>
</g>
<!-- cod -->
<g id="node8" class="node">
<title>cod</title>
<path fill="#d3d3d3" stroke="#d3d3d3" d="M213,-570.5918C213,-570.5918 257,-570.5918 257,-570.5918 263,-570.5918 269,-576.5918 269,-582.5918 269,-582.5918 269,-603.5918 269,-603.5918 269,-609.5918 263,-615.5918 257,-615.5918 257,-615.5918 213,-615.5918 213,-615.5918 207,-615.5918 201,-609.5918 201,-603.5918 201,-603.5918 201,-582.5918 201,-582.5918 201,-576.5918 207,-570.5918 213,-570.5918"/>
<polygon fill="none" stroke="#d3d3d3" points="212,-577.0918 212,-608.0918 258,-608.0918 258,-577.0918 212,-577.0918"/>
<text text-anchor="start" x="223.3311" y="-594.8918" font-family="Times,serif" font-size="14.00" fill="#000000">Cod</text>
<text text-anchor="start" x="214.8208" y="-583.2918" font-family="Arial" font-size="11.00" fill="#606060">[ASE19]</text>
<polygon fill="none" stroke="#d3d3d3" points="209,-574.5918 209,-611.5918 261,-611.5918 261,-574.5918 209,-574.5918"/>
</g>
<!-- diet -->
<g id="node9" class="node">
<title>diet</title>
<path fill="#d3d3d3" stroke="#d3d3d3" d="M782,-288.2959C782,-288.2959 826,-288.2959 826,-288.2959 832,-288.2959 838,-294.2959 838,-300.2959 838,-300.2959 838,-321.2959 838,-321.2959 838,-327.2959 832,-333.2959 826,-333.2959 826,-333.2959 782,-333.2959 782,-333.2959 776,-333.2959 770,-327.2959 770,-321.2959 770,-321.2959 770,-300.2959 770,-300.2959 770,-294.2959 776,-288.2959 782,-288.2959"/>
<polygon fill="none" stroke="#d3d3d3" points="781,-294.7959 781,-325.7959 827,-325.7959 827,-294.7959 781,-294.7959"/>
<text text-anchor="start" x="788.062" y="-312.5959" font-family="Times,serif" font-size="14.00" fill="#000000">DIET</text>
<text text-anchor="start" x="783.8208" y="-300.9959" font-family="Arial" font-size="11.00" fill="#606060">[ASE19]</text>
<polygon fill="none" stroke="#d3d3d3" points="778,-292.2959 778,-329.2959 830,-329.2959 830,-292.2959 778,-292.2959"/>
</g>
<!-- survey -->
<g id="node10" class="node">
<title>survey</title>
<path fill="#d3d3d3" stroke="#d3d3d3" d="M589.5,-382.3945C589.5,-382.3945 632.5,-382.3945 632.5,-382.3945 638.5,-382.3945 644.5,-388.3945 644.5,-394.3945 644.5,-394.3945 644.5,-415.3945 644.5,-415.3945 644.5,-421.3945 638.5,-427.3945 632.5,-427.3945 632.5,-427.3945 589.5,-427.3945 589.5,-427.3945 583.5,-427.3945 577.5,-421.3945 577.5,-415.3945 577.5,-415.3945 577.5,-394.3945 577.5,-394.3945 577.5,-388.3945 583.5,-382.3945 589.5,-382.3945"/>
<polygon fill="none" stroke="#d3d3d3" points="589,-388.8945 589,-419.8945 634,-419.8945 634,-388.8945 589,-388.8945"/>
<text text-anchor="start" x="591.6689" y="-406.6945" font-family="Times,serif" font-size="14.00" fill="#000000">Survey</text>
<text text-anchor="start" x="592.8489" y="-395.0945" font-family="Arial" font-size="11.00" fill="#606060">[JoS17]</text>
<polygon fill="none" stroke="#d3d3d3" points="585.5,-386.3945 585.5,-423.3945 636.5,-423.3945 636.5,-386.3945 585.5,-386.3945"/>
</g>
<!-- survey&#45;&gt;thesis -->
<g id="edge9" class="edge">
<title>survey&#45;&gt;thesis</title>
<path fill="none" stroke="#000000" d="M611,-382.1159C611,-372.2046 611,-360.3146 611,-349.1096"/>
<polygon fill="#000000" stroke="#000000" points="614.5001,-349.0884 611,-339.0884 607.5001,-349.0884 614.5001,-349.0884"/>
</g>
<!-- aatt -->
<g id="node11" class="node">
<title>aatt</title>
<path fill="#d3d3d3" stroke="#d3d3d3" d="M474.5,-177.6973C474.5,-177.6973 533.5,-177.6973 533.5,-177.6973 539.5,-177.6973 545.5,-183.6973 545.5,-189.6973 545.5,-189.6973 545.5,-221.6973 545.5,-221.6973 545.5,-227.6973 539.5,-233.6973 533.5,-233.6973 533.5,-233.6973 474.5,-233.6973 474.5,-233.6973 468.5,-233.6973 462.5,-227.6973 462.5,-221.6973 462.5,-221.6973 462.5,-189.6973 462.5,-189.6973 462.5,-183.6973 468.5,-177.6973 474.5,-177.6973"/>
<polygon fill="none" stroke="#d3d3d3" points="474,-184.6973 474,-226.6973 535,-226.6973 535,-184.6973 474,-184.6973"/>
<text text-anchor="start" x="486.6138" y="-213.4973" font-family="Times,serif" font-size="14.00" fill="#000000">AATT</text>
<text text-anchor="start" x="476.6804" y="-201.8973" font-family="Arial" font-size="11.00" fill="#606060">[APSEC16]</text>
<text text-anchor="start" x="484.0173" y="-190.8973" font-family="Arial" font-size="11.00" fill="#606060">[SCP18]</text>
<polygon fill="none" stroke="#d3d3d3" points="470.5,-181.6973 470.5,-229.6973 537.5,-229.6973 537.5,-181.6973 470.5,-181.6973"/>
</g>
<!-- aatt&#45;&gt;thesis -->
<g id="edge14" class="edge">
<title>aatt&#45;&gt;thesis</title>
<path fill="none" stroke="#000000" d="M532.7532,-233.9395C545.7167,-246.6726 561.1664,-261.8479 574.8997,-275.3371"/>
<polygon fill="#000000" stroke="#000000" points="572.7392,-278.1209 582.326,-282.6314 577.6444,-273.127 572.7392,-278.1209"/>
</g>
<!-- android&#45;survey -->
<g id="node25" class="node">
<title>android&#45;survey</title>
<path fill="#d3d3d3" stroke="#d3d3d3" d="M347,-46C347,-46 395,-46 395,-46 401,-46 407,-52 407,-58 407,-58 407,-79 407,-79 407,-85 401,-91 395,-91 395,-91 347,-91 347,-91 341,-91 335,-85 335,-79 335,-79 335,-58 335,-58 335,-52 341,-46 347,-46"/>
<polygon fill="none" stroke="#d3d3d3" points="346,-52.5 346,-83.5 396,-83.5 396,-52.5 346,-52.5"/>
<text text-anchor="start" x="351.1689" y="-70.3" font-family="Times,serif" font-size="14.00" fill="#000000">Survey</text>
<text text-anchor="start" x="348.9893" y="-58.7" font-family="Arial" font-size="11.00" fill="#606060">[SCIS19]</text>
<polygon fill="none" stroke="#d3d3d3" points="343,-50 343,-87 399,-87 399,-50 343,-50"/>
</g>
<!-- aatt&#45;&gt;android&#45;survey -->
<g id="edge16" class="edge">
<title>aatt&#45;&gt;android&#45;survey</title>
<path fill="none" stroke="#000000" d="M476.7645,-177.6023C454.4087,-154.5409 422.8291,-121.9647 400.0041,-98.4194"/>
<polygon fill="#000000" stroke="#000000" points="402.3973,-95.8596 392.9238,-91.1157 397.3712,-100.7319 402.3973,-95.8596"/>
</g>
<!-- c3 -->
<g id="node12" class="node">
<title>c3</title>
<path fill="#d3d3d3" stroke="#d3d3d3" d="M782.5,-382.3945C782.5,-382.3945 825.5,-382.3945 825.5,-382.3945 831.5,-382.3945 837.5,-388.3945 837.5,-394.3945 837.5,-394.3945 837.5,-415.3945 837.5,-415.3945 837.5,-421.3945 831.5,-427.3945 825.5,-427.3945 825.5,-427.3945 782.5,-427.3945 782.5,-427.3945 776.5,-427.3945 770.5,-421.3945 770.5,-415.3945 770.5,-415.3945 770.5,-394.3945 770.5,-394.3945 770.5,-388.3945 776.5,-382.3945 782.5,-382.3945"/>
<polygon fill="none" stroke="#d3d3d3" points="782,-388.8945 782,-419.8945 827,-419.8945 827,-388.8945 782,-388.8945"/>
<text text-anchor="start" x="796.3311" y="-406.6945" font-family="Times,serif" font-size="14.00" fill="#000000">C3</text>
<text text-anchor="start" x="784.6296" y="-395.0945" font-family="Arial" font-size="11.00" fill="#606060">[FSE16]</text>
<polygon fill="none" stroke="#d3d3d3" points="778.5,-386.3945 778.5,-423.3945 829.5,-423.3945 829.5,-386.3945 778.5,-386.3945"/>
</g>
<!-- c3&#45;&gt;thesis -->
<g id="edge15" class="edge">
<title>c3&#45;&gt;thesis</title>
<path fill="none" stroke="#000000" d="M772.0576,-382.2621C767.4256,-379.3074 762.6502,-376.4303 758,-373.8945 732.8117,-360.1593 704.0152,-347.2345 678.6239,-336.7027"/>
<polygon fill="#000000" stroke="#000000" points="679.6541,-333.3424 669.0739,-332.7868 676.9984,-339.819 679.6541,-333.3424"/>
</g>
<!-- c3&#45;&gt;diet -->
<g id="edge18" class="edge">
<title>c3&#45;&gt;diet</title>
<path fill="none" stroke="#000000" d="M804,-382.1159C804,-370.5576 804,-356.3081 804,-343.5925"/>
<polygon fill="#000000" stroke="#000000" points="807.5001,-343.3647 804,-333.3648 800.5001,-343.3648 807.5001,-343.3647"/>
</g>
<!-- gat -->
<g id="node13" class="node">
<title>gat</title>
<path fill="#d3d3d3" stroke="#d3d3d3" d="M281.5,-183.1973C281.5,-183.1973 340.5,-183.1973 340.5,-183.1973 346.5,-183.1973 352.5,-189.1973 352.5,-195.1973 352.5,-195.1973 352.5,-216.1973 352.5,-216.1973 352.5,-222.1973 346.5,-228.1973 340.5,-228.1973 340.5,-228.1973 281.5,-228.1973 281.5,-228.1973 275.5,-228.1973 269.5,-222.1973 269.5,-216.1973 269.5,-216.1973 269.5,-195.1973 269.5,-195.1973 269.5,-189.1973 275.5,-183.1973 281.5,-183.1973"/>
<polygon fill="none" stroke="#d3d3d3" points="281,-189.6973 281,-220.6973 342,-220.6973 342,-189.6973 281,-189.6973"/>
<text text-anchor="start" x="297.8896" y="-207.4973" font-family="Times,serif" font-size="14.00" fill="#000000">GAT</text>
<text text-anchor="start" x="283.6804" y="-195.8973" font-family="Arial" font-size="11.00" fill="#606060">[APSEC16]</text>
<polygon fill="none" stroke="#d3d3d3" points="277.5,-187.1973 277.5,-224.1973 344.5,-224.1973 344.5,-187.1973 277.5,-187.1973"/>
</g>
<!-- gat&#45;&gt;android&#45;survey -->
<g id="edge17" class="edge">
<title>gat&#45;&gt;android&#45;survey</title>
<path fill="none" stroke="#000000" d="M320.9078,-183.0419C330.7655,-160.5011 345.9797,-125.712 357.0552,-100.3866"/>
<polygon fill="#000000" stroke="#000000" points="360.2773,-101.7536 361.0775,-91.189 353.8638,-98.9487 360.2773,-101.7536"/>
</g>
<!-- comedy -->
<g id="node14" class="node">
<title>comedy</title>
<path fill="#d3d3d3" stroke="#d3d3d3" d="M250.5,-476.4932C250.5,-476.4932 327.5,-476.4932 327.5,-476.4932 333.5,-476.4932 339.5,-482.4932 339.5,-488.4932 339.5,-488.4932 339.5,-509.4932 339.5,-509.4932 339.5,-515.4932 333.5,-521.4932 327.5,-521.4932 327.5,-521.4932 250.5,-521.4932 250.5,-521.4932 244.5,-521.4932 238.5,-515.4932 238.5,-509.4932 238.5,-509.4932 238.5,-488.4932 238.5,-488.4932 238.5,-482.4932 244.5,-476.4932 250.5,-476.4932"/>
<polygon fill="none" stroke="#d3d3d3" points="250,-482.9932 250,-513.9932 329,-513.9932 329,-482.9932 250,-482.9932"/>
<text text-anchor="start" x="265.7793" y="-500.7932" font-family="Times,serif" font-size="14.00" fill="#000000">Comedy</text>
<text text-anchor="start" x="252.5173" y="-489.1932" font-family="Arial" font-size="11.00" fill="#606060">[COMPSAC15]</text>
<polygon fill="none" stroke="#d3d3d3" points="246.5,-480.4932 246.5,-517.4932 331.5,-517.4932 331.5,-480.4932 246.5,-480.4932"/>
</g>
<!-- bc -->
<g id="node17" class="node">
<title>bc</title>
<path fill="#d3d3d3" stroke="#d3d3d3" d="M642.5,-476.4932C642.5,-476.4932 719.5,-476.4932 719.5,-476.4932 725.5,-476.4932 731.5,-482.4932 731.5,-488.4932 731.5,-488.4932 731.5,-509.4932 731.5,-509.4932 731.5,-515.4932 725.5,-521.4932 719.5,-521.4932 719.5,-521.4932 642.5,-521.4932 642.5,-521.4932 636.5,-521.4932 630.5,-515.4932 630.5,-509.4932 630.5,-509.4932 630.5,-488.4932 630.5,-488.4932 630.5,-482.4932 636.5,-476.4932 642.5,-476.4932"/>
<polygon fill="none" stroke="#d3d3d3" points="642,-482.9932 642,-513.9932 721,-513.9932 721,-482.9932 642,-482.9932"/>
<text text-anchor="start" x="644.7534" y="-500.7932" font-family="Times,serif" font-size="14.00" fill="#000000">Bisect Coord</text>
<text text-anchor="start" x="661.6296" y="-489.1932" font-family="Arial" font-size="11.00" fill="#606060">[FSE16]</text>
<polygon fill="none" stroke="#d3d3d3" points="638.5,-480.4932 638.5,-517.4932 723.5,-517.4932 723.5,-480.4932 638.5,-480.4932"/>
</g>
<!-- bc&#45;&gt;survey -->
<g id="edge7" class="edge">
<title>bc&#45;&gt;survey</title>
<path fill="none" stroke="#000000" d="M664.055,-476.2145C655.0268,-464.0783 643.7916,-448.9751 633.9875,-435.7958"/>
<polygon fill="#000000" stroke="#000000" points="636.5659,-433.3978 627.789,-427.4634 630.9495,-437.5759 636.5659,-433.3978"/>
</g>
<!-- att -->
<g id="node18" class="node">
<title>att</title>
<path fill="#d3d3d3" stroke="#d3d3d3" d="M239.5,-288.2959C239.5,-288.2959 322.5,-288.2959 322.5,-288.2959 328.5,-288.2959 334.5,-294.2959 334.5,-300.2959 334.5,-300.2959 334.5,-321.2959 334.5,-321.2959 334.5,-327.2959 328.5,-333.2959 322.5,-333.2959 322.5,-333.2959 239.5,-333.2959 239.5,-333.2959 233.5,-333.2959 227.5,-327.2959 227.5,-321.2959 227.5,-321.2959 227.5,-300.2959 227.5,-300.2959 227.5,-294.2959 233.5,-288.2959 239.5,-288.2959"/>
<polygon fill="none" stroke="#d3d3d3" points="239,-294.7959 239,-325.7959 324,-325.7959 324,-294.7959 239,-294.7959"/>
<text text-anchor="start" x="268.6689" y="-312.5959" font-family="Times,serif" font-size="14.00" fill="#000000">ATT</text>
<text text-anchor="start" x="241.7539" y="-300.9959" font-family="Arial" font-size="11.00" fill="#606060">[Internetware15]</text>
<polygon fill="none" stroke="#d3d3d3" points="235.5,-292.2959 235.5,-329.2959 326.5,-329.2959 326.5,-292.2959 235.5,-292.2959"/>
</g>
<!-- att&#45;&gt;aatt -->
<g id="edge2" class="edge">
<title>att&#45;&gt;aatt</title>
<path fill="none" stroke="#000000" d="M313.7092,-288.1389C323.0981,-282.6848 333.6153,-277.5107 344,-274.2959 366.566,-267.31 428.8238,-276.7645 450,-266.2959 461.448,-260.6365 471.558,-251.3899 479.8426,-241.805"/>
<polygon fill="#000000" stroke="#000000" points="482.7939,-243.7216 486.3616,-233.7455 477.3514,-239.3193 482.7939,-243.7216"/>
</g>
<!-- att&#45;&gt;gat -->
<g id="edge1" class="edge">
<title>att&#45;&gt;gat</title>
<path fill="none" stroke="#000000" d="M287.4358,-288.2496C291.6275,-273.5647 297.1611,-254.1788 301.8126,-237.8834"/>
<polygon fill="#000000" stroke="#000000" points="305.1956,-238.7829 304.5749,-228.2063 298.4644,-236.8615 305.1956,-238.7829"/>
</g>
<!-- rwtrace -->
<g id="node19" class="node">
<title>rwtrace</title>
<path fill="#d3d3d3" stroke="#d3d3d3" d="M622.5,-570.5918C622.5,-570.5918 679.5,-570.5918 679.5,-570.5918 685.5,-570.5918 691.5,-576.5918 691.5,-582.5918 691.5,-582.5918 691.5,-603.5918 691.5,-603.5918 691.5,-609.5918 685.5,-615.5918 679.5,-615.5918 679.5,-615.5918 622.5,-615.5918 622.5,-615.5918 616.5,-615.5918 610.5,-609.5918 610.5,-603.5918 610.5,-603.5918 610.5,-582.5918 610.5,-582.5918 610.5,-576.5918 616.5,-570.5918 622.5,-570.5918"/>
<polygon fill="none" stroke="#d3d3d3" points="622,-577.0918 622,-608.0918 681,-608.0918 681,-577.0918 622,-577.0918"/>
<text text-anchor="start" x="624.9219" y="-594.8918" font-family="Times,serif" font-size="14.00" fill="#000000">RWTrace</text>
<text text-anchor="start" x="631.3208" y="-583.2918" font-family="Arial" font-size="11.00" fill="#606060">[ASE15]</text>
<polygon fill="none" stroke="#d3d3d3" points="618.5,-574.5918 618.5,-611.5918 683.5,-611.5918 683.5,-574.5918 618.5,-574.5918"/>
</g>
<!-- rwtrace&#45;&gt;survey -->
<g id="edge6" class="edge">
<title>rwtrace&#45;&gt;survey</title>
<path fill="none" stroke="#000000" d="M630.8773,-570.4346C627.3416,-565.3606 624.1201,-559.7849 622,-554.0918 607.8108,-515.9898 606.8617,-468.6973 608.2658,-437.7016"/>
<polygon fill="#000000" stroke="#000000" points="611.7747,-437.6405 608.8428,-427.4595 604.7858,-437.2467 611.7747,-437.6405"/>
</g>
<!-- rwtrace&#45;&gt;bc -->
<g id="edge4" class="edge">
<title>rwtrace&#45;&gt;bc</title>
<path fill="none" stroke="#000000" d="M658.2622,-570.3131C661.984,-558.6392 666.581,-544.2202 670.6654,-531.4087"/>
<polygon fill="#000000" stroke="#000000" points="674.1018,-532.1527 673.8047,-521.562 667.4325,-530.0264 674.1018,-532.1527"/>
</g>
<!-- cosedroid -->
<g id="node20" class="node">
<title>cosedroid</title>
<path fill="#d3d3d3" stroke="#d3d3d3" d="M247.5,-382.3945C247.5,-382.3945 324.5,-382.3945 324.5,-382.3945 330.5,-382.3945 336.5,-388.3945 336.5,-394.3945 336.5,-394.3945 336.5,-415.3945 336.5,-415.3945 336.5,-421.3945 330.5,-427.3945 324.5,-427.3945 324.5,-427.3945 247.5,-427.3945 247.5,-427.3945 241.5,-427.3945 235.5,-421.3945 235.5,-415.3945 235.5,-415.3945 235.5,-394.3945 235.5,-394.3945 235.5,-388.3945 241.5,-382.3945 247.5,-382.3945"/>
<polygon fill="none" stroke="#d3d3d3" points="247,-388.8945 247,-419.8945 326,-419.8945 326,-388.8945 247,-388.8945"/>
<text text-anchor="start" x="256.1689" y="-406.6945" font-family="Times,serif" font-size="14.00" fill="#000000">CoseDroid</text>
<text text-anchor="start" x="249.5173" y="-395.0945" font-family="Arial" font-size="11.00" fill="#606060">[COMPSAC14]</text>
<polygon fill="none" stroke="#d3d3d3" points="243.5,-386.3945 243.5,-423.3945 328.5,-423.3945 328.5,-386.3945 243.5,-386.3945"/>
</g>
<!-- cosedroid&#45;&gt;att -->
<g id="edge13" class="edge">
<title>cosedroid&#45;&gt;att</title>
<path fill="none" stroke="#000000" d="M284.7896,-382.1159C284.1755,-370.5576 283.4183,-356.3081 282.7427,-343.5925"/>
<polygon fill="#000000" stroke="#000000" points="286.225,-343.165 282.1992,-333.3648 279.2348,-343.5364 286.225,-343.165"/>
</g>
<!-- care -->
<g id="node21" class="node">
<title>care</title>
<path fill="#d3d3d3" stroke="#d3d3d3" d="M597,-656.6904C597,-656.6904 645,-656.6904 645,-656.6904 651,-656.6904 657,-662.6904 657,-668.6904 657,-668.6904 657,-689.6904 657,-689.6904 657,-695.6904 651,-701.6904 645,-701.6904 645,-701.6904 597,-701.6904 597,-701.6904 591,-701.6904 585,-695.6904 585,-689.6904 585,-689.6904 585,-668.6904 585,-668.6904 585,-662.6904 591,-656.6904 597,-656.6904"/>
<polygon fill="none" stroke="#d3d3d3" points="596,-663.1904 596,-694.1904 646,-694.1904 646,-663.1904 596,-663.1904"/>
<text text-anchor="start" x="602.3311" y="-680.9904" font-family="Times,serif" font-size="14.00" fill="#000000">CARE</text>
<text text-anchor="start" x="598.9893" y="-669.3904" font-family="Arial" font-size="11.00" fill="#606060">[ICSE14]</text>
<polygon fill="none" stroke="#d3d3d3" points="593,-660.6904 593,-697.6904 649,-697.6904 649,-660.6904 593,-660.6904"/>
</g>
<!-- care&#45;&gt;survey -->
<g id="edge5" class="edge">
<title>care&#45;&gt;survey</title>
<path fill="none" stroke="#000000" d="M605.2113,-656.4751C603.9067,-653.7763 602.7883,-650.9851 602,-648.1904 600.3432,-642.3165 602.9291,-469.029 603,-467.9932 603.6759,-458.1231 604.8585,-447.433 606.1105,-437.7059"/>
<polygon fill="#000000" stroke="#000000" points="609.6035,-437.9922 607.4754,-427.6133 602.6667,-437.0539 609.6035,-437.9922"/>
</g>
<!-- care&#45;&gt;rwtrace -->
<g id="edge3" class="edge">
<title>care&#45;&gt;rwtrace</title>
<path fill="none" stroke="#000000" d="M628.8821,-656.569C632.1974,-647.0543 636.1166,-635.8065 639.728,-625.442"/>
<polygon fill="#000000" stroke="#000000" points="643.081,-626.4559 643.0663,-615.861 636.4708,-624.1526 643.081,-626.4559"/>
</g>
<!-- uga -->
<g id="node22" class="node">
<title>uga</title>
<path fill="#d3d3d3" stroke="#d3d3d3" d="M146.5,-382.3945C146.5,-382.3945 205.5,-382.3945 205.5,-382.3945 211.5,-382.3945 217.5,-388.3945 217.5,-394.3945 217.5,-394.3945 217.5,-415.3945 217.5,-415.3945 217.5,-421.3945 211.5,-427.3945 205.5,-427.3945 205.5,-427.3945 146.5,-427.3945 146.5,-427.3945 140.5,-427.3945 134.5,-421.3945 134.5,-415.3945 134.5,-415.3945 134.5,-394.3945 134.5,-394.3945 134.5,-388.3945 140.5,-382.3945 146.5,-382.3945"/>
<polygon fill="none" stroke="#d3d3d3" points="146,-388.8945 146,-419.8945 207,-419.8945 207,-388.8945 146,-388.8945"/>
<text text-anchor="start" x="161.3345" y="-406.6945" font-family="Times,serif" font-size="14.00" fill="#000000">UGA</text>
<text text-anchor="start" x="148.6804" y="-395.0945" font-family="Arial" font-size="11.00" fill="#606060">[APSEC14]</text>
<polygon fill="none" stroke="#d3d3d3" points="142.5,-386.3945 142.5,-423.3945 209.5,-423.3945 209.5,-386.3945 142.5,-386.3945"/>
</g>
<!-- uga&#45;&gt;att -->
<g id="edge10" class="edge">
<title>uga&#45;&gt;att</title>
<path fill="none" stroke="#000000" d="M201.1501,-382.3556C215.2029,-369.7617 232.883,-353.9173 248.0323,-340.3408"/>
<polygon fill="#000000" stroke="#000000" points="250.58,-342.7575 255.6912,-333.4771 245.9082,-337.5445 250.58,-342.7575"/>
</g>
<!-- tapir -->
<g id="node24" class="node">
<title>tapir</title>
<path fill="#d3d3d3" stroke="#d3d3d3" d="M44,-382.3945C44,-382.3945 104,-382.3945 104,-382.3945 110,-382.3945 116,-388.3945 116,-394.3945 116,-394.3945 116,-415.3945 116,-415.3945 116,-421.3945 110,-427.3945 104,-427.3945 104,-427.3945 44,-427.3945 44,-427.3945 38,-427.3945 32,-421.3945 32,-415.3945 32,-415.3945 32,-394.3945 32,-394.3945 32,-388.3945 38,-382.3945 44,-382.3945"/>
<polygon fill="none" stroke="#d3d3d3" points="43,-388.8945 43,-419.8945 105,-419.8945 105,-388.8945 43,-388.8945"/>
<text text-anchor="start" x="54.333" y="-406.6945" font-family="Times,serif" font-size="14.00" fill="#000000">TAPIR</text>
<text text-anchor="start" x="45.877" y="-395.0945" font-family="Arial" font-size="11.00" fill="#606060">[SANER19]</text>
<polygon fill="none" stroke="#d3d3d3" points="40,-386.3945 40,-423.3945 108,-423.3945 108,-386.3945 40,-386.3945"/>
</g>
<!-- test&#45;survey -->
<g id="node26" class="node">
<title>test&#45;survey</title>
<path fill="#d3d3d3" stroke="#d3d3d3" d="M213,-656.6904C213,-656.6904 257,-656.6904 257,-656.6904 263,-656.6904 269,-662.6904 269,-668.6904 269,-668.6904 269,-689.6904 269,-689.6904 269,-695.6904 263,-701.6904 257,-701.6904 257,-701.6904 213,-701.6904 213,-701.6904 207,-701.6904 201,-695.6904 201,-689.6904 201,-689.6904 201,-668.6904 201,-668.6904 201,-662.6904 207,-656.6904 213,-656.6904"/>
<polygon fill="none" stroke="#d3d3d3" points="212,-663.1904 212,-694.1904 258,-694.1904 258,-663.1904 212,-663.1904"/>
<text text-anchor="start" x="215.1689" y="-680.9904" font-family="Times,serif" font-size="14.00" fill="#000000">Survey</text>
<text text-anchor="start" x="214.8262" y="-669.3904" font-family="Arial" font-size="11.00" fill="#606060">[FCS19]</text>
<polygon fill="none" stroke="#d3d3d3" points="209,-660.6904 209,-697.6904 261,-697.6904 261,-660.6904 209,-660.6904"/>
</g>
<!-- test&#45;survey&#45;&gt;cod -->
<g id="edge19" class="edge">
<title>test&#45;survey&#45;&gt;cod</title>
<path fill="none" stroke="#000000" d="M235,-656.569C235,-647.2505 235,-636.2696 235,-626.0842"/>
<polygon fill="#000000" stroke="#000000" points="238.5001,-625.861 235,-615.861 231.5001,-625.8611 238.5001,-625.861"/>
</g>
</g>
</svg>
