<?xml version="1.0" encoding="UTF-8" standalone="no"?>
<!DOCTYPE svg PUBLIC "-//W3C//DTD SVG 1.1//EN"
 "http://www.w3.org/Graphics/SVG/1.1/DTD/svg11.dtd">
<!-- Generated by graphviz version 2.40.1 (20161225.0304)
 -->
<!-- Title: G Pages: 1 -->
<svg width="966pt" height="772pt"
 viewBox="0.00 0.00 966.00 771.69" xmlns="http://www.w3.org/2000/svg" xmlns:xlink="http://www.w3.org/1999/xlink">
<g id="graph0" class="graph" transform="scale(1 1) rotate(0) translate(4 767.6904)">
<title>G</title>
<polygon fill="#ffffff" stroke="transparent" points="-4,4 -4,-767.6904 962,-767.6904 962,4 -4,4"/>
<g id="clust1" class="cluster">
<title>cluster_subG</title>
<polygon fill="none" stroke="#000000" points="8,-8 8,-755.6904 950,-755.6904 950,-8 8,-8"/>
</g>
<g id="clust2" class="cluster">
<title>cluster_sta</title>
<polygon fill="none" stroke="#000000" points="16,-161.1973 16,-747.6904 942,-747.6904 942,-161.1973 16,-161.1973"/>
<text text-anchor="middle" x="479" y="-732.4904" font-family="Arial" font-size="14.00" fill="#000000">Software Testing and Analysis</text>
</g>
<g id="clust3" class="cluster">
<title>cluster_adverse</title>
<polygon fill="none" stroke="#000000" points="332,-367.2959 332,-453.3945 504,-453.3945 504,-367.2959 332,-367.2959"/>
<text text-anchor="middle" x="418" y="-438.1945" font-family="Arial" font-size="14.00" fill="#000000">Adversarial Conditions</text>
</g>
<g id="clust4" class="cluster">
<title>cluster_concurrency</title>
<polygon fill="none" stroke="#000000" points="195,-169.1973 195,-266.2959 423,-266.2959 423,-169.1973 195,-169.1973"/>
<text text-anchor="middle" x="309" y="-251.0959" font-family="Arial" font-size="14.00" fill="#000000">Exploration of Interleaving Spaces</text>
</g>
<g id="clust5" class="cluster">
<title>cluster_analysis</title>
<polygon fill="none" stroke="#000000" points="718,-461.3945 718,-547.4932 930,-547.4932 930,-461.3945 718,-461.3945"/>
<text text-anchor="middle" x="824" y="-532.2932" font-family="Arial" font-size="14.00" fill="#000000">Software Analysis</text>
</g>
<g id="clust6" class="cluster">
<title>cluster_smd</title>
<polygon fill="none" stroke="#000000" points="24,-274.2959 24,-715.5918 324,-715.5918 324,-274.2959 24,-274.2959"/>
<text text-anchor="middle" x="174" y="-700.3918" font-family="Arial" font-size="14.00" fill="#000000">Understanding Shared Memory Dependences</text>
</g>
<g id="clust7" class="cluster">
<title>cluster_mobile</title>
<polygon fill="none" stroke="#000000" points="512,-174.6973 512,-453.3945 934,-453.3945 934,-174.6973 512,-174.6973"/>
<text text-anchor="middle" x="723" y="-438.1945" font-family="Arial" font-size="14.00" fill="#000000">Mobile Apps</text>
</g>
<g id="clust8" class="cluster">
<title>cluster_synthesis</title>
<polygon fill="none" stroke="#000000" points="321,-16 321,-153.1973 583,-153.1973 583,-16 321,-16"/>
<text text-anchor="middle" x="452" y="-137.9973" font-family="Arial" font-size="14.00" fill="#000000">Program Synthesis</text>
</g>
<g id="clust9" class="cluster">
<title>cluster_transformer</title>
<polygon fill="none" stroke="#000000" points="329,-24 329,-121.0986 575,-121.0986 575,-24 329,-24"/>
<text text-anchor="middle" x="452" y="-105.8986" font-family="Arial" font-size="14.00" fill="#000000">Transformers</text>
</g>
<g id="clust10" class="cluster">
<title>cluster_tech</title>
<polygon fill="none" stroke="#000000" points="112,-24 112,-121.0986 313,-121.0986 313,-24 112,-24"/>
<text text-anchor="middle" x="212.5" y="-105.8986" font-family="Arial" font-size="14.00" fill="#000000">Fun and Profits</text>
</g>
<!-- rescue -->
<g id="node1" class="node">
<title>rescue</title>
<path fill="#d3d3d3" stroke="#d3d3d3" d="M438,-375.7959C438,-375.7959 484,-375.7959 484,-375.7959 490,-375.7959 496,-381.7959 496,-387.7959 496,-387.7959 496,-408.7959 496,-408.7959 496,-414.7959 490,-420.7959 484,-420.7959 484,-420.7959 438,-420.7959 438,-420.7959 432,-420.7959 426,-414.7959 426,-408.7959 426,-408.7959 426,-387.7959 426,-387.7959 426,-381.7959 432,-375.7959 438,-375.7959"/>
<polygon fill="none" stroke="#d3d3d3" points="437,-382.2959 437,-413.2959 485,-413.2959 485,-382.2959 437,-382.2959"/>
<text text-anchor="start" x="439.6172" y="-400.0959" font-family="Times,serif" font-size="14.00" fill="#000000">ReScue</text>
<text text-anchor="start" x="440.8208" y="-388.4959" font-family="Arial" font-size="11.00" fill="#606060">[ASE18]</text>
<polygon fill="none" stroke="#d3d3d3" points="434,-379.7959 434,-416.7959 488,-416.7959 488,-379.7959 434,-379.7959"/>
</g>
<!-- scs -->
<g id="node2" class="node">
<title>scs</title>
<path fill="#d3d3d3" stroke="#d3d3d3" d="M236.5,-183.1973C236.5,-183.1973 279.5,-183.1973 279.5,-183.1973 285.5,-183.1973 291.5,-189.1973 291.5,-195.1973 291.5,-195.1973 291.5,-216.1973 291.5,-216.1973 291.5,-222.1973 285.5,-228.1973 279.5,-228.1973 279.5,-228.1973 236.5,-228.1973 236.5,-228.1973 230.5,-228.1973 224.5,-222.1973 224.5,-216.1973 224.5,-216.1973 224.5,-195.1973 224.5,-195.1973 224.5,-189.1973 230.5,-183.1973 236.5,-183.1973"/>
<polygon fill="none" stroke="#d3d3d3" points="236,-189.6973 236,-220.6973 281,-220.6973 281,-189.6973 236,-189.6973"/>
<text text-anchor="start" x="246.0449" y="-207.4973" font-family="Times,serif" font-size="14.00" fill="#000000">SCS</text>
<text text-anchor="start" x="238.6296" y="-195.8973" font-family="Arial" font-size="11.00" fill="#606060">[FSE18]</text>
<polygon fill="none" stroke="#d3d3d3" points="232.5,-187.1973 232.5,-224.1973 283.5,-224.1973 283.5,-187.1973 232.5,-187.1973"/>
</g>
<!-- abc -->
<g id="node13" class="node">
<title>abc</title>
<path fill="#d3d3d3" stroke="#d3d3d3" d="M132.5,-38C132.5,-38 191.5,-38 191.5,-38 197.5,-38 203.5,-44 203.5,-50 203.5,-50 203.5,-71 203.5,-71 203.5,-77 197.5,-83 191.5,-83 191.5,-83 132.5,-83 132.5,-83 126.5,-83 120.5,-77 120.5,-71 120.5,-71 120.5,-50 120.5,-50 120.5,-44 126.5,-38 132.5,-38"/>
<polygon fill="none" stroke="#d3d3d3" points="132,-44.5 132,-75.5 193,-75.5 193,-44.5 132,-44.5"/>
<text text-anchor="start" x="148.1069" y="-62.3" font-family="Times,serif" font-size="14.00" fill="#000000">ABC</text>
<text text-anchor="start" x="134.6804" y="-50.7" font-family="Arial" font-size="11.00" fill="#606060">[APSEC15]</text>
<polygon fill="none" stroke="#d3d3d3" points="128.5,-42 128.5,-79 195.5,-79 195.5,-42 128.5,-42"/>
</g>
<!-- scs&#45;&gt;abc -->
<!-- enter -->
<g id="node14" class="node">
<title>enter</title>
<path fill="#d3d3d3" stroke="#d3d3d3" d="M349,-38C349,-38 431,-38 431,-38 437,-38 443,-44 443,-50 443,-50 443,-71 443,-71 443,-77 437,-83 431,-83 431,-83 349,-83 349,-83 343,-83 337,-77 337,-71 337,-71 337,-50 337,-50 337,-44 343,-38 349,-38"/>
<polygon fill="none" stroke="#d3d3d3" points="348,-44.5 348,-75.5 432,-75.5 432,-44.5 348,-44.5"/>
<text text-anchor="start" x="367.4482" y="-62.3" font-family="Times,serif" font-size="14.00" fill="#000000">ENTER</text>
<text text-anchor="start" x="350.5654" y="-50.7" font-family="Arial" font-size="11.00" fill="#606060">[ICSE18 Poster]</text>
<polygon fill="none" stroke="#d3d3d3" points="345,-42 345,-79 435,-79 435,-42 345,-42"/>
</g>
<!-- scs&#45;&gt;enter -->
<!-- aotes -->
<g id="node3" class="node">
<title>aotes</title>
<path fill="#d3d3d3" stroke="#d3d3d3" d="M473,-32.5C473,-32.5 555,-32.5 555,-32.5 561,-32.5 567,-38.5 567,-44.5 567,-44.5 567,-76.5 567,-76.5 567,-82.5 561,-88.5 555,-88.5 555,-88.5 473,-88.5 473,-88.5 467,-88.5 461,-82.5 461,-76.5 461,-76.5 461,-44.5 461,-44.5 461,-38.5 467,-32.5 473,-32.5"/>
<polygon fill="none" stroke="#d3d3d3" points="472,-39.5 472,-81.5 556,-81.5 556,-39.5 472,-39.5"/>
<text text-anchor="start" x="491.4448" y="-68.3" font-family="Times,serif" font-size="14.00" fill="#000000">AOTES</text>
<text text-anchor="start" x="474.5654" y="-56.7" font-family="Arial" font-size="11.00" fill="#606060">[ICSE17 Poster]</text>
<text text-anchor="start" x="484.9612" y="-45.7" font-family="Arial" font-size="11.00" fill="#606060">[ECOOP18]</text>
<polygon fill="none" stroke="#d3d3d3" points="469,-36.5 469,-84.5 559,-84.5 559,-36.5 469,-36.5"/>
</g>
<!-- needle -->
<g id="node4" class="node">
<title>needle</title>
<path fill="#d3d3d3" stroke="#d3d3d3" d="M858,-469.8945C858,-469.8945 910,-469.8945 910,-469.8945 916,-469.8945 922,-475.8945 922,-481.8945 922,-481.8945 922,-502.8945 922,-502.8945 922,-508.8945 916,-514.8945 910,-514.8945 910,-514.8945 858,-514.8945 858,-514.8945 852,-514.8945 846,-508.8945 846,-502.8945 846,-502.8945 846,-481.8945 846,-481.8945 846,-475.8945 852,-469.8945 858,-469.8945"/>
<polygon fill="none" stroke="#d3d3d3" points="857,-476.3945 857,-507.3945 911,-507.3945 911,-476.3945 857,-476.3945"/>
<text text-anchor="start" x="864.1792" y="-494.1945" font-family="Times,serif" font-size="14.00" fill="#000000">Needle</text>
<text text-anchor="start" x="859.5508" y="-482.5945" font-family="Arial" font-size="11.00" fill="#606060">[TURC18]</text>
<polygon fill="none" stroke="#d3d3d3" points="854,-473.8945 854,-510.8945 914,-510.8945 914,-473.8945 854,-473.8945"/>
</g>
<!-- repdroid -->
<g id="node6" class="node">
<title>repdroid</title>
<path fill="#d3d3d3" stroke="#d3d3d3" d="M854.5,-375.7959C854.5,-375.7959 913.5,-375.7959 913.5,-375.7959 919.5,-375.7959 925.5,-381.7959 925.5,-387.7959 925.5,-387.7959 925.5,-408.7959 925.5,-408.7959 925.5,-414.7959 919.5,-420.7959 913.5,-420.7959 913.5,-420.7959 854.5,-420.7959 854.5,-420.7959 848.5,-420.7959 842.5,-414.7959 842.5,-408.7959 842.5,-408.7959 842.5,-387.7959 842.5,-387.7959 842.5,-381.7959 848.5,-375.7959 854.5,-375.7959"/>
<polygon fill="none" stroke="#d3d3d3" points="854,-382.2959 854,-413.2959 915,-413.2959 915,-382.2959 854,-382.2959"/>
<text text-anchor="start" x="856.8931" y="-400.0959" font-family="Times,serif" font-size="14.00" fill="#000000">RepDroid</text>
<text text-anchor="start" x="862.1858" y="-388.4959" font-family="Arial" font-size="11.00" fill="#606060">[ICPC17]</text>
<polygon fill="none" stroke="#d3d3d3" points="850.5,-379.7959 850.5,-416.7959 917.5,-416.7959 917.5,-379.7959 850.5,-379.7959"/>
</g>
<!-- needle&#45;&gt;repdroid -->
<g id="edge11" class="edge">
<title>needle&#45;&gt;repdroid</title>
<path fill="none" stroke="#000000" d="M884,-469.6159C884,-458.0576 884,-443.8081 884,-431.0925"/>
<polygon fill="#000000" stroke="#000000" points="887.5001,-430.8647 884,-420.8648 880.5001,-430.8648 887.5001,-430.8647"/>
</g>
<!-- thesis -->
<g id="node5" class="node">
<title>thesis</title>
<path fill="#d3d3d3" stroke="#d3d3d3" d="M212,-282.7959C212,-282.7959 304,-282.7959 304,-282.7959 310,-282.7959 316,-288.7959 316,-294.7959 316,-294.7959 316,-326.7959 316,-326.7959 316,-332.7959 310,-338.7959 304,-338.7959 304,-338.7959 212,-338.7959 212,-338.7959 206,-338.7959 200,-332.7959 200,-326.7959 200,-326.7959 200,-294.7959 200,-294.7959 200,-288.7959 206,-282.7959 212,-282.7959"/>
<polygon fill="none" stroke="#d3d3d3" points="211,-289.7959 211,-331.7959 305,-331.7959 305,-289.7959 211,-289.7959"/>
<text text-anchor="start" x="225.6489" y="-318.5959" font-family="Times,serif" font-size="14.00" fill="#000000">PhD Thesis</text>
<text text-anchor="start" x="225.0779" y="-306.9959" font-family="Arial" font-size="11.00" fill="#606060">Yanyan Jiang</text>
<text text-anchor="start" x="213.6777" y="-295.9959" font-family="Arial" font-size="11.00" fill="#606060">Nanjing University</text>
<polygon fill="none" stroke="#d3d3d3" points="208,-286.7959 208,-334.7959 308,-334.7959 308,-286.7959 208,-286.7959"/>
</g>
<!-- thesis&#45;&gt;scs -->
<g id="edge12" class="edge">
<title>thesis&#45;&gt;scs</title>
<path fill="none" stroke="#000000" d="M258,-282.6314C258,-269.0646 258,-252.7115 258,-238.5771"/>
<polygon fill="#000000" stroke="#000000" points="261.5001,-238.2839 258,-228.2839 254.5001,-238.2839 261.5001,-238.2839"/>
</g>
<!-- lesdroid -->
<g id="node21" class="node">
<title>lesdroid</title>
<path fill="#d3d3d3" stroke="#d3d3d3" d="M852.5,-288.2959C852.5,-288.2959 913.5,-288.2959 913.5,-288.2959 919.5,-288.2959 925.5,-294.2959 925.5,-300.2959 925.5,-300.2959 925.5,-321.2959 925.5,-321.2959 925.5,-327.2959 919.5,-333.2959 913.5,-333.2959 913.5,-333.2959 852.5,-333.2959 852.5,-333.2959 846.5,-333.2959 840.5,-327.2959 840.5,-321.2959 840.5,-321.2959 840.5,-300.2959 840.5,-300.2959 840.5,-294.2959 846.5,-288.2959 852.5,-288.2959"/>
<polygon fill="none" stroke="#d3d3d3" points="852,-294.7959 852,-325.7959 915,-325.7959 915,-294.7959 852,-294.7959"/>
<text text-anchor="start" x="854.7241" y="-312.5959" font-family="Times,serif" font-size="14.00" fill="#000000">LESDroid</text>
<text text-anchor="start" x="861.1858" y="-300.9959" font-family="Arial" font-size="11.00" fill="#606060">[ICPC18]</text>
<polygon fill="none" stroke="#d3d3d3" points="848.5,-292.2959 848.5,-329.2959 917.5,-329.2959 917.5,-292.2959 848.5,-292.2959"/>
</g>
<!-- repdroid&#45;&gt;lesdroid -->
<g id="edge8" class="edge">
<title>repdroid&#45;&gt;lesdroid</title>
<path fill="none" stroke="#000000" d="M883.7425,-375.7625C883.6314,-366.0404 883.4992,-354.4739 883.3773,-343.8135"/>
<polygon fill="#000000" stroke="#000000" points="886.8743,-343.5164 883.2601,-333.5571 879.8747,-343.5965 886.8743,-343.5164"/>
</g>
<!-- gain -->
<g id="node7" class="node">
<title>gain</title>
<path fill="#d3d3d3" stroke="#d3d3d3" d="M233.5,-32.5C233.5,-32.5 292.5,-32.5 292.5,-32.5 298.5,-32.5 304.5,-38.5 304.5,-44.5 304.5,-44.5 304.5,-76.5 304.5,-76.5 304.5,-82.5 298.5,-88.5 292.5,-88.5 292.5,-88.5 233.5,-88.5 233.5,-88.5 227.5,-88.5 221.5,-82.5 221.5,-76.5 221.5,-76.5 221.5,-44.5 221.5,-44.5 221.5,-38.5 227.5,-32.5 233.5,-32.5"/>
<polygon fill="none" stroke="#d3d3d3" points="233,-39.5 233,-81.5 294,-81.5 294,-39.5 233,-39.5"/>
<text text-anchor="start" x="246.0034" y="-68.3" font-family="Times,serif" font-size="14.00" fill="#000000">GAIN</text>
<text text-anchor="start" x="235.6804" y="-56.7" font-family="Arial" font-size="11.00" fill="#606060">[APSEC14]</text>
<text text-anchor="start" x="245.77" y="-45.7" font-family="Arial" font-size="11.00" fill="#606060">[IST16]</text>
<polygon fill="none" stroke="#d3d3d3" points="229.5,-36.5 229.5,-84.5 296.5,-84.5 296.5,-36.5 229.5,-36.5"/>
</g>
<!-- survey -->
<g id="node8" class="node">
<title>survey</title>
<path fill="#d3d3d3" stroke="#d3d3d3" d="M204.5,-375.7959C204.5,-375.7959 247.5,-375.7959 247.5,-375.7959 253.5,-375.7959 259.5,-381.7959 259.5,-387.7959 259.5,-387.7959 259.5,-408.7959 259.5,-408.7959 259.5,-414.7959 253.5,-420.7959 247.5,-420.7959 247.5,-420.7959 204.5,-420.7959 204.5,-420.7959 198.5,-420.7959 192.5,-414.7959 192.5,-408.7959 192.5,-408.7959 192.5,-387.7959 192.5,-387.7959 192.5,-381.7959 198.5,-375.7959 204.5,-375.7959"/>
<polygon fill="none" stroke="#d3d3d3" points="204,-382.2959 204,-413.2959 249,-413.2959 249,-382.2959 204,-382.2959"/>
<text text-anchor="start" x="206.6689" y="-400.0959" font-family="Times,serif" font-size="14.00" fill="#000000">Survey</text>
<text text-anchor="start" x="207.8489" y="-388.4959" font-family="Arial" font-size="11.00" fill="#606060">[JoS17]</text>
<polygon fill="none" stroke="#d3d3d3" points="200.5,-379.7959 200.5,-416.7959 251.5,-416.7959 251.5,-379.7959 200.5,-379.7959"/>
</g>
<!-- survey&#45;&gt;thesis -->
<g id="edge9" class="edge">
<title>survey&#45;&gt;thesis</title>
<path fill="none" stroke="#000000" d="M234.2408,-375.7625C237.292,-367.4194 240.8399,-357.7181 244.2488,-348.3968"/>
<polygon fill="#000000" stroke="#000000" points="247.5767,-349.4872 247.7244,-338.8934 241.0026,-347.0829 247.5767,-349.4872"/>
</g>
<!-- aatt -->
<g id="node9" class="node">
<title>aatt</title>
<path fill="#d3d3d3" stroke="#d3d3d3" d="M332.5,-177.6973C332.5,-177.6973 391.5,-177.6973 391.5,-177.6973 397.5,-177.6973 403.5,-183.6973 403.5,-189.6973 403.5,-189.6973 403.5,-221.6973 403.5,-221.6973 403.5,-227.6973 397.5,-233.6973 391.5,-233.6973 391.5,-233.6973 332.5,-233.6973 332.5,-233.6973 326.5,-233.6973 320.5,-227.6973 320.5,-221.6973 320.5,-221.6973 320.5,-189.6973 320.5,-189.6973 320.5,-183.6973 326.5,-177.6973 332.5,-177.6973"/>
<polygon fill="none" stroke="#d3d3d3" points="332,-184.6973 332,-226.6973 393,-226.6973 393,-184.6973 332,-184.6973"/>
<text text-anchor="start" x="344.6138" y="-213.4973" font-family="Times,serif" font-size="14.00" fill="#000000">AATT</text>
<text text-anchor="start" x="334.6804" y="-201.8973" font-family="Arial" font-size="11.00" fill="#606060">[APSEC16]</text>
<text text-anchor="start" x="342.0173" y="-190.8973" font-family="Arial" font-size="11.00" fill="#606060">[SCP18]</text>
<polygon fill="none" stroke="#d3d3d3" points="328.5,-181.6973 328.5,-229.6973 395.5,-229.6973 395.5,-181.6973 328.5,-181.6973"/>
</g>
<!-- aatt&#45;&gt;thesis -->
<g id="edge14" class="edge">
<title>aatt&#45;&gt;thesis</title>
<path fill="none" stroke="#000000" d="M334.053,-233.9395C321.4529,-246.6726 306.4364,-261.8479 293.0882,-275.3371"/>
<polygon fill="#000000" stroke="#000000" points="290.4161,-273.0614 285.8701,-282.6314 295.3918,-277.9851 290.4161,-273.0614"/>
</g>
<!-- c3 -->
<g id="node10" class="node">
<title>c3</title>
<path fill="#d3d3d3" stroke="#d3d3d3" d="M352.5,-375.7959C352.5,-375.7959 395.5,-375.7959 395.5,-375.7959 401.5,-375.7959 407.5,-381.7959 407.5,-387.7959 407.5,-387.7959 407.5,-408.7959 407.5,-408.7959 407.5,-414.7959 401.5,-420.7959 395.5,-420.7959 395.5,-420.7959 352.5,-420.7959 352.5,-420.7959 346.5,-420.7959 340.5,-414.7959 340.5,-408.7959 340.5,-408.7959 340.5,-387.7959 340.5,-387.7959 340.5,-381.7959 346.5,-375.7959 352.5,-375.7959"/>
<polygon fill="none" stroke="#d3d3d3" points="352,-382.2959 352,-413.2959 397,-413.2959 397,-382.2959 352,-382.2959"/>
<text text-anchor="start" x="366.3311" y="-400.0959" font-family="Times,serif" font-size="14.00" fill="#000000">C3</text>
<text text-anchor="start" x="354.6296" y="-388.4959" font-family="Arial" font-size="11.00" fill="#606060">[FSE16]</text>
<polygon fill="none" stroke="#d3d3d3" points="348.5,-379.7959 348.5,-416.7959 399.5,-416.7959 399.5,-379.7959 348.5,-379.7959"/>
</g>
<!-- c3&#45;&gt;thesis -->
<g id="edge15" class="edge">
<title>c3&#45;&gt;thesis</title>
<path fill="none" stroke="#000000" d="M344.1271,-375.7625C331.7859,-366.4534 317.2029,-355.4533 303.5793,-345.1768"/>
<polygon fill="#000000" stroke="#000000" points="305.3404,-342.1212 295.2492,-338.8934 301.125,-347.7096 305.3404,-342.1212"/>
</g>
<!-- gat -->
<g id="node11" class="node">
<title>gat</title>
<path fill="#d3d3d3" stroke="#d3d3d3" d="M634.5,-183.1973C634.5,-183.1973 693.5,-183.1973 693.5,-183.1973 699.5,-183.1973 705.5,-189.1973 705.5,-195.1973 705.5,-195.1973 705.5,-216.1973 705.5,-216.1973 705.5,-222.1973 699.5,-228.1973 693.5,-228.1973 693.5,-228.1973 634.5,-228.1973 634.5,-228.1973 628.5,-228.1973 622.5,-222.1973 622.5,-216.1973 622.5,-216.1973 622.5,-195.1973 622.5,-195.1973 622.5,-189.1973 628.5,-183.1973 634.5,-183.1973"/>
<polygon fill="none" stroke="#d3d3d3" points="634,-189.6973 634,-220.6973 695,-220.6973 695,-189.6973 634,-189.6973"/>
<text text-anchor="start" x="650.8896" y="-207.4973" font-family="Times,serif" font-size="14.00" fill="#000000">GAT</text>
<text text-anchor="start" x="636.6804" y="-195.8973" font-family="Arial" font-size="11.00" fill="#606060">[APSEC16]</text>
<polygon fill="none" stroke="#d3d3d3" points="630.5,-187.1973 630.5,-224.1973 697.5,-224.1973 697.5,-187.1973 630.5,-187.1973"/>
</g>
<!-- comedy -->
<g id="node12" class="node">
<title>comedy</title>
<path fill="#d3d3d3" stroke="#d3d3d3" d="M738.5,-469.8945C738.5,-469.8945 815.5,-469.8945 815.5,-469.8945 821.5,-469.8945 827.5,-475.8945 827.5,-481.8945 827.5,-481.8945 827.5,-502.8945 827.5,-502.8945 827.5,-508.8945 821.5,-514.8945 815.5,-514.8945 815.5,-514.8945 738.5,-514.8945 738.5,-514.8945 732.5,-514.8945 726.5,-508.8945 726.5,-502.8945 726.5,-502.8945 726.5,-481.8945 726.5,-481.8945 726.5,-475.8945 732.5,-469.8945 738.5,-469.8945"/>
<polygon fill="none" stroke="#d3d3d3" points="738,-476.3945 738,-507.3945 817,-507.3945 817,-476.3945 738,-476.3945"/>
<text text-anchor="start" x="753.7793" y="-494.1945" font-family="Times,serif" font-size="14.00" fill="#000000">Comedy</text>
<text text-anchor="start" x="740.5173" y="-482.5945" font-family="Arial" font-size="11.00" fill="#606060">[COMPSAC15]</text>
<polygon fill="none" stroke="#d3d3d3" points="734.5,-473.8945 734.5,-510.8945 819.5,-510.8945 819.5,-473.8945 734.5,-473.8945"/>
</g>
<!-- bc -->
<g id="node15" class="node">
<title>bc</title>
<path fill="#d3d3d3" stroke="#d3d3d3" d="M226.5,-469.8945C226.5,-469.8945 303.5,-469.8945 303.5,-469.8945 309.5,-469.8945 315.5,-475.8945 315.5,-481.8945 315.5,-481.8945 315.5,-502.8945 315.5,-502.8945 315.5,-508.8945 309.5,-514.8945 303.5,-514.8945 303.5,-514.8945 226.5,-514.8945 226.5,-514.8945 220.5,-514.8945 214.5,-508.8945 214.5,-502.8945 214.5,-502.8945 214.5,-481.8945 214.5,-481.8945 214.5,-475.8945 220.5,-469.8945 226.5,-469.8945"/>
<polygon fill="none" stroke="#d3d3d3" points="226,-476.3945 226,-507.3945 305,-507.3945 305,-476.3945 226,-476.3945"/>
<text text-anchor="start" x="228.7534" y="-494.1945" font-family="Times,serif" font-size="14.00" fill="#000000">Bisect Coord</text>
<text text-anchor="start" x="245.6296" y="-482.5945" font-family="Arial" font-size="11.00" fill="#606060">[FSE16]</text>
<polygon fill="none" stroke="#d3d3d3" points="222.5,-473.8945 222.5,-510.8945 307.5,-510.8945 307.5,-473.8945 222.5,-473.8945"/>
</g>
<!-- bc&#45;&gt;survey -->
<g id="edge7" class="edge">
<title>bc&#45;&gt;survey</title>
<path fill="none" stroke="#000000" d="M255.5592,-469.6159C250.6729,-457.8264 244.6263,-443.2371 239.2774,-430.3314"/>
<polygon fill="#000000" stroke="#000000" points="242.416,-428.7627 235.3539,-420.8648 235.9494,-431.4429 242.416,-428.7627"/>
</g>
<!-- att -->
<g id="node16" class="node">
<title>att</title>
<path fill="#d3d3d3" stroke="#d3d3d3" d="M622.5,-288.2959C622.5,-288.2959 705.5,-288.2959 705.5,-288.2959 711.5,-288.2959 717.5,-294.2959 717.5,-300.2959 717.5,-300.2959 717.5,-321.2959 717.5,-321.2959 717.5,-327.2959 711.5,-333.2959 705.5,-333.2959 705.5,-333.2959 622.5,-333.2959 622.5,-333.2959 616.5,-333.2959 610.5,-327.2959 610.5,-321.2959 610.5,-321.2959 610.5,-300.2959 610.5,-300.2959 610.5,-294.2959 616.5,-288.2959 622.5,-288.2959"/>
<polygon fill="none" stroke="#d3d3d3" points="622,-294.7959 622,-325.7959 707,-325.7959 707,-294.7959 622,-294.7959"/>
<text text-anchor="start" x="651.6689" y="-312.5959" font-family="Times,serif" font-size="14.00" fill="#000000">ATT</text>
<text text-anchor="start" x="624.7539" y="-300.9959" font-family="Arial" font-size="11.00" fill="#606060">[Internetware15]</text>
<polygon fill="none" stroke="#d3d3d3" points="618.5,-292.2959 618.5,-329.2959 709.5,-329.2959 709.5,-292.2959 618.5,-292.2959"/>
</g>
<!-- att&#45;&gt;aatt -->
<g id="edge2" class="edge">
<title>att&#45;&gt;aatt</title>
<path fill="none" stroke="#000000" d="M610.453,-297.1635C580.1245,-289.0341 541.639,-278.0308 508,-266.2959 476.0124,-255.1371 440.9255,-240.6493 413.1663,-228.6378"/>
<polygon fill="#000000" stroke="#000000" points="414.236,-225.2862 403.6702,-224.502 411.4408,-231.7039 414.236,-225.2862"/>
</g>
<!-- att&#45;&gt;gat -->
<g id="edge1" class="edge">
<title>att&#45;&gt;gat</title>
<path fill="none" stroke="#000000" d="M664,-288.2496C664,-273.7032 664,-254.5442 664,-238.3454"/>
<polygon fill="#000000" stroke="#000000" points="667.5001,-238.2062 664,-228.2063 660.5001,-238.2063 667.5001,-238.2062"/>
</g>
<!-- rwtrace -->
<g id="node17" class="node">
<title>rwtrace</title>
<path fill="#d3d3d3" stroke="#d3d3d3" d="M206.5,-555.9932C206.5,-555.9932 263.5,-555.9932 263.5,-555.9932 269.5,-555.9932 275.5,-561.9932 275.5,-567.9932 275.5,-567.9932 275.5,-588.9932 275.5,-588.9932 275.5,-594.9932 269.5,-600.9932 263.5,-600.9932 263.5,-600.9932 206.5,-600.9932 206.5,-600.9932 200.5,-600.9932 194.5,-594.9932 194.5,-588.9932 194.5,-588.9932 194.5,-567.9932 194.5,-567.9932 194.5,-561.9932 200.5,-555.9932 206.5,-555.9932"/>
<polygon fill="none" stroke="#d3d3d3" points="206,-562.4932 206,-593.4932 265,-593.4932 265,-562.4932 206,-562.4932"/>
<text text-anchor="start" x="208.9219" y="-580.2932" font-family="Times,serif" font-size="14.00" fill="#000000">RWTrace</text>
<text text-anchor="start" x="215.3208" y="-568.6932" font-family="Arial" font-size="11.00" fill="#606060">[ASE15]</text>
<polygon fill="none" stroke="#d3d3d3" points="202.5,-559.9932 202.5,-596.9932 267.5,-596.9932 267.5,-559.9932 202.5,-559.9932"/>
</g>
<!-- rwtrace&#45;&gt;survey -->
<g id="edge6" class="edge">
<title>rwtrace&#45;&gt;survey</title>
<path fill="none" stroke="#000000" d="M210.4686,-555.7581C208.681,-553.141 207.1367,-550.3722 206,-547.4932 190.8447,-509.1085 201.9958,-461.3103 212.7663,-430.3167"/>
<polygon fill="#000000" stroke="#000000" points="216.0706,-431.4713 216.2159,-420.8775 209.4959,-429.0685 216.0706,-431.4713"/>
</g>
<!-- rwtrace&#45;&gt;bc -->
<g id="edge4" class="edge">
<title>rwtrace&#45;&gt;bc</title>
<path fill="none" stroke="#000000" d="M242.8821,-555.8718C246.1974,-546.3571 250.1166,-535.1092 253.728,-524.7448"/>
<polygon fill="#000000" stroke="#000000" points="257.081,-525.7586 257.0663,-515.1638 250.4708,-523.4553 257.081,-525.7586"/>
</g>
<!-- cosedroid -->
<g id="node18" class="node">
<title>cosedroid</title>
<path fill="#d3d3d3" stroke="#d3d3d3" d="M735.5,-375.7959C735.5,-375.7959 812.5,-375.7959 812.5,-375.7959 818.5,-375.7959 824.5,-381.7959 824.5,-387.7959 824.5,-387.7959 824.5,-408.7959 824.5,-408.7959 824.5,-414.7959 818.5,-420.7959 812.5,-420.7959 812.5,-420.7959 735.5,-420.7959 735.5,-420.7959 729.5,-420.7959 723.5,-414.7959 723.5,-408.7959 723.5,-408.7959 723.5,-387.7959 723.5,-387.7959 723.5,-381.7959 729.5,-375.7959 735.5,-375.7959"/>
<polygon fill="none" stroke="#d3d3d3" points="735,-382.2959 735,-413.2959 814,-413.2959 814,-382.2959 735,-382.2959"/>
<text text-anchor="start" x="744.1689" y="-400.0959" font-family="Times,serif" font-size="14.00" fill="#000000">CoseDroid</text>
<text text-anchor="start" x="737.5173" y="-388.4959" font-family="Arial" font-size="11.00" fill="#606060">[COMPSAC14]</text>
<polygon fill="none" stroke="#d3d3d3" points="731.5,-379.7959 731.5,-416.7959 816.5,-416.7959 816.5,-379.7959 731.5,-379.7959"/>
</g>
<!-- cosedroid&#45;&gt;att -->
<g id="edge13" class="edge">
<title>cosedroid&#45;&gt;att</title>
<path fill="none" stroke="#000000" d="M745.6723,-375.7625C731.9224,-364.8251 715.2381,-351.5535 700.5424,-339.8638"/>
<polygon fill="#000000" stroke="#000000" points="702.6189,-337.0432 692.6141,-333.5571 698.2612,-342.5215 702.6189,-337.0432"/>
</g>
<!-- care -->
<g id="node19" class="node">
<title>care</title>
<path fill="#d3d3d3" stroke="#d3d3d3" d="M181,-637.9932C181,-637.9932 229,-637.9932 229,-637.9932 235,-637.9932 241,-643.9932 241,-649.9932 241,-649.9932 241,-670.9932 241,-670.9932 241,-676.9932 235,-682.9932 229,-682.9932 229,-682.9932 181,-682.9932 181,-682.9932 175,-682.9932 169,-676.9932 169,-670.9932 169,-670.9932 169,-649.9932 169,-649.9932 169,-643.9932 175,-637.9932 181,-637.9932"/>
<polygon fill="none" stroke="#d3d3d3" points="180,-644.4932 180,-675.4932 230,-675.4932 230,-644.4932 180,-644.4932"/>
<text text-anchor="start" x="186.3311" y="-662.2932" font-family="Times,serif" font-size="14.00" fill="#000000">CARE</text>
<text text-anchor="start" x="182.9893" y="-650.6932" font-family="Arial" font-size="11.00" fill="#606060">[ICSE14]</text>
<polygon fill="none" stroke="#d3d3d3" points="177,-641.9932 177,-678.9932 233,-678.9932 233,-641.9932 177,-641.9932"/>
</g>
<!-- care&#45;&gt;survey -->
<g id="edge5" class="edge">
<title>care&#45;&gt;survey</title>
<path fill="none" stroke="#000000" d="M195.9056,-637.9211C192.0193,-627.095 187.9366,-613.8249 186,-601.4932 176.324,-539.8808 176.9395,-521.3832 194,-461.3945 197.03,-450.7404 201.8961,-439.7625 206.9288,-430.011"/>
<polygon fill="#000000" stroke="#000000" points="210.0757,-431.5496 211.7505,-421.088 203.9173,-428.2218 210.0757,-431.5496"/>
</g>
<!-- care&#45;&gt;rwtrace -->
<g id="edge3" class="edge">
<title>care&#45;&gt;rwtrace</title>
<path fill="none" stroke="#000000" d="M213.3567,-637.6516C216.4124,-629.2993 219.9291,-619.6871 223.2272,-610.6721"/>
<polygon fill="#000000" stroke="#000000" points="226.5392,-611.806 226.6881,-601.2122 219.9653,-609.4009 226.5392,-611.806"/>
</g>
<!-- uga -->
<g id="node20" class="node">
<title>uga</title>
<path fill="#d3d3d3" stroke="#d3d3d3" d="M634.5,-375.7959C634.5,-375.7959 693.5,-375.7959 693.5,-375.7959 699.5,-375.7959 705.5,-381.7959 705.5,-387.7959 705.5,-387.7959 705.5,-408.7959 705.5,-408.7959 705.5,-414.7959 699.5,-420.7959 693.5,-420.7959 693.5,-420.7959 634.5,-420.7959 634.5,-420.7959 628.5,-420.7959 622.5,-414.7959 622.5,-408.7959 622.5,-408.7959 622.5,-387.7959 622.5,-387.7959 622.5,-381.7959 628.5,-375.7959 634.5,-375.7959"/>
<polygon fill="none" stroke="#d3d3d3" points="634,-382.2959 634,-413.2959 695,-413.2959 695,-382.2959 634,-382.2959"/>
<text text-anchor="start" x="649.3345" y="-400.0959" font-family="Times,serif" font-size="14.00" fill="#000000">UGA</text>
<text text-anchor="start" x="636.6804" y="-388.4959" font-family="Arial" font-size="11.00" fill="#606060">[APSEC14]</text>
<polygon fill="none" stroke="#d3d3d3" points="630.5,-379.7959 630.5,-416.7959 697.5,-416.7959 697.5,-379.7959 630.5,-379.7959"/>
</g>
<!-- uga&#45;&gt;att -->
<g id="edge10" class="edge">
<title>uga&#45;&gt;att</title>
<path fill="none" stroke="#000000" d="M664,-375.7625C664,-366.0404 664,-354.4739 664,-343.8135"/>
<polygon fill="#000000" stroke="#000000" points="667.5001,-343.557 664,-333.5571 660.5001,-343.5571 667.5001,-343.557"/>
</g>
<!-- tapir -->
<g id="node22" class="node">
<title>tapir</title>
<path fill="#d3d3d3" stroke="#d3d3d3" d="M532,-375.7959C532,-375.7959 592,-375.7959 592,-375.7959 598,-375.7959 604,-381.7959 604,-387.7959 604,-387.7959 604,-408.7959 604,-408.7959 604,-414.7959 598,-420.7959 592,-420.7959 592,-420.7959 532,-420.7959 532,-420.7959 526,-420.7959 520,-414.7959 520,-408.7959 520,-408.7959 520,-387.7959 520,-387.7959 520,-381.7959 526,-375.7959 532,-375.7959"/>
<polygon fill="none" stroke="#d3d3d3" points="531,-382.2959 531,-413.2959 593,-413.2959 593,-382.2959 531,-382.2959"/>
<text text-anchor="start" x="542.333" y="-400.0959" font-family="Times,serif" font-size="14.00" fill="#000000">TAPIR</text>
<text text-anchor="start" x="533.877" y="-388.4959" font-family="Arial" font-size="11.00" fill="#606060">[SANER19]</text>
<polygon fill="none" stroke="#d3d3d3" points="528,-379.7959 528,-416.7959 596,-416.7959 596,-379.7959 528,-379.7959"/>
</g>
</g>
</svg>
