<?xml version="1.0" encoding="UTF-8" standalone="no"?>
<!DOCTYPE svg PUBLIC "-//W3C//DTD SVG 1.1//EN"
 "http://www.w3.org/Graphics/SVG/1.1/DTD/svg11.dtd">
<!-- Generated by graphviz version 2.40.1 (20161225.0304)
 -->
<!-- Title: G Pages: 1 -->
<svg width="1125pt" height="792pt"
 viewBox="0.00 0.00 1125.00 792.00" xmlns="http://www.w3.org/2000/svg" xmlns:xlink="http://www.w3.org/1999/xlink">
<g id="graph0" class="graph" transform="scale(1 1) rotate(0) translate(4 788)">
<title>G</title>
<polygon fill="#ffffff" stroke="transparent" points="-4,4 -4,-788 1121,-788 1121,4 -4,4"/>
<g id="clust1" class="cluster">
<title>cluster_subG</title>
<polygon fill="none" stroke="#000000" points="8,-8 8,-776 1109,-776 1109,-8 8,-8"/>
</g>
<g id="clust2" class="cluster">
<title>cluster_sta</title>
<polygon fill="none" stroke="#000000" points="16,-16 16,-768 1101,-768 1101,-16 16,-16"/>
<text text-anchor="middle" x="558.5" y="-752.8" font-family="Arial" font-size="14.00" fill="#000000">Software Testing, Analysis, and Synthesis</text>
</g>
<g id="clust3" class="cluster">
<title>cluster_os</title>
<polygon fill="none" stroke="#000000" points="953,-175 953,-389.5 1093,-389.5 1093,-175 953,-175"/>
<text text-anchor="middle" x="1023" y="-374.3" font-family="Arial" font-size="14.00" fill="#000000">Operating Systems</text>
</g>
<g id="clust4" class="cluster">
<title>cluster_synthesis</title>
<polygon fill="none" stroke="#000000" points="627,-24 627,-159 1093,-159 1093,-24 627,-24"/>
<text text-anchor="middle" x="860" y="-143.8" font-family="Arial" font-size="14.00" fill="#000000">Program Synthesis</text>
</g>
<g id="clust5" class="cluster">
<title>cluster_dsl</title>
<polygon fill="none" stroke="#000000" points="893,-37.5 893,-122.5 1085,-122.5 1085,-37.5 893,-37.5"/>
<text text-anchor="middle" x="989" y="-107.3" font-family="Arial" font-size="14.00" fill="#000000">Domain&#45;Specific Language</text>
</g>
<g id="clust6" class="cluster">
<title>cluster_transformer</title>
<polygon fill="none" stroke="#000000" points="635,-32 635,-128 885,-128 885,-32 635,-32"/>
<text text-anchor="middle" x="760" y="-112.8" font-family="Arial" font-size="14.00" fill="#000000">Transformers</text>
</g>
<g id="clust7" class="cluster">
<title>cluster_system</title>
<polygon fill="none" stroke="#000000" points="584,-167 584,-291 945,-291 945,-167 584,-167"/>
<text text-anchor="middle" x="764.5" y="-275.8" font-family="Arial" font-size="14.00" fill="#000000">System Software</text>
</g>
<g id="clust8" class="cluster">
<title>cluster_concurrent</title>
<polygon fill="none" stroke="#000000" points="740,-175 740,-260 937,-260 937,-175 740,-175"/>
<text text-anchor="middle" x="838.5" y="-244.8" font-family="Arial" font-size="14.00" fill="#000000">Parallel/Distributed Systems</text>
</g>
<g id="clust9" class="cluster">
<title>cluster_compiler</title>
<polygon fill="none" stroke="#000000" points="592,-175 592,-260 732,-260 732,-175 592,-175"/>
<text text-anchor="middle" x="662" y="-244.8" font-family="Arial" font-size="14.00" fill="#000000">Compiler Toolchain</text>
</g>
<g id="clust11" class="cluster">
<title>cluster_analysis</title>
<polygon fill="none" stroke="#000000" points="24,-397.5 24,-482.5 240,-482.5 240,-397.5 24,-397.5"/>
<text text-anchor="middle" x="132" y="-467.3" font-family="Arial" font-size="14.00" fill="#000000">Software Analysis</text>
</g>
<g id="clust12" class="cluster">
<title>cluster_smd</title>
<polygon fill="none" stroke="#000000" points="607,-299 607,-737 921,-737 921,-299 607,-299"/>
<text text-anchor="middle" x="764" y="-721.8" font-family="Arial" font-size="14.00" fill="#000000">Understanding Shared Memory Dependences</text>
</g>
<g id="clust13" class="cluster">
<title>cluster_mobile</title>
<polygon fill="none" stroke="#000000" points="248,-175 248,-652 576,-652 576,-175 248,-175"/>
<text text-anchor="middle" x="412" y="-636.8" font-family="Arial" font-size="14.00" fill="#000000">Mobile Apps</text>
</g>
<g id="clust14" class="cluster">
<title>cluster_tech</title>
<polygon fill="none" stroke="#000000" points="414,-32 414,-128 619,-128 619,-32 414,-32"/>
<text text-anchor="middle" x="516.5" y="-112.8" font-family="Arial" font-size="14.00" fill="#000000">Fun and Profits</text>
</g>
<!-- rescue -->
<g id="node1" class="node">
<title>rescue</title>
<path fill="#d3d3d3" stroke="#d3d3d3" d="M966,-46C966,-46 1012,-46 1012,-46 1018,-46 1024,-52 1024,-58 1024,-58 1024,-79 1024,-79 1024,-85 1018,-91 1012,-91 1012,-91 966,-91 966,-91 960,-91 954,-85 954,-79 954,-79 954,-58 954,-58 954,-52 960,-46 966,-46"/>
<polygon fill="none" stroke="#d3d3d3" points="965,-52.5 965,-83.5 1013,-83.5 1013,-52.5 965,-52.5"/>
<text text-anchor="start" x="968" y="-70.3" font-family="Times,serif" font-size="14.00" fill="#000000">ReScue</text>
<text text-anchor="start" x="968.5" y="-58.7" font-family="Arial" font-size="11.00" fill="#606060">[ASE18]</text>
<polygon fill="none" stroke="#d3d3d3" points="962,-50 962,-87 1016,-87 1016,-50 962,-50"/>
</g>
<!-- scs -->
<g id="node2" class="node">
<title>scs</title>
<path fill="#d3d3d3" stroke="#d3d3d3" d="M760,-183.5C760,-183.5 804,-183.5 804,-183.5 810,-183.5 816,-189.5 816,-195.5 816,-195.5 816,-216.5 816,-216.5 816,-222.5 810,-228.5 804,-228.5 804,-228.5 760,-228.5 760,-228.5 754,-228.5 748,-222.5 748,-216.5 748,-216.5 748,-195.5 748,-195.5 748,-189.5 754,-183.5 760,-183.5"/>
<polygon fill="none" stroke="#d3d3d3" points="759,-190 759,-221 805,-221 805,-190 759,-190"/>
<text text-anchor="start" x="769.5" y="-207.8" font-family="Times,serif" font-size="14.00" fill="#000000">SCS</text>
<text text-anchor="start" x="762" y="-196.2" font-family="Arial" font-size="11.00" fill="#606060">[FSE18]</text>
<polygon fill="none" stroke="#d3d3d3" points="756,-187.5 756,-224.5 808,-224.5 808,-187.5 756,-187.5"/>
</g>
<!-- abc -->
<g id="node13" class="node">
<title>abc</title>
<path fill="#d3d3d3" stroke="#d3d3d3" d="M434.5,-46C434.5,-46 495.5,-46 495.5,-46 501.5,-46 507.5,-52 507.5,-58 507.5,-58 507.5,-79 507.5,-79 507.5,-85 501.5,-91 495.5,-91 495.5,-91 434.5,-91 434.5,-91 428.5,-91 422.5,-85 422.5,-79 422.5,-79 422.5,-58 422.5,-58 422.5,-52 428.5,-46 434.5,-46"/>
<polygon fill="none" stroke="#d3d3d3" points="434,-52.5 434,-83.5 497,-83.5 497,-52.5 434,-52.5"/>
<text text-anchor="start" x="451.5" y="-70.3" font-family="Times,serif" font-size="14.00" fill="#000000">ABC</text>
<text text-anchor="start" x="437" y="-58.7" font-family="Arial" font-size="11.00" fill="#606060">[APSEC15]</text>
<polygon fill="none" stroke="#d3d3d3" points="430.5,-50 430.5,-87 499.5,-87 499.5,-50 430.5,-50"/>
</g>
<!-- scs&#45;&gt;abc -->
<!-- enter -->
<g id="node14" class="node">
<title>enter</title>
<path fill="#d3d3d3" stroke="#d3d3d3" d="M655,-46C655,-46 739,-46 739,-46 745,-46 751,-52 751,-58 751,-58 751,-79 751,-79 751,-85 745,-91 739,-91 739,-91 655,-91 655,-91 649,-91 643,-85 643,-79 643,-79 643,-58 643,-58 643,-52 649,-46 655,-46"/>
<polygon fill="none" stroke="#d3d3d3" points="654,-52.5 654,-83.5 740,-83.5 740,-52.5 654,-52.5"/>
<text text-anchor="start" x="675" y="-70.3" font-family="Times,serif" font-size="14.00" fill="#000000">ENTER</text>
<text text-anchor="start" x="657" y="-58.7" font-family="Arial" font-size="11.00" fill="#606060">[ICSE18 Poster]</text>
<polygon fill="none" stroke="#d3d3d3" points="651,-50 651,-87 743,-87 743,-50 651,-50"/>
</g>
<!-- scs&#45;&gt;enter -->
<!-- dogfood -->
<g id="node16" class="node">
<title>dogfood</title>
<path fill="#d3d3d3" stroke="#d3d3d3" d="M973.5,-183.5C973.5,-183.5 1026.5,-183.5 1026.5,-183.5 1032.5,-183.5 1038.5,-189.5 1038.5,-195.5 1038.5,-195.5 1038.5,-216.5 1038.5,-216.5 1038.5,-222.5 1032.5,-228.5 1026.5,-228.5 1026.5,-228.5 973.5,-228.5 973.5,-228.5 967.5,-228.5 961.5,-222.5 961.5,-216.5 961.5,-216.5 961.5,-195.5 961.5,-195.5 961.5,-189.5 967.5,-183.5 973.5,-183.5"/>
<polygon fill="none" stroke="#d3d3d3" points="973,-190 973,-221 1028,-221 1028,-190 973,-190"/>
<text text-anchor="start" x="976" y="-207.8" font-family="Times,serif" font-size="14.00" fill="#000000">Dogfood</text>
<text text-anchor="start" x="978" y="-196.2" font-family="Arial" font-size="11.00" fill="#606060">[ICSE20]</text>
<polygon fill="none" stroke="#d3d3d3" points="969.5,-187.5 969.5,-224.5 1030.5,-224.5 1030.5,-187.5 969.5,-187.5"/>
</g>
<!-- scs&#45;&gt;dogfood -->
<g id="edge20" class="edge">
<title>scs&#45;&gt;dogfood</title>
<path fill="none" stroke="#000000" d="M791.5573,-228.6551C803.2957,-252.6275 825.8224,-287.9592 859,-295 876.8465,-298.7873 926.9426,-302.6288 941,-291 958.6802,-276.3744 973.4057,-255.1821 983.7234,-237.6175"/>
<polygon fill="#000000" stroke="#000000" points="986.8252,-239.2429 988.7094,-228.817 980.7347,-235.7923 986.8252,-239.2429"/>
</g>
<!-- aotes -->
<g id="node3" class="node">
<title>aotes</title>
<path fill="#d3d3d3" stroke="#d3d3d3" d="M781,-40.5C781,-40.5 865,-40.5 865,-40.5 871,-40.5 877,-46.5 877,-52.5 877,-52.5 877,-84.5 877,-84.5 877,-90.5 871,-96.5 865,-96.5 865,-96.5 781,-96.5 781,-96.5 775,-96.5 769,-90.5 769,-84.5 769,-84.5 769,-52.5 769,-52.5 769,-46.5 775,-40.5 781,-40.5"/>
<polygon fill="none" stroke="#d3d3d3" points="780,-47.5 780,-89.5 866,-89.5 866,-47.5 780,-47.5"/>
<text text-anchor="start" x="801" y="-76.3" font-family="Times,serif" font-size="14.00" fill="#000000">AOTES</text>
<text text-anchor="start" x="783" y="-64.7" font-family="Arial" font-size="11.00" fill="#606060">[ICSE17 Poster]</text>
<text text-anchor="start" x="793" y="-53.7" font-family="Arial" font-size="11.00" fill="#606060">[ECOOP18]</text>
<polygon fill="none" stroke="#d3d3d3" points="777,-44.5 777,-92.5 869,-92.5 869,-44.5 777,-44.5"/>
</g>
<!-- needle -->
<g id="node4" class="node">
<title>needle</title>
<path fill="#d3d3d3" stroke="#d3d3d3" d="M166,-406C166,-406 220,-406 220,-406 226,-406 232,-412 232,-418 232,-418 232,-439 232,-439 232,-445 226,-451 220,-451 220,-451 166,-451 166,-451 160,-451 154,-445 154,-439 154,-439 154,-418 154,-418 154,-412 160,-406 166,-406"/>
<polygon fill="none" stroke="#d3d3d3" points="165,-412.5 165,-443.5 221,-443.5 221,-412.5 165,-412.5"/>
<text text-anchor="start" x="173.5" y="-430.3" font-family="Times,serif" font-size="14.00" fill="#000000">Needle</text>
<text text-anchor="start" x="168" y="-418.7" font-family="Arial" font-size="11.00" fill="#606060">[TURC18]</text>
<polygon fill="none" stroke="#d3d3d3" points="162,-410 162,-447 224,-447 224,-410 162,-410"/>
</g>
<!-- repdroid -->
<g id="node11" class="node">
<title>repdroid</title>
<path fill="#d3d3d3" stroke="#d3d3d3" d="M269,-313C269,-313 327,-313 327,-313 333,-313 339,-319 339,-325 339,-325 339,-346 339,-346 339,-352 333,-358 327,-358 327,-358 269,-358 269,-358 263,-358 257,-352 257,-346 257,-346 257,-325 257,-325 257,-319 263,-313 269,-313"/>
<polygon fill="none" stroke="#d3d3d3" points="268,-319.5 268,-350.5 328,-350.5 328,-319.5 268,-319.5"/>
<text text-anchor="start" x="271" y="-337.3" font-family="Times,serif" font-size="14.00" fill="#000000">RepDroid</text>
<text text-anchor="start" x="275" y="-325.7" font-family="Arial" font-size="11.00" fill="#606060">[ICPC17]</text>
<polygon fill="none" stroke="#d3d3d3" points="265,-317 265,-354 331,-354 331,-317 265,-317"/>
</g>
<!-- needle&#45;&gt;repdroid -->
<g id="edge11" class="edge">
<title>needle&#45;&gt;repdroid</title>
<path fill="none" stroke="#000000" d="M218.4176,-405.9873C232.3723,-393.6274 249.8425,-378.1538 264.8566,-364.8556"/>
<polygon fill="#000000" stroke="#000000" points="267.2873,-367.3782 272.4526,-358.1277 262.646,-362.138 267.2873,-367.3782"/>
</g>
<!-- thesis -->
<g id="node5" class="node">
<title>thesis</title>
<path fill="#d3d3d3" stroke="#d3d3d3" d="M681,-307.5C681,-307.5 775,-307.5 775,-307.5 781,-307.5 787,-313.5 787,-319.5 787,-319.5 787,-351.5 787,-351.5 787,-357.5 781,-363.5 775,-363.5 775,-363.5 681,-363.5 681,-363.5 675,-363.5 669,-357.5 669,-351.5 669,-351.5 669,-319.5 669,-319.5 669,-313.5 675,-307.5 681,-307.5"/>
<polygon fill="none" stroke="#d3d3d3" points="680,-314.5 680,-356.5 776,-356.5 776,-314.5 680,-314.5"/>
<text text-anchor="start" x="696" y="-343.3" font-family="Times,serif" font-size="14.00" fill="#000000">PhD Thesis</text>
<text text-anchor="start" x="694.5" y="-331.7" font-family="Arial" font-size="11.00" fill="#606060">Yanyan Jiang</text>
<text text-anchor="start" x="683" y="-320.7" font-family="Arial" font-size="11.00" fill="#606060">Nanjing University</text>
<polygon fill="none" stroke="#d3d3d3" points="677,-311.5 677,-359.5 779,-359.5 779,-311.5 677,-311.5"/>
</g>
<!-- thesis&#45;&gt;scs -->
<g id="edge12" class="edge">
<title>thesis&#45;&gt;scs</title>
<path fill="none" stroke="#000000" d="M739.7172,-307.4004C748.2174,-287.0156 759.7309,-259.4045 768.5973,-238.1417"/>
<polygon fill="#000000" stroke="#000000" points="771.846,-239.4446 772.4644,-228.8678 765.3852,-236.7505 771.846,-239.4446"/>
</g>
<!-- aatt -->
<g id="node6" class="node">
<title>aatt</title>
<path fill="#d3d3d3" stroke="#d3d3d3" d="M494.5,-400.5C494.5,-400.5 555.5,-400.5 555.5,-400.5 561.5,-400.5 567.5,-406.5 567.5,-412.5 567.5,-412.5 567.5,-444.5 567.5,-444.5 567.5,-450.5 561.5,-456.5 555.5,-456.5 555.5,-456.5 494.5,-456.5 494.5,-456.5 488.5,-456.5 482.5,-450.5 482.5,-444.5 482.5,-444.5 482.5,-412.5 482.5,-412.5 482.5,-406.5 488.5,-400.5 494.5,-400.5"/>
<polygon fill="none" stroke="#d3d3d3" points="494,-407.5 494,-449.5 557,-449.5 557,-407.5 494,-407.5"/>
<text text-anchor="start" x="507" y="-436.3" font-family="Times,serif" font-size="14.00" fill="#000000">AATT</text>
<text text-anchor="start" x="497" y="-424.7" font-family="Arial" font-size="11.00" fill="#606060">[APSEC16]</text>
<text text-anchor="start" x="504.5" y="-413.7" font-family="Arial" font-size="11.00" fill="#606060">[SCP18]</text>
<polygon fill="none" stroke="#d3d3d3" points="490.5,-404.5 490.5,-452.5 559.5,-452.5 559.5,-404.5 490.5,-404.5"/>
</g>
<!-- aatt&#45;&gt;thesis -->
<g id="edge14" class="edge">
<title>aatt&#45;&gt;thesis</title>
<path fill="none" stroke="#000000" d="M567.5555,-409.0042C594.2121,-396.792 629.1696,-380.777 659.6477,-366.8141"/>
<polygon fill="#000000" stroke="#000000" points="661.3148,-369.9002 668.9484,-362.5532 658.3993,-363.5363 661.3148,-369.9002"/>
</g>
<!-- android&#45;survey -->
<g id="node26" class="node">
<title>android&#45;survey</title>
<path fill="#d3d3d3" stroke="#d3d3d3" d="M397.5,-313C397.5,-313 446.5,-313 446.5,-313 452.5,-313 458.5,-319 458.5,-325 458.5,-325 458.5,-346 458.5,-346 458.5,-352 452.5,-358 446.5,-358 446.5,-358 397.5,-358 397.5,-358 391.5,-358 385.5,-352 385.5,-346 385.5,-346 385.5,-325 385.5,-325 385.5,-319 391.5,-313 397.5,-313"/>
<polygon fill="none" stroke="#d3d3d3" points="397,-319.5 397,-350.5 448,-350.5 448,-319.5 397,-319.5"/>
<text text-anchor="start" x="403" y="-337.3" font-family="Times,serif" font-size="14.00" fill="#000000">Survey</text>
<text text-anchor="start" x="400" y="-325.7" font-family="Arial" font-size="11.00" fill="#606060">[SCIS19]</text>
<polygon fill="none" stroke="#d3d3d3" points="393.5,-317 393.5,-354 450.5,-354 450.5,-317 393.5,-317"/>
</g>
<!-- aatt&#45;&gt;android&#45;survey -->
<g id="edge15" class="edge">
<title>aatt&#45;&gt;android&#45;survey</title>
<path fill="none" stroke="#000000" d="M493.8171,-400.3446C481.4607,-389.1878 467.2459,-376.3531 454.7405,-365.0618"/>
<polygon fill="#000000" stroke="#000000" points="456.9747,-362.3635 447.2069,-358.2597 452.2836,-367.559 456.9747,-362.3635"/>
</g>
<!-- c3 -->
<g id="node7" class="node">
<title>c3</title>
<path fill="#d3d3d3" stroke="#d3d3d3" d="M975,-313C975,-313 1019,-313 1019,-313 1025,-313 1031,-319 1031,-325 1031,-325 1031,-346 1031,-346 1031,-352 1025,-358 1019,-358 1019,-358 975,-358 975,-358 969,-358 963,-352 963,-346 963,-346 963,-325 963,-325 963,-319 969,-313 975,-313"/>
<polygon fill="none" stroke="#d3d3d3" points="974,-319.5 974,-350.5 1020,-350.5 1020,-319.5 974,-319.5"/>
<text text-anchor="start" x="989" y="-337.3" font-family="Times,serif" font-size="14.00" fill="#000000">C3</text>
<text text-anchor="start" x="977" y="-325.7" font-family="Arial" font-size="11.00" fill="#606060">[FSE16]</text>
<polygon fill="none" stroke="#d3d3d3" points="971,-317 971,-354 1023,-354 1023,-317 971,-317"/>
</g>
<!-- diet -->
<g id="node15" class="node">
<title>diet</title>
<path fill="#d3d3d3" stroke="#d3d3d3" d="M871.5,-183.5C871.5,-183.5 916.5,-183.5 916.5,-183.5 922.5,-183.5 928.5,-189.5 928.5,-195.5 928.5,-195.5 928.5,-216.5 928.5,-216.5 928.5,-222.5 922.5,-228.5 916.5,-228.5 916.5,-228.5 871.5,-228.5 871.5,-228.5 865.5,-228.5 859.5,-222.5 859.5,-216.5 859.5,-216.5 859.5,-195.5 859.5,-195.5 859.5,-189.5 865.5,-183.5 871.5,-183.5"/>
<polygon fill="none" stroke="#d3d3d3" points="871,-190 871,-221 918,-221 918,-190 871,-190"/>
<text text-anchor="start" x="879" y="-207.8" font-family="Times,serif" font-size="14.00" fill="#000000">DIET</text>
<text text-anchor="start" x="874" y="-196.2" font-family="Arial" font-size="11.00" fill="#606060">[ASE19]</text>
<polygon fill="none" stroke="#d3d3d3" points="867.5,-187.5 867.5,-224.5 920.5,-224.5 920.5,-187.5 867.5,-187.5"/>
</g>
<!-- c3&#45;&gt;diet -->
<g id="edge17" class="edge">
<title>c3&#45;&gt;diet</title>
<path fill="none" stroke="#000000" d="M970.1777,-312.8215C962.9403,-306.1334 955.3596,-298.5693 949,-291 935.0717,-274.4221 921.8125,-254.1166 911.8036,-237.5098"/>
<polygon fill="#000000" stroke="#000000" points="914.7007,-235.5328 906.594,-228.7114 908.6774,-239.0994 914.7007,-235.5328"/>
</g>
<!-- c3&#45;&gt;dogfood -->
<g id="edge21" class="edge">
<title>c3&#45;&gt;dogfood</title>
<path fill="none" stroke="#000000" d="M997.5226,-312.9428C997.9971,-292.4564 998.703,-261.9892 999.2399,-238.8088"/>
<polygon fill="#000000" stroke="#000000" points="1002.7407,-238.8116 999.4734,-228.7332 995.7426,-238.6494 1002.7407,-238.8116"/>
</g>
<!-- gain -->
<g id="node8" class="node">
<title>gain</title>
<path fill="#d3d3d3" stroke="#d3d3d3" d="M537.5,-40.5C537.5,-40.5 598.5,-40.5 598.5,-40.5 604.5,-40.5 610.5,-46.5 610.5,-52.5 610.5,-52.5 610.5,-84.5 610.5,-84.5 610.5,-90.5 604.5,-96.5 598.5,-96.5 598.5,-96.5 537.5,-96.5 537.5,-96.5 531.5,-96.5 525.5,-90.5 525.5,-84.5 525.5,-84.5 525.5,-52.5 525.5,-52.5 525.5,-46.5 531.5,-40.5 537.5,-40.5"/>
<polygon fill="none" stroke="#d3d3d3" points="537,-47.5 537,-89.5 600,-89.5 600,-47.5 537,-47.5"/>
<text text-anchor="start" x="551.5" y="-76.3" font-family="Times,serif" font-size="14.00" fill="#000000">GAIN</text>
<text text-anchor="start" x="540" y="-64.7" font-family="Arial" font-size="11.00" fill="#606060">[APSEC14]</text>
<text text-anchor="start" x="550.5" y="-53.7" font-family="Arial" font-size="11.00" fill="#606060">[IST16]</text>
<polygon fill="none" stroke="#d3d3d3" points="533.5,-44.5 533.5,-92.5 602.5,-92.5 602.5,-44.5 533.5,-44.5"/>
</g>
<!-- cod -->
<g id="node9" class="node">
<title>cod</title>
<path fill="#d3d3d3" stroke="#d3d3d3" d="M639.5,-183.5C639.5,-183.5 684.5,-183.5 684.5,-183.5 690.5,-183.5 696.5,-189.5 696.5,-195.5 696.5,-195.5 696.5,-216.5 696.5,-216.5 696.5,-222.5 690.5,-228.5 684.5,-228.5 684.5,-228.5 639.5,-228.5 639.5,-228.5 633.5,-228.5 627.5,-222.5 627.5,-216.5 627.5,-216.5 627.5,-195.5 627.5,-195.5 627.5,-189.5 633.5,-183.5 639.5,-183.5"/>
<polygon fill="none" stroke="#d3d3d3" points="639,-190 639,-221 686,-221 686,-190 639,-190"/>
<text text-anchor="start" x="651" y="-207.8" font-family="Times,serif" font-size="14.00" fill="#000000">Cod</text>
<text text-anchor="start" x="642" y="-196.2" font-family="Arial" font-size="11.00" fill="#606060">[ASE19]</text>
<polygon fill="none" stroke="#d3d3d3" points="635.5,-187.5 635.5,-224.5 688.5,-224.5 688.5,-187.5 635.5,-187.5"/>
</g>
<!-- con&#45;survey -->
<g id="node10" class="node">
<title>con&#45;survey</title>
<path fill="#d3d3d3" stroke="#d3d3d3" d="M706.5,-406C706.5,-406 749.5,-406 749.5,-406 755.5,-406 761.5,-412 761.5,-418 761.5,-418 761.5,-439 761.5,-439 761.5,-445 755.5,-451 749.5,-451 749.5,-451 706.5,-451 706.5,-451 700.5,-451 694.5,-445 694.5,-439 694.5,-439 694.5,-418 694.5,-418 694.5,-412 700.5,-406 706.5,-406"/>
<polygon fill="none" stroke="#d3d3d3" points="706,-412.5 706,-443.5 751,-443.5 751,-412.5 706,-412.5"/>
<text text-anchor="start" x="709" y="-430.3" font-family="Times,serif" font-size="14.00" fill="#000000">Survey</text>
<text text-anchor="start" x="709.5" y="-418.7" font-family="Arial" font-size="11.00" fill="#606060">[JoS17]</text>
<polygon fill="none" stroke="#d3d3d3" points="702.5,-410 702.5,-447 753.5,-447 753.5,-410 702.5,-410"/>
</g>
<!-- con&#45;survey&#45;&gt;thesis -->
<g id="edge9" class="edge">
<title>con&#45;survey&#45;&gt;thesis</title>
<path fill="none" stroke="#000000" d="M728,-405.9873C728,-396.3732 728,-384.8752 728,-373.9824"/>
<polygon fill="#000000" stroke="#000000" points="731.5001,-373.8055 728,-363.8056 724.5001,-373.8056 731.5001,-373.8055"/>
</g>
<!-- lesdroid -->
<g id="node24" class="node">
<title>lesdroid</title>
<path fill="#d3d3d3" stroke="#d3d3d3" d="M268,-183.5C268,-183.5 328,-183.5 328,-183.5 334,-183.5 340,-189.5 340,-195.5 340,-195.5 340,-216.5 340,-216.5 340,-222.5 334,-228.5 328,-228.5 328,-228.5 268,-228.5 268,-228.5 262,-228.5 256,-222.5 256,-216.5 256,-216.5 256,-195.5 256,-195.5 256,-189.5 262,-183.5 268,-183.5"/>
<polygon fill="none" stroke="#d3d3d3" points="267,-190 267,-221 329,-221 329,-190 267,-190"/>
<text text-anchor="start" x="270" y="-207.8" font-family="Times,serif" font-size="14.00" fill="#000000">LESDroid</text>
<text text-anchor="start" x="275" y="-196.2" font-family="Arial" font-size="11.00" fill="#606060">[ICPC18]</text>
<polygon fill="none" stroke="#d3d3d3" points="264,-187.5 264,-224.5 332,-224.5 332,-187.5 264,-187.5"/>
</g>
<!-- repdroid&#45;&gt;lesdroid -->
<g id="edge8" class="edge">
<title>repdroid&#45;&gt;lesdroid</title>
<path fill="none" stroke="#000000" d="M298,-312.9428C298,-292.4564 298,-261.9892 298,-238.8088"/>
<polygon fill="#000000" stroke="#000000" points="301.5001,-238.7332 298,-228.7332 294.5001,-238.7332 301.5001,-238.7332"/>
</g>
<!-- combodroid -->
<g id="node27" class="node">
<title>combodroid</title>
<path fill="#d3d3d3" stroke="#d3d3d3" d="M370.5,-183.5C370.5,-183.5 447.5,-183.5 447.5,-183.5 453.5,-183.5 459.5,-189.5 459.5,-195.5 459.5,-195.5 459.5,-216.5 459.5,-216.5 459.5,-222.5 453.5,-228.5 447.5,-228.5 447.5,-228.5 370.5,-228.5 370.5,-228.5 364.5,-228.5 358.5,-222.5 358.5,-216.5 358.5,-216.5 358.5,-195.5 358.5,-195.5 358.5,-189.5 364.5,-183.5 370.5,-183.5"/>
<polygon fill="none" stroke="#d3d3d3" points="370,-190 370,-221 449,-221 449,-190 370,-190"/>
<text text-anchor="start" x="373" y="-207.8" font-family="Times,serif" font-size="14.00" fill="#000000">ComboDroid</text>
<text text-anchor="start" x="387" y="-196.2" font-family="Arial" font-size="11.00" fill="#606060">[ICSE20]</text>
<polygon fill="none" stroke="#d3d3d3" points="366.5,-187.5 366.5,-224.5 451.5,-224.5 451.5,-187.5 366.5,-187.5"/>
</g>
<!-- repdroid&#45;&gt;combodroid -->
<g id="edge22" class="edge">
<title>repdroid&#45;&gt;combodroid</title>
<path fill="none" stroke="#000000" d="M326.3797,-312.8494C334.0682,-306.1616 342.1519,-298.5907 349,-291 363.9052,-274.4784 378.3588,-254.1751 389.3442,-237.5553"/>
<polygon fill="#000000" stroke="#000000" points="392.5537,-239.0398 395.0712,-228.7484 386.6854,-235.2237 392.5537,-239.0398"/>
</g>
<!-- comedy -->
<g id="node12" class="node">
<title>comedy</title>
<path fill="#d3d3d3" stroke="#d3d3d3" d="M44,-406C44,-406 124,-406 124,-406 130,-406 136,-412 136,-418 136,-418 136,-439 136,-439 136,-445 130,-451 124,-451 124,-451 44,-451 44,-451 38,-451 32,-445 32,-439 32,-439 32,-418 32,-418 32,-412 38,-406 44,-406"/>
<polygon fill="none" stroke="#d3d3d3" points="43,-412.5 43,-443.5 125,-443.5 125,-412.5 43,-412.5"/>
<text text-anchor="start" x="60.5" y="-430.3" font-family="Times,serif" font-size="14.00" fill="#000000">Comedy</text>
<text text-anchor="start" x="46" y="-418.7" font-family="Arial" font-size="11.00" fill="#606060">[COMPSAC15]</text>
<polygon fill="none" stroke="#d3d3d3" points="40,-410 40,-447 128,-447 128,-410 40,-410"/>
</g>
<!-- bc -->
<g id="node17" class="node">
<title>bc</title>
<path fill="#d3d3d3" stroke="#d3d3d3" d="M759,-493.5C759,-493.5 835,-493.5 835,-493.5 841,-493.5 847,-499.5 847,-505.5 847,-505.5 847,-526.5 847,-526.5 847,-532.5 841,-538.5 835,-538.5 835,-538.5 759,-538.5 759,-538.5 753,-538.5 747,-532.5 747,-526.5 747,-526.5 747,-505.5 747,-505.5 747,-499.5 753,-493.5 759,-493.5"/>
<polygon fill="none" stroke="#d3d3d3" points="758,-500 758,-531 836,-531 836,-500 758,-500"/>
<text text-anchor="start" x="761" y="-517.8" font-family="Times,serif" font-size="14.00" fill="#000000">Bisect Coord</text>
<text text-anchor="start" x="777" y="-506.2" font-family="Arial" font-size="11.00" fill="#606060">[FSE16]</text>
<polygon fill="none" stroke="#d3d3d3" points="755,-497.5 755,-534.5 839,-534.5 839,-497.5 755,-497.5"/>
</g>
<!-- bc&#45;&gt;con&#45;survey -->
<g id="edge7" class="edge">
<title>bc&#45;&gt;con&#45;survey</title>
<path fill="none" stroke="#000000" d="M779.2308,-493.4666C771.0052,-483.0356 761.1054,-470.4814 752.2101,-459.2012"/>
<polygon fill="#000000" stroke="#000000" points="754.8892,-456.9462 745.9488,-451.2612 749.3926,-461.2807 754.8892,-456.9462"/>
</g>
<!-- gat -->
<g id="node18" class="node">
<title>gat</title>
<path fill="#d3d3d3" stroke="#d3d3d3" d="M391.5,-406C391.5,-406 452.5,-406 452.5,-406 458.5,-406 464.5,-412 464.5,-418 464.5,-418 464.5,-439 464.5,-439 464.5,-445 458.5,-451 452.5,-451 452.5,-451 391.5,-451 391.5,-451 385.5,-451 379.5,-445 379.5,-439 379.5,-439 379.5,-418 379.5,-418 379.5,-412 385.5,-406 391.5,-406"/>
<polygon fill="none" stroke="#d3d3d3" points="391,-412.5 391,-443.5 454,-443.5 454,-412.5 391,-412.5"/>
<text text-anchor="start" x="408.5" y="-430.3" font-family="Times,serif" font-size="14.00" fill="#000000">GAT</text>
<text text-anchor="start" x="394" y="-418.7" font-family="Arial" font-size="11.00" fill="#606060">[APSEC16]</text>
<polygon fill="none" stroke="#d3d3d3" points="387.5,-410 387.5,-447 456.5,-447 456.5,-410 387.5,-410"/>
</g>
<!-- gat&#45;&gt;android&#45;survey -->
<g id="edge16" class="edge">
<title>gat&#45;&gt;android&#45;survey</title>
<path fill="none" stroke="#000000" d="M422,-405.9873C422,-394.6479 422,-380.6878 422,-368.1911"/>
<polygon fill="#000000" stroke="#000000" points="425.5001,-368.1277 422,-358.1277 418.5001,-368.1278 425.5001,-368.1277"/>
</g>
<!-- rwtrace -->
<g id="node19" class="node">
<title>rwtrace</title>
<path fill="#d3d3d3" stroke="#d3d3d3" d="M739,-575.5C739,-575.5 797,-575.5 797,-575.5 803,-575.5 809,-581.5 809,-587.5 809,-587.5 809,-608.5 809,-608.5 809,-614.5 803,-620.5 797,-620.5 797,-620.5 739,-620.5 739,-620.5 733,-620.5 727,-614.5 727,-608.5 727,-608.5 727,-587.5 727,-587.5 727,-581.5 733,-575.5 739,-575.5"/>
<polygon fill="none" stroke="#d3d3d3" points="738,-582 738,-613 798,-613 798,-582 738,-582"/>
<text text-anchor="start" x="741" y="-599.8" font-family="Times,serif" font-size="14.00" fill="#000000">RWTrace</text>
<text text-anchor="start" x="747.5" y="-588.2" font-family="Arial" font-size="11.00" fill="#606060">[ASE15]</text>
<polygon fill="none" stroke="#d3d3d3" points="735,-579.5 735,-616.5 801,-616.5 801,-579.5 735,-579.5"/>
</g>
<!-- rwtrace&#45;&gt;con&#45;survey -->
<g id="edge6" class="edge">
<title>rwtrace&#45;&gt;con&#45;survey</title>
<path fill="none" stroke="#000000" d="M753.8943,-575.2991C747.9699,-564.6653 741.6244,-551.5886 738,-539 730.7179,-513.7071 728.3606,-483.934 727.7454,-461.669"/>
<polygon fill="#000000" stroke="#000000" points="731.2403,-461.3332 727.5694,-451.3946 724.2413,-461.4531 731.2403,-461.3332"/>
</g>
<!-- rwtrace&#45;&gt;bc -->
<g id="edge4" class="edge">
<title>rwtrace&#45;&gt;bc</title>
<path fill="none" stroke="#000000" d="M776.0781,-575.1584C779.032,-566.8061 782.4314,-557.1939 785.6196,-548.179"/>
<polygon fill="#000000" stroke="#000000" points="788.9306,-549.3139 788.9652,-538.7191 782.3312,-546.9799 788.9306,-549.3139"/>
</g>
<!-- att -->
<g id="node20" class="node">
<title>att</title>
<path fill="#d3d3d3" stroke="#d3d3d3" d="M432.5,-493.5C432.5,-493.5 515.5,-493.5 515.5,-493.5 521.5,-493.5 527.5,-499.5 527.5,-505.5 527.5,-505.5 527.5,-526.5 527.5,-526.5 527.5,-532.5 521.5,-538.5 515.5,-538.5 515.5,-538.5 432.5,-538.5 432.5,-538.5 426.5,-538.5 420.5,-532.5 420.5,-526.5 420.5,-526.5 420.5,-505.5 420.5,-505.5 420.5,-499.5 426.5,-493.5 432.5,-493.5"/>
<polygon fill="none" stroke="#d3d3d3" points="432,-500 432,-531 517,-531 517,-500 432,-500"/>
<text text-anchor="start" x="461" y="-517.8" font-family="Times,serif" font-size="14.00" fill="#000000">ATT</text>
<text text-anchor="start" x="435" y="-506.2" font-family="Arial" font-size="11.00" fill="#606060">[Internetware15]</text>
<polygon fill="none" stroke="#d3d3d3" points="428.5,-497.5 428.5,-534.5 519.5,-534.5 519.5,-497.5 428.5,-497.5"/>
</g>
<!-- att&#45;&gt;aatt -->
<g id="edge2" class="edge">
<title>att&#45;&gt;aatt</title>
<path fill="none" stroke="#000000" d="M487.1338,-493.4666C492.099,-484.9479 497.8895,-475.0131 503.4269,-465.5127"/>
<polygon fill="#000000" stroke="#000000" points="506.6114,-466.9995 508.6232,-456.5975 500.5637,-463.4746 506.6114,-466.9995"/>
</g>
<!-- att&#45;&gt;gat -->
<g id="edge1" class="edge">
<title>att&#45;&gt;gat</title>
<path fill="none" stroke="#000000" d="M460.6087,-493.4666C454.5301,-483.2381 447.2382,-470.9682 440.6366,-459.8597"/>
<polygon fill="#000000" stroke="#000000" points="443.6443,-458.0696 435.5266,-451.2612 437.6267,-461.6458 443.6443,-458.0696"/>
</g>
<!-- cosedroid -->
<g id="node21" class="node">
<title>cosedroid</title>
<path fill="#d3d3d3" stroke="#d3d3d3" d="M476,-575.5C476,-575.5 556,-575.5 556,-575.5 562,-575.5 568,-581.5 568,-587.5 568,-587.5 568,-608.5 568,-608.5 568,-614.5 562,-620.5 556,-620.5 556,-620.5 476,-620.5 476,-620.5 470,-620.5 464,-614.5 464,-608.5 464,-608.5 464,-587.5 464,-587.5 464,-581.5 470,-575.5 476,-575.5"/>
<polygon fill="none" stroke="#d3d3d3" points="475,-582 475,-613 557,-613 557,-582 475,-582"/>
<text text-anchor="start" x="486.5" y="-599.8" font-family="Times,serif" font-size="14.00" fill="#000000">CoseDroid</text>
<text text-anchor="start" x="478" y="-588.2" font-family="Arial" font-size="11.00" fill="#606060">[COMPSAC14]</text>
<polygon fill="none" stroke="#d3d3d3" points="472,-579.5 472,-616.5 560,-616.5 560,-579.5 472,-579.5"/>
</g>
<!-- cosedroid&#45;&gt;att -->
<g id="edge13" class="edge">
<title>cosedroid&#45;&gt;att</title>
<path fill="none" stroke="#000000" d="M504.3007,-575.1584C499.9771,-566.7173 494.9945,-556.9893 490.3346,-547.8915"/>
<polygon fill="#000000" stroke="#000000" points="493.3106,-546.0239 485.6366,-538.7191 487.0803,-549.2151 493.3106,-546.0239"/>
</g>
<!-- care -->
<g id="node22" class="node">
<title>care</title>
<path fill="#d3d3d3" stroke="#d3d3d3" d="M713.5,-660.5C713.5,-660.5 762.5,-660.5 762.5,-660.5 768.5,-660.5 774.5,-666.5 774.5,-672.5 774.5,-672.5 774.5,-693.5 774.5,-693.5 774.5,-699.5 768.5,-705.5 762.5,-705.5 762.5,-705.5 713.5,-705.5 713.5,-705.5 707.5,-705.5 701.5,-699.5 701.5,-693.5 701.5,-693.5 701.5,-672.5 701.5,-672.5 701.5,-666.5 707.5,-660.5 713.5,-660.5"/>
<polygon fill="none" stroke="#d3d3d3" points="713,-667 713,-698 764,-698 764,-667 713,-667"/>
<text text-anchor="start" x="720" y="-684.8" font-family="Times,serif" font-size="14.00" fill="#000000">CARE</text>
<text text-anchor="start" x="716" y="-673.2" font-family="Arial" font-size="11.00" fill="#606060">[ICSE14]</text>
<polygon fill="none" stroke="#d3d3d3" points="709.5,-664.5 709.5,-701.5 766.5,-701.5 766.5,-664.5 709.5,-664.5"/>
</g>
<!-- care&#45;&gt;con&#45;survey -->
<g id="edge5" class="edge">
<title>care&#45;&gt;con&#45;survey</title>
<path fill="none" stroke="#000000" d="M721.3859,-660.3483C720.0116,-657.6375 718.8325,-654.8261 718,-652 698.694,-586.464 710.6395,-505.4712 720.0051,-461.2027"/>
<polygon fill="#000000" stroke="#000000" points="723.4552,-461.8099 722.1904,-451.2908 716.6194,-460.3027 723.4552,-461.8099"/>
</g>
<!-- care&#45;&gt;rwtrace -->
<g id="edge3" class="edge">
<title>care&#45;&gt;rwtrace</title>
<path fill="none" stroke="#000000" d="M746.0394,-660.2216C749.2937,-651.0011 753.1096,-640.1893 756.6394,-630.1883"/>
<polygon fill="#000000" stroke="#000000" points="760.0146,-631.1414 760.0424,-620.5466 753.4137,-628.8116 760.0146,-631.1414"/>
</g>
<!-- uga -->
<g id="node23" class="node">
<title>uga</title>
<path fill="#d3d3d3" stroke="#d3d3d3" d="M372.5,-575.5C372.5,-575.5 433.5,-575.5 433.5,-575.5 439.5,-575.5 445.5,-581.5 445.5,-587.5 445.5,-587.5 445.5,-608.5 445.5,-608.5 445.5,-614.5 439.5,-620.5 433.5,-620.5 433.5,-620.5 372.5,-620.5 372.5,-620.5 366.5,-620.5 360.5,-614.5 360.5,-608.5 360.5,-608.5 360.5,-587.5 360.5,-587.5 360.5,-581.5 366.5,-575.5 372.5,-575.5"/>
<polygon fill="none" stroke="#d3d3d3" points="372,-582 372,-613 435,-613 435,-582 372,-582"/>
<text text-anchor="start" x="388.5" y="-599.8" font-family="Times,serif" font-size="14.00" fill="#000000">UGA</text>
<text text-anchor="start" x="375" y="-588.2" font-family="Arial" font-size="11.00" fill="#606060">[APSEC14]</text>
<polygon fill="none" stroke="#d3d3d3" points="368.5,-579.5 368.5,-616.5 437.5,-616.5 437.5,-579.5 368.5,-579.5"/>
</g>
<!-- uga&#45;&gt;att -->
<g id="edge10" class="edge">
<title>uga&#45;&gt;att</title>
<path fill="none" stroke="#000000" d="M422.7775,-575.1584C430.4709,-566.273 439.399,-555.9617 447.6257,-546.4605"/>
<polygon fill="#000000" stroke="#000000" points="450.4288,-548.5701 454.3286,-538.7191 445.1368,-543.988 450.4288,-548.5701"/>
</g>
<!-- uga&#45;&gt;combodroid -->
<g id="edge19" class="edge">
<title>uga&#45;&gt;combodroid</title>
<path fill="none" stroke="#000000" d="M394.5111,-575.3958C386.3617,-552.4007 374.6281,-515.5447 370,-482.5 358.6821,-401.6896 359.7161,-378.9578 376,-299 380.2012,-278.371 387.9727,-256.1181 394.919,-238.5534"/>
<polygon fill="#000000" stroke="#000000" points="398.3596,-239.3831 398.8802,-228.8011 391.8742,-236.7488 398.3596,-239.3831"/>
</g>
<!-- tapir -->
<g id="node25" class="node">
<title>tapir</title>
<path fill="#d3d3d3" stroke="#d3d3d3" d="M268,-575.5C268,-575.5 330,-575.5 330,-575.5 336,-575.5 342,-581.5 342,-587.5 342,-587.5 342,-608.5 342,-608.5 342,-614.5 336,-620.5 330,-620.5 330,-620.5 268,-620.5 268,-620.5 262,-620.5 256,-614.5 256,-608.5 256,-608.5 256,-587.5 256,-587.5 256,-581.5 262,-575.5 268,-575.5"/>
<polygon fill="none" stroke="#d3d3d3" points="267,-582 267,-613 331,-613 331,-582 267,-582"/>
<text text-anchor="start" x="279" y="-599.8" font-family="Times,serif" font-size="14.00" fill="#000000">TAPIR</text>
<text text-anchor="start" x="270" y="-588.2" font-family="Arial" font-size="11.00" fill="#606060">[SANER19]</text>
<polygon fill="none" stroke="#d3d3d3" points="264,-579.5 264,-616.5 334,-616.5 334,-579.5 264,-579.5"/>
</g>
<!-- android&#45;survey&#45;&gt;combodroid -->
<g id="edge18" class="edge">
<title>android&#45;survey&#45;&gt;combodroid</title>
<path fill="none" stroke="#000000" d="M419.7356,-312.9428C417.679,-292.4564 414.6205,-261.9892 412.2936,-238.8088"/>
<polygon fill="#000000" stroke="#000000" points="415.7635,-238.3336 411.2821,-228.7332 408.7985,-239.0328 415.7635,-238.3336"/>
</g>
<!-- test&#45;survey -->
<g id="node28" class="node">
<title>test&#45;survey</title>
<path fill="#d3d3d3" stroke="#d3d3d3" d="M277.5,-660.5C277.5,-660.5 322.5,-660.5 322.5,-660.5 328.5,-660.5 334.5,-666.5 334.5,-672.5 334.5,-672.5 334.5,-693.5 334.5,-693.5 334.5,-699.5 328.5,-705.5 322.5,-705.5 322.5,-705.5 277.5,-705.5 277.5,-705.5 271.5,-705.5 265.5,-699.5 265.5,-693.5 265.5,-693.5 265.5,-672.5 265.5,-672.5 265.5,-666.5 271.5,-660.5 277.5,-660.5"/>
<polygon fill="none" stroke="#d3d3d3" points="277,-667 277,-698 324,-698 324,-667 277,-667"/>
<text text-anchor="start" x="281" y="-684.8" font-family="Times,serif" font-size="14.00" fill="#000000">Survey</text>
<text text-anchor="start" x="280" y="-673.2" font-family="Arial" font-size="11.00" fill="#606060">[FCS19]</text>
<polygon fill="none" stroke="#d3d3d3" points="273.5,-664.5 273.5,-701.5 326.5,-701.5 326.5,-664.5 273.5,-664.5"/>
</g>
</g>
</svg>
