<?xml version="1.0" encoding="UTF-8" standalone="no"?>
<!DOCTYPE svg PUBLIC "-//W3C//DTD SVG 1.1//EN"
 "http://www.w3.org/Graphics/SVG/1.1/DTD/svg11.dtd">
<!-- Generated by graphviz version 2.40.1 (20161225.0304)
 -->
<!-- Title: G Pages: 1 -->
<svg width="1445pt" height="764pt"
 viewBox="0.00 0.00 1445.00 763.69" xmlns="http://www.w3.org/2000/svg" xmlns:xlink="http://www.w3.org/1999/xlink">
<g id="graph0" class="graph" transform="scale(1 1) rotate(0) translate(4 759.6904)">
<title>G</title>
<polygon fill="#ffffff" stroke="transparent" points="-4,4 -4,-759.6904 1441,-759.6904 1441,4 -4,4"/>
<g id="clust1" class="cluster">
<title>cluster_subG</title>
<polygon fill="none" stroke="#000000" points="8,-8 8,-747.6904 1429,-747.6904 1429,-8 8,-8"/>
</g>
<g id="clust2" class="cluster">
<title>cluster_sta</title>
<polygon fill="none" stroke="#000000" points="16,-21.5 16,-739.6904 942,-739.6904 942,-21.5 16,-21.5"/>
<text text-anchor="middle" x="479" y="-724.4904" font-family="Arial" font-size="14.00" fill="#000000">Software Testing and Analysis</text>
</g>
<g id="clust3" class="cluster">
<title>cluster_adverse</title>
<polygon fill="none" stroke="#000000" points="454,-359.2959 454,-445.3945 626,-445.3945 626,-359.2959 454,-359.2959"/>
<text text-anchor="middle" x="540" y="-430.1945" font-family="Arial" font-size="14.00" fill="#000000">Adversarial Conditions</text>
</g>
<g id="clust4" class="cluster">
<title>cluster_concurrency</title>
<polygon fill="none" stroke="#000000" points="582,-161.1973 582,-258.2959 810,-258.2959 810,-161.1973 582,-161.1973"/>
<text text-anchor="middle" x="696" y="-243.0959" font-family="Arial" font-size="14.00" fill="#000000">Exploration of Interleaving Spaces</text>
</g>
<g id="clust5" class="cluster">
<title>cluster_analysis</title>
<polygon fill="none" stroke="#000000" points="230,-453.3945 230,-539.4932 442,-539.4932 442,-453.3945 230,-453.3945"/>
<text text-anchor="middle" x="336" y="-524.2932" font-family="Arial" font-size="14.00" fill="#000000">Software Analysis</text>
</g>
<g id="clust6" class="cluster">
<title>cluster_smd</title>
<polygon fill="none" stroke="#000000" points="634,-266.2959 634,-707.5918 934,-707.5918 934,-266.2959 634,-266.2959"/>
<text text-anchor="middle" x="784" y="-692.3918" font-family="Arial" font-size="14.00" fill="#000000">Understanding Shared Memory Dependences</text>
</g>
<g id="clust7" class="cluster">
<title>cluster_mobile</title>
<polygon fill="none" stroke="#000000" points="24,-29.5 24,-445.3945 446,-445.3945 446,-29.5 24,-29.5"/>
<text text-anchor="middle" x="235" y="-430.1945" font-family="Arial" font-size="14.00" fill="#000000">Mobile Apps</text>
</g>
<g id="clust8" class="cluster">
<title>cluster_synthesis</title>
<polygon fill="none" stroke="#000000" points="1159,-16 1159,-153.1973 1421,-153.1973 1421,-16 1159,-16"/>
<text text-anchor="middle" x="1290" y="-137.9973" font-family="Arial" font-size="14.00" fill="#000000">Program Synthesis</text>
</g>
<g id="clust9" class="cluster">
<title>cluster_transformer</title>
<polygon fill="none" stroke="#000000" points="1167,-24 1167,-121.0986 1413,-121.0986 1413,-24 1167,-24"/>
<text text-anchor="middle" x="1290" y="-105.8986" font-family="Arial" font-size="14.00" fill="#000000">Transformers</text>
</g>
<g id="clust10" class="cluster">
<title>cluster_tech</title>
<polygon fill="none" stroke="#000000" points="950,-24 950,-121.0986 1151,-121.0986 1151,-24 950,-24"/>
<text text-anchor="middle" x="1050.5" y="-105.8986" font-family="Arial" font-size="14.00" fill="#000000">Fun and Profits</text>
</g>
<!-- rescue -->
<g id="node1" class="node">
<title>rescue</title>
<path fill="#d3d3d3" stroke="#d3d3d3" d="M560,-367.7959C560,-367.7959 606,-367.7959 606,-367.7959 612,-367.7959 618,-373.7959 618,-379.7959 618,-379.7959 618,-400.7959 618,-400.7959 618,-406.7959 612,-412.7959 606,-412.7959 606,-412.7959 560,-412.7959 560,-412.7959 554,-412.7959 548,-406.7959 548,-400.7959 548,-400.7959 548,-379.7959 548,-379.7959 548,-373.7959 554,-367.7959 560,-367.7959"/>
<polygon fill="none" stroke="#d3d3d3" points="559,-374.2959 559,-405.2959 607,-405.2959 607,-374.2959 559,-374.2959"/>
<text text-anchor="start" x="561.6172" y="-392.0959" font-family="Times,serif" font-size="14.00" fill="#000000">ReScue</text>
<text text-anchor="start" x="562.8208" y="-380.4959" font-family="Arial" font-size="11.00" fill="#606060">[ASE18]</text>
<polygon fill="none" stroke="#d3d3d3" points="556,-371.7959 556,-408.7959 610,-408.7959 610,-371.7959 556,-371.7959"/>
</g>
<!-- scs -->
<g id="node2" class="node">
<title>scs</title>
<path fill="#d3d3d3" stroke="#d3d3d3" d="M746.5,-175.1973C746.5,-175.1973 789.5,-175.1973 789.5,-175.1973 795.5,-175.1973 801.5,-181.1973 801.5,-187.1973 801.5,-187.1973 801.5,-208.1973 801.5,-208.1973 801.5,-214.1973 795.5,-220.1973 789.5,-220.1973 789.5,-220.1973 746.5,-220.1973 746.5,-220.1973 740.5,-220.1973 734.5,-214.1973 734.5,-208.1973 734.5,-208.1973 734.5,-187.1973 734.5,-187.1973 734.5,-181.1973 740.5,-175.1973 746.5,-175.1973"/>
<polygon fill="none" stroke="#d3d3d3" points="746,-181.6973 746,-212.6973 791,-212.6973 791,-181.6973 746,-181.6973"/>
<text text-anchor="start" x="756.0449" y="-199.4973" font-family="Times,serif" font-size="14.00" fill="#000000">SCS</text>
<text text-anchor="start" x="748.6296" y="-187.8973" font-family="Arial" font-size="11.00" fill="#606060">[FSE18]</text>
<polygon fill="none" stroke="#d3d3d3" points="742.5,-179.1973 742.5,-216.1973 793.5,-216.1973 793.5,-179.1973 742.5,-179.1973"/>
</g>
<!-- abc -->
<g id="node13" class="node">
<title>abc</title>
<path fill="#d3d3d3" stroke="#d3d3d3" d="M970.5,-38C970.5,-38 1029.5,-38 1029.5,-38 1035.5,-38 1041.5,-44 1041.5,-50 1041.5,-50 1041.5,-71 1041.5,-71 1041.5,-77 1035.5,-83 1029.5,-83 1029.5,-83 970.5,-83 970.5,-83 964.5,-83 958.5,-77 958.5,-71 958.5,-71 958.5,-50 958.5,-50 958.5,-44 964.5,-38 970.5,-38"/>
<polygon fill="none" stroke="#d3d3d3" points="970,-44.5 970,-75.5 1031,-75.5 1031,-44.5 970,-44.5"/>
<text text-anchor="start" x="986.1069" y="-62.3" font-family="Times,serif" font-size="14.00" fill="#000000">ABC</text>
<text text-anchor="start" x="972.6804" y="-50.7" font-family="Arial" font-size="11.00" fill="#606060">[APSEC15]</text>
<polygon fill="none" stroke="#d3d3d3" points="966.5,-42 966.5,-79 1033.5,-79 1033.5,-42 966.5,-42"/>
</g>
<!-- scs&#45;&gt;abc -->
<!-- enter -->
<g id="node14" class="node">
<title>enter</title>
<path fill="#d3d3d3" stroke="#d3d3d3" d="M1187,-38C1187,-38 1269,-38 1269,-38 1275,-38 1281,-44 1281,-50 1281,-50 1281,-71 1281,-71 1281,-77 1275,-83 1269,-83 1269,-83 1187,-83 1187,-83 1181,-83 1175,-77 1175,-71 1175,-71 1175,-50 1175,-50 1175,-44 1181,-38 1187,-38"/>
<polygon fill="none" stroke="#d3d3d3" points="1186,-44.5 1186,-75.5 1270,-75.5 1270,-44.5 1186,-44.5"/>
<text text-anchor="start" x="1205.4482" y="-62.3" font-family="Times,serif" font-size="14.00" fill="#000000">ENTER</text>
<text text-anchor="start" x="1188.5654" y="-50.7" font-family="Arial" font-size="11.00" fill="#606060">[ICSE18 Poster]</text>
<polygon fill="none" stroke="#d3d3d3" points="1183,-42 1183,-79 1273,-79 1273,-42 1183,-42"/>
</g>
<!-- scs&#45;&gt;enter -->
<!-- aotes -->
<g id="node3" class="node">
<title>aotes</title>
<path fill="#d3d3d3" stroke="#d3d3d3" d="M1311,-32.5C1311,-32.5 1393,-32.5 1393,-32.5 1399,-32.5 1405,-38.5 1405,-44.5 1405,-44.5 1405,-76.5 1405,-76.5 1405,-82.5 1399,-88.5 1393,-88.5 1393,-88.5 1311,-88.5 1311,-88.5 1305,-88.5 1299,-82.5 1299,-76.5 1299,-76.5 1299,-44.5 1299,-44.5 1299,-38.5 1305,-32.5 1311,-32.5"/>
<polygon fill="none" stroke="#d3d3d3" points="1310,-39.5 1310,-81.5 1394,-81.5 1394,-39.5 1310,-39.5"/>
<text text-anchor="start" x="1329.4448" y="-68.3" font-family="Times,serif" font-size="14.00" fill="#000000">AOTES</text>
<text text-anchor="start" x="1312.5654" y="-56.7" font-family="Arial" font-size="11.00" fill="#606060">[ICSE17 Poster]</text>
<text text-anchor="start" x="1322.9612" y="-45.7" font-family="Arial" font-size="11.00" fill="#606060">[ECOOP18]</text>
<polygon fill="none" stroke="#d3d3d3" points="1307,-36.5 1307,-84.5 1397,-84.5 1397,-36.5 1307,-36.5"/>
</g>
<!-- needle -->
<g id="node4" class="node">
<title>needle</title>
<path fill="#d3d3d3" stroke="#d3d3d3" d="M370,-461.8945C370,-461.8945 422,-461.8945 422,-461.8945 428,-461.8945 434,-467.8945 434,-473.8945 434,-473.8945 434,-494.8945 434,-494.8945 434,-500.8945 428,-506.8945 422,-506.8945 422,-506.8945 370,-506.8945 370,-506.8945 364,-506.8945 358,-500.8945 358,-494.8945 358,-494.8945 358,-473.8945 358,-473.8945 358,-467.8945 364,-461.8945 370,-461.8945"/>
<polygon fill="none" stroke="#d3d3d3" points="369,-468.3945 369,-499.3945 423,-499.3945 423,-468.3945 369,-468.3945"/>
<text text-anchor="start" x="376.1792" y="-486.1945" font-family="Times,serif" font-size="14.00" fill="#000000">Needle</text>
<text text-anchor="start" x="371.5508" y="-474.5945" font-family="Arial" font-size="11.00" fill="#606060">[TURC18]</text>
<polygon fill="none" stroke="#d3d3d3" points="366,-465.8945 366,-502.8945 426,-502.8945 426,-465.8945 366,-465.8945"/>
</g>
<!-- repdroid -->
<g id="node6" class="node">
<title>repdroid</title>
<path fill="#d3d3d3" stroke="#d3d3d3" d="M366.5,-367.7959C366.5,-367.7959 425.5,-367.7959 425.5,-367.7959 431.5,-367.7959 437.5,-373.7959 437.5,-379.7959 437.5,-379.7959 437.5,-400.7959 437.5,-400.7959 437.5,-406.7959 431.5,-412.7959 425.5,-412.7959 425.5,-412.7959 366.5,-412.7959 366.5,-412.7959 360.5,-412.7959 354.5,-406.7959 354.5,-400.7959 354.5,-400.7959 354.5,-379.7959 354.5,-379.7959 354.5,-373.7959 360.5,-367.7959 366.5,-367.7959"/>
<polygon fill="none" stroke="#d3d3d3" points="366,-374.2959 366,-405.2959 427,-405.2959 427,-374.2959 366,-374.2959"/>
<text text-anchor="start" x="368.8931" y="-392.0959" font-family="Times,serif" font-size="14.00" fill="#000000">RepDroid</text>
<text text-anchor="start" x="374.1858" y="-380.4959" font-family="Arial" font-size="11.00" fill="#606060">[ICPC17]</text>
<polygon fill="none" stroke="#d3d3d3" points="362.5,-371.7959 362.5,-408.7959 429.5,-408.7959 429.5,-371.7959 362.5,-371.7959"/>
</g>
<!-- needle&#45;&gt;repdroid -->
<g id="edge11" class="edge">
<title>needle&#45;&gt;repdroid</title>
<path fill="none" stroke="#000000" d="M396,-461.6159C396,-450.0576 396,-435.8081 396,-423.0925"/>
<polygon fill="#000000" stroke="#000000" points="399.5001,-422.8647 396,-412.8648 392.5001,-422.8648 399.5001,-422.8647"/>
</g>
<!-- thesis -->
<g id="node5" class="node">
<title>thesis</title>
<path fill="#d3d3d3" stroke="#d3d3d3" d="M654,-274.7959C654,-274.7959 746,-274.7959 746,-274.7959 752,-274.7959 758,-280.7959 758,-286.7959 758,-286.7959 758,-318.7959 758,-318.7959 758,-324.7959 752,-330.7959 746,-330.7959 746,-330.7959 654,-330.7959 654,-330.7959 648,-330.7959 642,-324.7959 642,-318.7959 642,-318.7959 642,-286.7959 642,-286.7959 642,-280.7959 648,-274.7959 654,-274.7959"/>
<polygon fill="none" stroke="#d3d3d3" points="653,-281.7959 653,-323.7959 747,-323.7959 747,-281.7959 653,-281.7959"/>
<text text-anchor="start" x="667.6489" y="-310.5959" font-family="Times,serif" font-size="14.00" fill="#000000">PhD Thesis</text>
<text text-anchor="start" x="667.0779" y="-298.9959" font-family="Arial" font-size="11.00" fill="#606060">Yanyan Jiang</text>
<text text-anchor="start" x="655.6777" y="-287.9959" font-family="Arial" font-size="11.00" fill="#606060">Nanjing University</text>
<polygon fill="none" stroke="#d3d3d3" points="650,-278.7959 650,-326.7959 750,-326.7959 750,-278.7959 650,-278.7959"/>
</g>
<!-- thesis&#45;&gt;scs -->
<g id="edge12" class="edge">
<title>thesis&#45;&gt;scs</title>
<path fill="none" stroke="#000000" d="M718.2228,-274.6314C727.3449,-260.5325 738.4139,-243.4246 747.7954,-228.9248"/>
<polygon fill="#000000" stroke="#000000" points="750.8925,-230.5811 753.3862,-220.2839 745.0154,-226.7785 750.8925,-230.5811"/>
</g>
<!-- lesdroid -->
<g id="node21" class="node">
<title>lesdroid</title>
<path fill="#d3d3d3" stroke="#d3d3d3" d="M364.5,-280.2959C364.5,-280.2959 425.5,-280.2959 425.5,-280.2959 431.5,-280.2959 437.5,-286.2959 437.5,-292.2959 437.5,-292.2959 437.5,-313.2959 437.5,-313.2959 437.5,-319.2959 431.5,-325.2959 425.5,-325.2959 425.5,-325.2959 364.5,-325.2959 364.5,-325.2959 358.5,-325.2959 352.5,-319.2959 352.5,-313.2959 352.5,-313.2959 352.5,-292.2959 352.5,-292.2959 352.5,-286.2959 358.5,-280.2959 364.5,-280.2959"/>
<polygon fill="none" stroke="#d3d3d3" points="364,-286.7959 364,-317.7959 427,-317.7959 427,-286.7959 364,-286.7959"/>
<text text-anchor="start" x="366.7241" y="-304.5959" font-family="Times,serif" font-size="14.00" fill="#000000">LESDroid</text>
<text text-anchor="start" x="373.1858" y="-292.9959" font-family="Arial" font-size="11.00" fill="#606060">[ICPC18]</text>
<polygon fill="none" stroke="#d3d3d3" points="360.5,-284.2959 360.5,-321.2959 429.5,-321.2959 429.5,-284.2959 360.5,-284.2959"/>
</g>
<!-- repdroid&#45;&gt;lesdroid -->
<g id="edge8" class="edge">
<title>repdroid&#45;&gt;lesdroid</title>
<path fill="none" stroke="#000000" d="M395.7425,-367.7625C395.6314,-358.0404 395.4992,-346.4739 395.3773,-335.8135"/>
<polygon fill="#000000" stroke="#000000" points="398.8743,-335.5164 395.2601,-325.5571 391.8747,-335.5965 398.8743,-335.5164"/>
</g>
<!-- gain -->
<g id="node7" class="node">
<title>gain</title>
<path fill="#d3d3d3" stroke="#d3d3d3" d="M1071.5,-32.5C1071.5,-32.5 1130.5,-32.5 1130.5,-32.5 1136.5,-32.5 1142.5,-38.5 1142.5,-44.5 1142.5,-44.5 1142.5,-76.5 1142.5,-76.5 1142.5,-82.5 1136.5,-88.5 1130.5,-88.5 1130.5,-88.5 1071.5,-88.5 1071.5,-88.5 1065.5,-88.5 1059.5,-82.5 1059.5,-76.5 1059.5,-76.5 1059.5,-44.5 1059.5,-44.5 1059.5,-38.5 1065.5,-32.5 1071.5,-32.5"/>
<polygon fill="none" stroke="#d3d3d3" points="1071,-39.5 1071,-81.5 1132,-81.5 1132,-39.5 1071,-39.5"/>
<text text-anchor="start" x="1084.0034" y="-68.3" font-family="Times,serif" font-size="14.00" fill="#000000">GAIN</text>
<text text-anchor="start" x="1073.6804" y="-56.7" font-family="Arial" font-size="11.00" fill="#606060">[APSEC14]</text>
<text text-anchor="start" x="1083.77" y="-45.7" font-family="Arial" font-size="11.00" fill="#606060">[IST16]</text>
<polygon fill="none" stroke="#d3d3d3" points="1067.5,-36.5 1067.5,-84.5 1134.5,-84.5 1134.5,-36.5 1067.5,-36.5"/>
</g>
<!-- survey -->
<g id="node8" class="node">
<title>survey</title>
<path fill="#d3d3d3" stroke="#d3d3d3" d="M678.5,-367.7959C678.5,-367.7959 721.5,-367.7959 721.5,-367.7959 727.5,-367.7959 733.5,-373.7959 733.5,-379.7959 733.5,-379.7959 733.5,-400.7959 733.5,-400.7959 733.5,-406.7959 727.5,-412.7959 721.5,-412.7959 721.5,-412.7959 678.5,-412.7959 678.5,-412.7959 672.5,-412.7959 666.5,-406.7959 666.5,-400.7959 666.5,-400.7959 666.5,-379.7959 666.5,-379.7959 666.5,-373.7959 672.5,-367.7959 678.5,-367.7959"/>
<polygon fill="none" stroke="#d3d3d3" points="678,-374.2959 678,-405.2959 723,-405.2959 723,-374.2959 678,-374.2959"/>
<text text-anchor="start" x="680.6689" y="-392.0959" font-family="Times,serif" font-size="14.00" fill="#000000">Survey</text>
<text text-anchor="start" x="681.8489" y="-380.4959" font-family="Arial" font-size="11.00" fill="#606060">[JoS17]</text>
<polygon fill="none" stroke="#d3d3d3" points="674.5,-371.7959 674.5,-408.7959 725.5,-408.7959 725.5,-371.7959 674.5,-371.7959"/>
</g>
<!-- survey&#45;&gt;thesis -->
<g id="edge9" class="edge">
<title>survey&#45;&gt;thesis</title>
<path fill="none" stroke="#000000" d="M700,-367.7625C700,-359.595 700,-350.126 700,-340.986"/>
<polygon fill="#000000" stroke="#000000" points="703.5001,-340.8933 700,-330.8934 696.5001,-340.8934 703.5001,-340.8933"/>
</g>
<!-- aatt -->
<g id="node9" class="node">
<title>aatt</title>
<path fill="#d3d3d3" stroke="#d3d3d3" d="M602.5,-169.6973C602.5,-169.6973 661.5,-169.6973 661.5,-169.6973 667.5,-169.6973 673.5,-175.6973 673.5,-181.6973 673.5,-181.6973 673.5,-213.6973 673.5,-213.6973 673.5,-219.6973 667.5,-225.6973 661.5,-225.6973 661.5,-225.6973 602.5,-225.6973 602.5,-225.6973 596.5,-225.6973 590.5,-219.6973 590.5,-213.6973 590.5,-213.6973 590.5,-181.6973 590.5,-181.6973 590.5,-175.6973 596.5,-169.6973 602.5,-169.6973"/>
<polygon fill="none" stroke="#d3d3d3" points="602,-176.6973 602,-218.6973 663,-218.6973 663,-176.6973 602,-176.6973"/>
<text text-anchor="start" x="614.6138" y="-205.4973" font-family="Times,serif" font-size="14.00" fill="#000000">AATT</text>
<text text-anchor="start" x="604.6804" y="-193.8973" font-family="Arial" font-size="11.00" fill="#606060">[APSEC16]</text>
<text text-anchor="start" x="612.0173" y="-182.8973" font-family="Arial" font-size="11.00" fill="#606060">[SCP18]</text>
<polygon fill="none" stroke="#d3d3d3" points="598.5,-173.6973 598.5,-221.6973 665.5,-221.6973 665.5,-173.6973 598.5,-173.6973"/>
</g>
<!-- aatt&#45;&gt;thesis -->
<g id="edge14" class="edge">
<title>aatt&#45;&gt;thesis</title>
<path fill="none" stroke="#000000" d="M650.2731,-225.9395C658.2827,-238.3189 667.7858,-253.0067 676.328,-266.2092"/>
<polygon fill="#000000" stroke="#000000" points="673.4064,-268.1368 681.7772,-274.6314 679.2835,-264.3342 673.4064,-268.1368"/>
</g>
<!-- android&#45;survey -->
<g id="node23" class="node">
<title>android&#45;survey</title>
<path fill="#d3d3d3" stroke="#d3d3d3" d="M347,-38C347,-38 395,-38 395,-38 401,-38 407,-44 407,-50 407,-50 407,-71 407,-71 407,-77 401,-83 395,-83 395,-83 347,-83 347,-83 341,-83 335,-77 335,-71 335,-71 335,-50 335,-50 335,-44 341,-38 347,-38"/>
<polygon fill="none" stroke="#d3d3d3" points="346,-44.5 346,-75.5 396,-75.5 396,-44.5 346,-44.5"/>
<text text-anchor="start" x="351.1689" y="-62.3" font-family="Times,serif" font-size="14.00" fill="#000000">Survey</text>
<text text-anchor="start" x="348.9893" y="-50.7" font-family="Arial" font-size="11.00" fill="#606060">[SCIS19]</text>
<polygon fill="none" stroke="#d3d3d3" points="343,-42 343,-79 399,-79 399,-42 343,-42"/>
</g>
<!-- aatt&#45;&gt;android&#45;survey -->
<g id="edge16" class="edge">
<title>aatt&#45;&gt;android&#45;survey</title>
<path fill="none" stroke="#000000" d="M590.3552,-175.8062C542.7624,-150.7886 465.1428,-109.9871 416.1369,-84.2267"/>
<polygon fill="#000000" stroke="#000000" points="417.5141,-80.9966 407.034,-79.4416 414.2571,-87.1927 417.5141,-80.9966"/>
</g>
<!-- c3 -->
<g id="node10" class="node">
<title>c3</title>
<path fill="#d3d3d3" stroke="#d3d3d3" d="M474.5,-367.7959C474.5,-367.7959 517.5,-367.7959 517.5,-367.7959 523.5,-367.7959 529.5,-373.7959 529.5,-379.7959 529.5,-379.7959 529.5,-400.7959 529.5,-400.7959 529.5,-406.7959 523.5,-412.7959 517.5,-412.7959 517.5,-412.7959 474.5,-412.7959 474.5,-412.7959 468.5,-412.7959 462.5,-406.7959 462.5,-400.7959 462.5,-400.7959 462.5,-379.7959 462.5,-379.7959 462.5,-373.7959 468.5,-367.7959 474.5,-367.7959"/>
<polygon fill="none" stroke="#d3d3d3" points="474,-374.2959 474,-405.2959 519,-405.2959 519,-374.2959 474,-374.2959"/>
<text text-anchor="start" x="488.3311" y="-392.0959" font-family="Times,serif" font-size="14.00" fill="#000000">C3</text>
<text text-anchor="start" x="476.6296" y="-380.4959" font-family="Arial" font-size="11.00" fill="#606060">[FSE16]</text>
<polygon fill="none" stroke="#d3d3d3" points="470.5,-371.7959 470.5,-408.7959 521.5,-408.7959 521.5,-371.7959 470.5,-371.7959"/>
</g>
<!-- c3&#45;&gt;thesis -->
<g id="edge15" class="edge">
<title>c3&#45;&gt;thesis</title>
<path fill="none" stroke="#000000" d="M524.8865,-367.7812C529.4731,-364.7078 534.2681,-361.7658 539,-359.2959 568.2558,-344.0252 602.539,-331.3455 631.9334,-321.8936"/>
<polygon fill="#000000" stroke="#000000" points="633.2163,-325.159 641.7002,-318.8128 631.1105,-318.4832 633.2163,-325.159"/>
</g>
<!-- gat -->
<g id="node11" class="node">
<title>gat</title>
<path fill="#d3d3d3" stroke="#d3d3d3" d="M281.5,-175.1973C281.5,-175.1973 340.5,-175.1973 340.5,-175.1973 346.5,-175.1973 352.5,-181.1973 352.5,-187.1973 352.5,-187.1973 352.5,-208.1973 352.5,-208.1973 352.5,-214.1973 346.5,-220.1973 340.5,-220.1973 340.5,-220.1973 281.5,-220.1973 281.5,-220.1973 275.5,-220.1973 269.5,-214.1973 269.5,-208.1973 269.5,-208.1973 269.5,-187.1973 269.5,-187.1973 269.5,-181.1973 275.5,-175.1973 281.5,-175.1973"/>
<polygon fill="none" stroke="#d3d3d3" points="281,-181.6973 281,-212.6973 342,-212.6973 342,-181.6973 281,-181.6973"/>
<text text-anchor="start" x="297.8896" y="-199.4973" font-family="Times,serif" font-size="14.00" fill="#000000">GAT</text>
<text text-anchor="start" x="283.6804" y="-187.8973" font-family="Arial" font-size="11.00" fill="#606060">[APSEC16]</text>
<polygon fill="none" stroke="#d3d3d3" points="277.5,-179.1973 277.5,-216.1973 344.5,-216.1973 344.5,-179.1973 277.5,-179.1973"/>
</g>
<!-- gat&#45;&gt;android&#45;survey -->
<g id="edge17" class="edge">
<title>gat&#45;&gt;android&#45;survey</title>
<path fill="none" stroke="#000000" d="M320.9078,-175.0419C330.7655,-152.5011 345.9797,-117.712 357.0552,-92.3866"/>
<polygon fill="#000000" stroke="#000000" points="360.2773,-93.7536 361.0775,-83.189 353.8638,-90.9487 360.2773,-93.7536"/>
</g>
<!-- comedy -->
<g id="node12" class="node">
<title>comedy</title>
<path fill="#d3d3d3" stroke="#d3d3d3" d="M250.5,-461.8945C250.5,-461.8945 327.5,-461.8945 327.5,-461.8945 333.5,-461.8945 339.5,-467.8945 339.5,-473.8945 339.5,-473.8945 339.5,-494.8945 339.5,-494.8945 339.5,-500.8945 333.5,-506.8945 327.5,-506.8945 327.5,-506.8945 250.5,-506.8945 250.5,-506.8945 244.5,-506.8945 238.5,-500.8945 238.5,-494.8945 238.5,-494.8945 238.5,-473.8945 238.5,-473.8945 238.5,-467.8945 244.5,-461.8945 250.5,-461.8945"/>
<polygon fill="none" stroke="#d3d3d3" points="250,-468.3945 250,-499.3945 329,-499.3945 329,-468.3945 250,-468.3945"/>
<text text-anchor="start" x="265.7793" y="-486.1945" font-family="Times,serif" font-size="14.00" fill="#000000">Comedy</text>
<text text-anchor="start" x="252.5173" y="-474.5945" font-family="Arial" font-size="11.00" fill="#606060">[COMPSAC15]</text>
<polygon fill="none" stroke="#d3d3d3" points="246.5,-465.8945 246.5,-502.8945 331.5,-502.8945 331.5,-465.8945 246.5,-465.8945"/>
</g>
<!-- bc -->
<g id="node15" class="node">
<title>bc</title>
<path fill="#d3d3d3" stroke="#d3d3d3" d="M731.5,-461.8945C731.5,-461.8945 808.5,-461.8945 808.5,-461.8945 814.5,-461.8945 820.5,-467.8945 820.5,-473.8945 820.5,-473.8945 820.5,-494.8945 820.5,-494.8945 820.5,-500.8945 814.5,-506.8945 808.5,-506.8945 808.5,-506.8945 731.5,-506.8945 731.5,-506.8945 725.5,-506.8945 719.5,-500.8945 719.5,-494.8945 719.5,-494.8945 719.5,-473.8945 719.5,-473.8945 719.5,-467.8945 725.5,-461.8945 731.5,-461.8945"/>
<polygon fill="none" stroke="#d3d3d3" points="731,-468.3945 731,-499.3945 810,-499.3945 810,-468.3945 731,-468.3945"/>
<text text-anchor="start" x="733.7534" y="-486.1945" font-family="Times,serif" font-size="14.00" fill="#000000">Bisect Coord</text>
<text text-anchor="start" x="750.6296" y="-474.5945" font-family="Arial" font-size="11.00" fill="#606060">[FSE16]</text>
<polygon fill="none" stroke="#d3d3d3" points="727.5,-465.8945 727.5,-502.8945 812.5,-502.8945 812.5,-465.8945 727.5,-465.8945"/>
</g>
<!-- bc&#45;&gt;survey -->
<g id="edge7" class="edge">
<title>bc&#45;&gt;survey</title>
<path fill="none" stroke="#000000" d="M753.055,-461.6159C744.0268,-449.4796 732.7916,-434.3765 722.9875,-421.1972"/>
<polygon fill="#000000" stroke="#000000" points="725.5659,-418.7992 716.789,-412.8648 719.9495,-422.9773 725.5659,-418.7992"/>
</g>
<!-- att -->
<g id="node16" class="node">
<title>att</title>
<path fill="#d3d3d3" stroke="#d3d3d3" d="M239.5,-280.2959C239.5,-280.2959 322.5,-280.2959 322.5,-280.2959 328.5,-280.2959 334.5,-286.2959 334.5,-292.2959 334.5,-292.2959 334.5,-313.2959 334.5,-313.2959 334.5,-319.2959 328.5,-325.2959 322.5,-325.2959 322.5,-325.2959 239.5,-325.2959 239.5,-325.2959 233.5,-325.2959 227.5,-319.2959 227.5,-313.2959 227.5,-313.2959 227.5,-292.2959 227.5,-292.2959 227.5,-286.2959 233.5,-280.2959 239.5,-280.2959"/>
<polygon fill="none" stroke="#d3d3d3" points="239,-286.7959 239,-317.7959 324,-317.7959 324,-286.7959 239,-286.7959"/>
<text text-anchor="start" x="268.6689" y="-304.5959" font-family="Times,serif" font-size="14.00" fill="#000000">ATT</text>
<text text-anchor="start" x="241.7539" y="-292.9959" font-family="Arial" font-size="11.00" fill="#606060">[Internetware15]</text>
<polygon fill="none" stroke="#d3d3d3" points="235.5,-284.2959 235.5,-321.2959 326.5,-321.2959 326.5,-284.2959 235.5,-284.2959"/>
</g>
<!-- att&#45;&gt;aatt -->
<g id="edge2" class="edge">
<title>att&#45;&gt;aatt</title>
<path fill="none" stroke="#000000" d="M313.1482,-280.1309C322.3878,-274.6768 332.7485,-269.5047 343,-266.2959 388.5109,-252.0504 403.2436,-267.6776 450,-258.2959 495.0672,-249.2531 544.4431,-232.346 580.3812,-218.6834"/>
<polygon fill="#000000" stroke="#000000" points="582.071,-221.7834 590.1465,-214.9251 579.5566,-215.2505 582.071,-221.7834"/>
</g>
<!-- att&#45;&gt;gat -->
<g id="edge1" class="edge">
<title>att&#45;&gt;gat</title>
<path fill="none" stroke="#000000" d="M287.4358,-280.2496C291.6275,-265.5647 297.1611,-246.1788 301.8126,-229.8834"/>
<polygon fill="#000000" stroke="#000000" points="305.1956,-230.7829 304.5749,-220.2063 298.4644,-228.8615 305.1956,-230.7829"/>
</g>
<!-- rwtrace -->
<g id="node17" class="node">
<title>rwtrace</title>
<path fill="#d3d3d3" stroke="#d3d3d3" d="M711.5,-547.9932C711.5,-547.9932 768.5,-547.9932 768.5,-547.9932 774.5,-547.9932 780.5,-553.9932 780.5,-559.9932 780.5,-559.9932 780.5,-580.9932 780.5,-580.9932 780.5,-586.9932 774.5,-592.9932 768.5,-592.9932 768.5,-592.9932 711.5,-592.9932 711.5,-592.9932 705.5,-592.9932 699.5,-586.9932 699.5,-580.9932 699.5,-580.9932 699.5,-559.9932 699.5,-559.9932 699.5,-553.9932 705.5,-547.9932 711.5,-547.9932"/>
<polygon fill="none" stroke="#d3d3d3" points="711,-554.4932 711,-585.4932 770,-585.4932 770,-554.4932 711,-554.4932"/>
<text text-anchor="start" x="713.9219" y="-572.2932" font-family="Times,serif" font-size="14.00" fill="#000000">RWTrace</text>
<text text-anchor="start" x="720.3208" y="-560.6932" font-family="Arial" font-size="11.00" fill="#606060">[ASE15]</text>
<polygon fill="none" stroke="#d3d3d3" points="707.5,-551.9932 707.5,-588.9932 772.5,-588.9932 772.5,-551.9932 707.5,-551.9932"/>
</g>
<!-- rwtrace&#45;&gt;survey -->
<g id="edge6" class="edge">
<title>rwtrace&#45;&gt;survey</title>
<path fill="none" stroke="#000000" d="M715.689,-547.6664C713.8568,-545.0678 712.2419,-542.3284 711,-539.4932 694.6409,-502.1443 694.2093,-454.4951 696.3224,-423.2245"/>
<polygon fill="#000000" stroke="#000000" points="699.8405,-423.1391 697.1541,-412.8905 692.8631,-422.5775 699.8405,-423.1391"/>
</g>
<!-- rwtrace&#45;&gt;bc -->
<g id="edge4" class="edge">
<title>rwtrace&#45;&gt;bc</title>
<path fill="none" stroke="#000000" d="M747.8821,-547.8718C751.1974,-538.3571 755.1166,-527.1092 758.728,-516.7448"/>
<polygon fill="#000000" stroke="#000000" points="762.081,-517.7586 762.0663,-507.1638 755.4708,-515.4553 762.081,-517.7586"/>
</g>
<!-- cosedroid -->
<g id="node18" class="node">
<title>cosedroid</title>
<path fill="#d3d3d3" stroke="#d3d3d3" d="M247.5,-367.7959C247.5,-367.7959 324.5,-367.7959 324.5,-367.7959 330.5,-367.7959 336.5,-373.7959 336.5,-379.7959 336.5,-379.7959 336.5,-400.7959 336.5,-400.7959 336.5,-406.7959 330.5,-412.7959 324.5,-412.7959 324.5,-412.7959 247.5,-412.7959 247.5,-412.7959 241.5,-412.7959 235.5,-406.7959 235.5,-400.7959 235.5,-400.7959 235.5,-379.7959 235.5,-379.7959 235.5,-373.7959 241.5,-367.7959 247.5,-367.7959"/>
<polygon fill="none" stroke="#d3d3d3" points="247,-374.2959 247,-405.2959 326,-405.2959 326,-374.2959 247,-374.2959"/>
<text text-anchor="start" x="256.1689" y="-392.0959" font-family="Times,serif" font-size="14.00" fill="#000000">CoseDroid</text>
<text text-anchor="start" x="249.5173" y="-380.4959" font-family="Arial" font-size="11.00" fill="#606060">[COMPSAC14]</text>
<polygon fill="none" stroke="#d3d3d3" points="243.5,-371.7959 243.5,-408.7959 328.5,-408.7959 328.5,-371.7959 243.5,-371.7959"/>
</g>
<!-- cosedroid&#45;&gt;att -->
<g id="edge13" class="edge">
<title>cosedroid&#45;&gt;att</title>
<path fill="none" stroke="#000000" d="M284.7124,-367.7625C284.1568,-358.0404 283.4959,-346.4739 282.8867,-335.8135"/>
<polygon fill="#000000" stroke="#000000" points="286.3655,-335.3411 282.3006,-325.5571 279.3769,-335.7405 286.3655,-335.3411"/>
</g>
<!-- care -->
<g id="node19" class="node">
<title>care</title>
<path fill="#d3d3d3" stroke="#d3d3d3" d="M686,-629.9932C686,-629.9932 734,-629.9932 734,-629.9932 740,-629.9932 746,-635.9932 746,-641.9932 746,-641.9932 746,-662.9932 746,-662.9932 746,-668.9932 740,-674.9932 734,-674.9932 734,-674.9932 686,-674.9932 686,-674.9932 680,-674.9932 674,-668.9932 674,-662.9932 674,-662.9932 674,-641.9932 674,-641.9932 674,-635.9932 680,-629.9932 686,-629.9932"/>
<polygon fill="none" stroke="#d3d3d3" points="685,-636.4932 685,-667.4932 735,-667.4932 735,-636.4932 685,-636.4932"/>
<text text-anchor="start" x="691.3311" y="-654.2932" font-family="Times,serif" font-size="14.00" fill="#000000">CARE</text>
<text text-anchor="start" x="687.9893" y="-642.6932" font-family="Arial" font-size="11.00" fill="#606060">[ICSE14]</text>
<polygon fill="none" stroke="#d3d3d3" points="682,-633.9932 682,-670.9932 738,-670.9932 738,-633.9932 682,-633.9932"/>
</g>
<!-- care&#45;&gt;survey -->
<g id="edge5" class="edge">
<title>care&#45;&gt;survey</title>
<path fill="none" stroke="#000000" d="M700.9056,-629.9211C697.0193,-619.095 692.9366,-605.8249 691,-593.4932 681.646,-533.9309 688.7731,-463.4303 694.5577,-423.0778"/>
<polygon fill="#000000" stroke="#000000" points="698.0455,-423.4193 696.0636,-413.0115 691.1225,-422.3836 698.0455,-423.4193"/>
</g>
<!-- care&#45;&gt;rwtrace -->
<g id="edge3" class="edge">
<title>care&#45;&gt;rwtrace</title>
<path fill="none" stroke="#000000" d="M718.3567,-629.6516C721.4124,-621.2993 724.9291,-611.6871 728.2272,-602.6721"/>
<polygon fill="#000000" stroke="#000000" points="731.5392,-603.806 731.6881,-593.2122 724.9653,-601.4009 731.5392,-603.806"/>
</g>
<!-- uga -->
<g id="node20" class="node">
<title>uga</title>
<path fill="#d3d3d3" stroke="#d3d3d3" d="M146.5,-367.7959C146.5,-367.7959 205.5,-367.7959 205.5,-367.7959 211.5,-367.7959 217.5,-373.7959 217.5,-379.7959 217.5,-379.7959 217.5,-400.7959 217.5,-400.7959 217.5,-406.7959 211.5,-412.7959 205.5,-412.7959 205.5,-412.7959 146.5,-412.7959 146.5,-412.7959 140.5,-412.7959 134.5,-406.7959 134.5,-400.7959 134.5,-400.7959 134.5,-379.7959 134.5,-379.7959 134.5,-373.7959 140.5,-367.7959 146.5,-367.7959"/>
<polygon fill="none" stroke="#d3d3d3" points="146,-374.2959 146,-405.2959 207,-405.2959 207,-374.2959 146,-374.2959"/>
<text text-anchor="start" x="161.3345" y="-392.0959" font-family="Times,serif" font-size="14.00" fill="#000000">UGA</text>
<text text-anchor="start" x="148.6804" y="-380.4959" font-family="Arial" font-size="11.00" fill="#606060">[APSEC14]</text>
<polygon fill="none" stroke="#d3d3d3" points="142.5,-371.7959 142.5,-408.7959 209.5,-408.7959 209.5,-371.7959 142.5,-371.7959"/>
</g>
<!-- uga&#45;&gt;att -->
<g id="edge10" class="edge">
<title>uga&#45;&gt;att</title>
<path fill="none" stroke="#000000" d="M203.0401,-367.7625C216.0434,-356.9264 231.7962,-343.7991 245.7284,-332.1889"/>
<polygon fill="#000000" stroke="#000000" points="248.245,-334.6477 253.6866,-325.5571 243.7637,-329.2702 248.245,-334.6477"/>
</g>
<!-- tapir -->
<g id="node22" class="node">
<title>tapir</title>
<path fill="#d3d3d3" stroke="#d3d3d3" d="M44,-367.7959C44,-367.7959 104,-367.7959 104,-367.7959 110,-367.7959 116,-373.7959 116,-379.7959 116,-379.7959 116,-400.7959 116,-400.7959 116,-406.7959 110,-412.7959 104,-412.7959 104,-412.7959 44,-412.7959 44,-412.7959 38,-412.7959 32,-406.7959 32,-400.7959 32,-400.7959 32,-379.7959 32,-379.7959 32,-373.7959 38,-367.7959 44,-367.7959"/>
<polygon fill="none" stroke="#d3d3d3" points="43,-374.2959 43,-405.2959 105,-405.2959 105,-374.2959 43,-374.2959"/>
<text text-anchor="start" x="54.333" y="-392.0959" font-family="Times,serif" font-size="14.00" fill="#000000">TAPIR</text>
<text text-anchor="start" x="45.877" y="-380.4959" font-family="Arial" font-size="11.00" fill="#606060">[SANER19]</text>
<polygon fill="none" stroke="#d3d3d3" points="40,-371.7959 40,-408.7959 108,-408.7959 108,-371.7959 40,-371.7959"/>
</g>
</g>
</svg>
