<?xml version="1.0" encoding="UTF-8" standalone="no"?>
<!DOCTYPE svg PUBLIC "-//W3C//DTD SVG 1.1//EN"
 "http://www.w3.org/Graphics/SVG/1.1/DTD/svg11.dtd">
<!-- Generated by graphviz version 2.40.1 (20161225.0304)
 -->
<!-- Title: G Pages: 1 -->
<svg width="1473pt" height="756pt"
 viewBox="0.00 0.00 1473.00 756.00" xmlns="http://www.w3.org/2000/svg" xmlns:xlink="http://www.w3.org/1999/xlink">
<g id="graph0" class="graph" transform="scale(1 1) rotate(0) translate(4 752)">
<title>G</title>
<polygon fill="#ffffff" stroke="transparent" points="-4,4 -4,-752 1469,-752 1469,4 -4,4"/>
<g id="clust1" class="cluster">
<title>cluster_subG</title>
<polygon fill="none" stroke="#000000" points="8,-8 8,-740 1457,-740 1457,-8 8,-8"/>
</g>
<g id="clust2" class="cluster">
<title>cluster_sta</title>
<polygon fill="none" stroke="#000000" points="16,-21.5 16,-732 962,-732 962,-21.5 16,-21.5"/>
<text text-anchor="middle" x="489" y="-716.8" font-family="Arial" font-size="14.00" fill="#000000">Software Testing and Analysis</text>
</g>
<g id="clust3" class="cluster">
<title>cluster_adverse</title>
<polygon fill="none" stroke="#000000" points="460,-356 460,-441 632,-441 632,-356 460,-356"/>
<text text-anchor="middle" x="546" y="-425.8" font-family="Arial" font-size="14.00" fill="#000000">Adversarial Conditions</text>
</g>
<g id="clust4" class="cluster">
<title>cluster_concurrency</title>
<polygon fill="none" stroke="#000000" points="584,-159 584,-255 821,-255 821,-159 584,-159"/>
<text text-anchor="middle" x="702.5" y="-239.8" font-family="Arial" font-size="14.00" fill="#000000">Exploration of Interleaving Spaces</text>
</g>
<g id="clust5" class="cluster">
<title>cluster_analysis</title>
<polygon fill="none" stroke="#000000" points="234,-449 234,-534 450,-534 450,-449 234,-449"/>
<text text-anchor="middle" x="342" y="-518.8" font-family="Arial" font-size="14.00" fill="#000000">Software Analysis</text>
</g>
<g id="clust6" class="cluster">
<title>cluster_smd</title>
<polygon fill="none" stroke="#000000" points="640,-263 640,-701 954,-701 954,-263 640,-263"/>
<text text-anchor="middle" x="797" y="-685.8" font-family="Arial" font-size="14.00" fill="#000000">Understanding Shared Memory Dependences</text>
</g>
<g id="clust7" class="cluster">
<title>cluster_mobile</title>
<polygon fill="none" stroke="#000000" points="24,-29.5 24,-441 452,-441 452,-29.5 24,-29.5"/>
<text text-anchor="middle" x="238" y="-425.8" font-family="Arial" font-size="14.00" fill="#000000">Mobile Apps</text>
</g>
<g id="clust8" class="cluster">
<title>cluster_synthesis</title>
<polygon fill="none" stroke="#000000" points="1183,-16 1183,-151 1449,-151 1449,-16 1183,-16"/>
<text text-anchor="middle" x="1316" y="-135.8" font-family="Arial" font-size="14.00" fill="#000000">Program Synthesis</text>
</g>
<g id="clust9" class="cluster">
<title>cluster_transformer</title>
<polygon fill="none" stroke="#000000" points="1191,-24 1191,-120 1441,-120 1441,-24 1191,-24"/>
<text text-anchor="middle" x="1316" y="-104.8" font-family="Arial" font-size="14.00" fill="#000000">Transformers</text>
</g>
<g id="clust10" class="cluster">
<title>cluster_tech</title>
<polygon fill="none" stroke="#000000" points="970,-24 970,-120 1175,-120 1175,-24 970,-24"/>
<text text-anchor="middle" x="1072.5" y="-104.8" font-family="Arial" font-size="14.00" fill="#000000">Fun and Profits</text>
</g>
<!-- rescue -->
<g id="node1" class="node">
<title>rescue</title>
<path fill="#d3d3d3" stroke="#d3d3d3" d="M566,-364.5C566,-364.5 612,-364.5 612,-364.5 618,-364.5 624,-370.5 624,-376.5 624,-376.5 624,-397.5 624,-397.5 624,-403.5 618,-409.5 612,-409.5 612,-409.5 566,-409.5 566,-409.5 560,-409.5 554,-403.5 554,-397.5 554,-397.5 554,-376.5 554,-376.5 554,-370.5 560,-364.5 566,-364.5"/>
<polygon fill="none" stroke="#d3d3d3" points="565,-371 565,-402 613,-402 613,-371 565,-371"/>
<text text-anchor="start" x="568" y="-388.8" font-family="Times,serif" font-size="14.00" fill="#000000">ReScue</text>
<text text-anchor="start" x="568.5" y="-377.2" font-family="Arial" font-size="11.00" fill="#606060">[ASE18]</text>
<polygon fill="none" stroke="#d3d3d3" points="562,-368.5 562,-405.5 616,-405.5 616,-368.5 562,-368.5"/>
</g>
<!-- scs -->
<g id="node2" class="node">
<title>scs</title>
<path fill="#d3d3d3" stroke="#d3d3d3" d="M757,-173C757,-173 801,-173 801,-173 807,-173 813,-179 813,-185 813,-185 813,-206 813,-206 813,-212 807,-218 801,-218 801,-218 757,-218 757,-218 751,-218 745,-212 745,-206 745,-206 745,-185 745,-185 745,-179 751,-173 757,-173"/>
<polygon fill="none" stroke="#d3d3d3" points="756,-179.5 756,-210.5 802,-210.5 802,-179.5 756,-179.5"/>
<text text-anchor="start" x="766.5" y="-197.3" font-family="Times,serif" font-size="14.00" fill="#000000">SCS</text>
<text text-anchor="start" x="759" y="-185.7" font-family="Arial" font-size="11.00" fill="#606060">[FSE18]</text>
<polygon fill="none" stroke="#d3d3d3" points="753,-177 753,-214 805,-214 805,-177 753,-177"/>
</g>
<!-- abc -->
<g id="node13" class="node">
<title>abc</title>
<path fill="#d3d3d3" stroke="#d3d3d3" d="M990.5,-38C990.5,-38 1051.5,-38 1051.5,-38 1057.5,-38 1063.5,-44 1063.5,-50 1063.5,-50 1063.5,-71 1063.5,-71 1063.5,-77 1057.5,-83 1051.5,-83 1051.5,-83 990.5,-83 990.5,-83 984.5,-83 978.5,-77 978.5,-71 978.5,-71 978.5,-50 978.5,-50 978.5,-44 984.5,-38 990.5,-38"/>
<polygon fill="none" stroke="#d3d3d3" points="990,-44.5 990,-75.5 1053,-75.5 1053,-44.5 990,-44.5"/>
<text text-anchor="start" x="1007.5" y="-62.3" font-family="Times,serif" font-size="14.00" fill="#000000">ABC</text>
<text text-anchor="start" x="993" y="-50.7" font-family="Arial" font-size="11.00" fill="#606060">[APSEC15]</text>
<polygon fill="none" stroke="#d3d3d3" points="986.5,-42 986.5,-79 1055.5,-79 1055.5,-42 986.5,-42"/>
</g>
<!-- scs&#45;&gt;abc -->
<!-- enter -->
<g id="node14" class="node">
<title>enter</title>
<path fill="#d3d3d3" stroke="#d3d3d3" d="M1211,-38C1211,-38 1295,-38 1295,-38 1301,-38 1307,-44 1307,-50 1307,-50 1307,-71 1307,-71 1307,-77 1301,-83 1295,-83 1295,-83 1211,-83 1211,-83 1205,-83 1199,-77 1199,-71 1199,-71 1199,-50 1199,-50 1199,-44 1205,-38 1211,-38"/>
<polygon fill="none" stroke="#d3d3d3" points="1210,-44.5 1210,-75.5 1296,-75.5 1296,-44.5 1210,-44.5"/>
<text text-anchor="start" x="1231" y="-62.3" font-family="Times,serif" font-size="14.00" fill="#000000">ENTER</text>
<text text-anchor="start" x="1213" y="-50.7" font-family="Arial" font-size="11.00" fill="#606060">[ICSE18 Poster]</text>
<polygon fill="none" stroke="#d3d3d3" points="1207,-42 1207,-79 1299,-79 1299,-42 1207,-42"/>
</g>
<!-- scs&#45;&gt;enter -->
<!-- aotes -->
<g id="node3" class="node">
<title>aotes</title>
<path fill="#d3d3d3" stroke="#d3d3d3" d="M1337,-32.5C1337,-32.5 1421,-32.5 1421,-32.5 1427,-32.5 1433,-38.5 1433,-44.5 1433,-44.5 1433,-76.5 1433,-76.5 1433,-82.5 1427,-88.5 1421,-88.5 1421,-88.5 1337,-88.5 1337,-88.5 1331,-88.5 1325,-82.5 1325,-76.5 1325,-76.5 1325,-44.5 1325,-44.5 1325,-38.5 1331,-32.5 1337,-32.5"/>
<polygon fill="none" stroke="#d3d3d3" points="1336,-39.5 1336,-81.5 1422,-81.5 1422,-39.5 1336,-39.5"/>
<text text-anchor="start" x="1357" y="-68.3" font-family="Times,serif" font-size="14.00" fill="#000000">AOTES</text>
<text text-anchor="start" x="1339" y="-56.7" font-family="Arial" font-size="11.00" fill="#606060">[ICSE17 Poster]</text>
<text text-anchor="start" x="1349" y="-45.7" font-family="Arial" font-size="11.00" fill="#606060">[ECOOP18]</text>
<polygon fill="none" stroke="#d3d3d3" points="1333,-36.5 1333,-84.5 1425,-84.5 1425,-36.5 1333,-36.5"/>
</g>
<!-- needle -->
<g id="node4" class="node">
<title>needle</title>
<path fill="#d3d3d3" stroke="#d3d3d3" d="M376,-457.5C376,-457.5 430,-457.5 430,-457.5 436,-457.5 442,-463.5 442,-469.5 442,-469.5 442,-490.5 442,-490.5 442,-496.5 436,-502.5 430,-502.5 430,-502.5 376,-502.5 376,-502.5 370,-502.5 364,-496.5 364,-490.5 364,-490.5 364,-469.5 364,-469.5 364,-463.5 370,-457.5 376,-457.5"/>
<polygon fill="none" stroke="#d3d3d3" points="375,-464 375,-495 431,-495 431,-464 375,-464"/>
<text text-anchor="start" x="383.5" y="-481.8" font-family="Times,serif" font-size="14.00" fill="#000000">Needle</text>
<text text-anchor="start" x="378" y="-470.2" font-family="Arial" font-size="11.00" fill="#606060">[TURC18]</text>
<polygon fill="none" stroke="#d3d3d3" points="372,-461.5 372,-498.5 434,-498.5 434,-461.5 372,-461.5"/>
</g>
<!-- repdroid -->
<g id="node6" class="node">
<title>repdroid</title>
<path fill="#d3d3d3" stroke="#d3d3d3" d="M374,-364.5C374,-364.5 432,-364.5 432,-364.5 438,-364.5 444,-370.5 444,-376.5 444,-376.5 444,-397.5 444,-397.5 444,-403.5 438,-409.5 432,-409.5 432,-409.5 374,-409.5 374,-409.5 368,-409.5 362,-403.5 362,-397.5 362,-397.5 362,-376.5 362,-376.5 362,-370.5 368,-364.5 374,-364.5"/>
<polygon fill="none" stroke="#d3d3d3" points="373,-371 373,-402 433,-402 433,-371 373,-371"/>
<text text-anchor="start" x="376" y="-388.8" font-family="Times,serif" font-size="14.00" fill="#000000">RepDroid</text>
<text text-anchor="start" x="380" y="-377.2" font-family="Arial" font-size="11.00" fill="#606060">[ICPC17]</text>
<polygon fill="none" stroke="#d3d3d3" points="370,-368.5 370,-405.5 436,-405.5 436,-368.5 370,-368.5"/>
</g>
<!-- needle&#45;&gt;repdroid -->
<g id="edge11" class="edge">
<title>needle&#45;&gt;repdroid</title>
<path fill="none" stroke="#000000" d="M403,-457.4873C403,-446.1479 403,-432.1878 403,-419.6911"/>
<polygon fill="#000000" stroke="#000000" points="406.5001,-419.6277 403,-409.6277 399.5001,-419.6278 406.5001,-419.6277"/>
</g>
<!-- thesis -->
<g id="node5" class="node">
<title>thesis</title>
<path fill="#d3d3d3" stroke="#d3d3d3" d="M660,-271.5C660,-271.5 754,-271.5 754,-271.5 760,-271.5 766,-277.5 766,-283.5 766,-283.5 766,-315.5 766,-315.5 766,-321.5 760,-327.5 754,-327.5 754,-327.5 660,-327.5 660,-327.5 654,-327.5 648,-321.5 648,-315.5 648,-315.5 648,-283.5 648,-283.5 648,-277.5 654,-271.5 660,-271.5"/>
<polygon fill="none" stroke="#d3d3d3" points="659,-278.5 659,-320.5 755,-320.5 755,-278.5 659,-278.5"/>
<text text-anchor="start" x="675" y="-307.3" font-family="Times,serif" font-size="14.00" fill="#000000">PhD Thesis</text>
<text text-anchor="start" x="673.5" y="-295.7" font-family="Arial" font-size="11.00" fill="#606060">Yanyan Jiang</text>
<text text-anchor="start" x="662" y="-284.7" font-family="Arial" font-size="11.00" fill="#606060">Nanjing University</text>
<polygon fill="none" stroke="#d3d3d3" points="656,-275.5 656,-323.5 758,-323.5 758,-275.5 656,-275.5"/>
</g>
<!-- thesis&#45;&gt;scs -->
<g id="edge12" class="edge">
<title>thesis&#45;&gt;scs</title>
<path fill="none" stroke="#000000" d="M726.4842,-271.3561C736.0721,-257.507 747.6554,-240.7756 757.5011,-226.5539"/>
<polygon fill="#000000" stroke="#000000" points="760.5591,-228.2856 763.3736,-218.0715 754.8038,-224.3011 760.5591,-228.2856"/>
</g>
<!-- lesdroid -->
<g id="node21" class="node">
<title>lesdroid</title>
<path fill="#d3d3d3" stroke="#d3d3d3" d="M372,-277C372,-277 432,-277 432,-277 438,-277 444,-283 444,-289 444,-289 444,-310 444,-310 444,-316 438,-322 432,-322 432,-322 372,-322 372,-322 366,-322 360,-316 360,-310 360,-310 360,-289 360,-289 360,-283 366,-277 372,-277"/>
<polygon fill="none" stroke="#d3d3d3" points="371,-283.5 371,-314.5 433,-314.5 433,-283.5 371,-283.5"/>
<text text-anchor="start" x="374" y="-301.3" font-family="Times,serif" font-size="14.00" fill="#000000">LESDroid</text>
<text text-anchor="start" x="379" y="-289.7" font-family="Arial" font-size="11.00" fill="#606060">[ICPC18]</text>
<polygon fill="none" stroke="#d3d3d3" points="368,-281 368,-318 436,-318 436,-281 368,-281"/>
</g>
<!-- repdroid&#45;&gt;lesdroid -->
<g id="edge8" class="edge">
<title>repdroid&#45;&gt;lesdroid</title>
<path fill="none" stroke="#000000" d="M402.7425,-364.4666C402.6314,-354.7445 402.4992,-343.178 402.3773,-332.5176"/>
<polygon fill="#000000" stroke="#000000" points="405.8743,-332.2205 402.2601,-322.2612 398.8747,-332.3006 405.8743,-332.2205"/>
</g>
<!-- gain -->
<g id="node7" class="node">
<title>gain</title>
<path fill="#d3d3d3" stroke="#d3d3d3" d="M1093.5,-32.5C1093.5,-32.5 1154.5,-32.5 1154.5,-32.5 1160.5,-32.5 1166.5,-38.5 1166.5,-44.5 1166.5,-44.5 1166.5,-76.5 1166.5,-76.5 1166.5,-82.5 1160.5,-88.5 1154.5,-88.5 1154.5,-88.5 1093.5,-88.5 1093.5,-88.5 1087.5,-88.5 1081.5,-82.5 1081.5,-76.5 1081.5,-76.5 1081.5,-44.5 1081.5,-44.5 1081.5,-38.5 1087.5,-32.5 1093.5,-32.5"/>
<polygon fill="none" stroke="#d3d3d3" points="1093,-39.5 1093,-81.5 1156,-81.5 1156,-39.5 1093,-39.5"/>
<text text-anchor="start" x="1107.5" y="-68.3" font-family="Times,serif" font-size="14.00" fill="#000000">GAIN</text>
<text text-anchor="start" x="1096" y="-56.7" font-family="Arial" font-size="11.00" fill="#606060">[APSEC14]</text>
<text text-anchor="start" x="1106.5" y="-45.7" font-family="Arial" font-size="11.00" fill="#606060">[IST16]</text>
<polygon fill="none" stroke="#d3d3d3" points="1089.5,-36.5 1089.5,-84.5 1158.5,-84.5 1158.5,-36.5 1089.5,-36.5"/>
</g>
<!-- survey -->
<g id="node8" class="node">
<title>survey</title>
<path fill="#d3d3d3" stroke="#d3d3d3" d="M685.5,-364.5C685.5,-364.5 728.5,-364.5 728.5,-364.5 734.5,-364.5 740.5,-370.5 740.5,-376.5 740.5,-376.5 740.5,-397.5 740.5,-397.5 740.5,-403.5 734.5,-409.5 728.5,-409.5 728.5,-409.5 685.5,-409.5 685.5,-409.5 679.5,-409.5 673.5,-403.5 673.5,-397.5 673.5,-397.5 673.5,-376.5 673.5,-376.5 673.5,-370.5 679.5,-364.5 685.5,-364.5"/>
<polygon fill="none" stroke="#d3d3d3" points="685,-371 685,-402 730,-402 730,-371 685,-371"/>
<text text-anchor="start" x="688" y="-388.8" font-family="Times,serif" font-size="14.00" fill="#000000">Survey</text>
<text text-anchor="start" x="688.5" y="-377.2" font-family="Arial" font-size="11.00" fill="#606060">[JoS17]</text>
<polygon fill="none" stroke="#d3d3d3" points="681.5,-368.5 681.5,-405.5 732.5,-405.5 732.5,-368.5 681.5,-368.5"/>
</g>
<!-- survey&#45;&gt;thesis -->
<g id="edge9" class="edge">
<title>survey&#45;&gt;thesis</title>
<path fill="none" stroke="#000000" d="M707,-364.4666C707,-356.2991 707,-346.8301 707,-337.6901"/>
<polygon fill="#000000" stroke="#000000" points="710.5001,-337.5974 707,-327.5975 703.5001,-337.5975 710.5001,-337.5974"/>
</g>
<!-- aatt -->
<g id="node9" class="node">
<title>aatt</title>
<path fill="#d3d3d3" stroke="#d3d3d3" d="M604.5,-167.5C604.5,-167.5 665.5,-167.5 665.5,-167.5 671.5,-167.5 677.5,-173.5 677.5,-179.5 677.5,-179.5 677.5,-211.5 677.5,-211.5 677.5,-217.5 671.5,-223.5 665.5,-223.5 665.5,-223.5 604.5,-223.5 604.5,-223.5 598.5,-223.5 592.5,-217.5 592.5,-211.5 592.5,-211.5 592.5,-179.5 592.5,-179.5 592.5,-173.5 598.5,-167.5 604.5,-167.5"/>
<polygon fill="none" stroke="#d3d3d3" points="604,-174.5 604,-216.5 667,-216.5 667,-174.5 604,-174.5"/>
<text text-anchor="start" x="617" y="-203.3" font-family="Times,serif" font-size="14.00" fill="#000000">AATT</text>
<text text-anchor="start" x="607" y="-191.7" font-family="Arial" font-size="11.00" fill="#606060">[APSEC16]</text>
<text text-anchor="start" x="614.5" y="-180.7" font-family="Arial" font-size="11.00" fill="#606060">[SCP18]</text>
<polygon fill="none" stroke="#d3d3d3" points="600.5,-171.5 600.5,-219.5 669.5,-219.5 669.5,-171.5 600.5,-171.5"/>
</g>
<!-- aatt&#45;&gt;thesis -->
<g id="edge14" class="edge">
<title>aatt&#45;&gt;thesis</title>
<path fill="none" stroke="#000000" d="M654.4998,-223.6664C662.9059,-235.8085 672.8435,-250.1629 681.7988,-263.0982"/>
<polygon fill="#000000" stroke="#000000" points="678.9459,-265.1264 687.5158,-271.3561 684.7013,-261.1419 678.9459,-265.1264"/>
</g>
<!-- android&#45;survey -->
<g id="node23" class="node">
<title>android&#45;survey</title>
<path fill="#d3d3d3" stroke="#d3d3d3" d="M352.5,-38C352.5,-38 401.5,-38 401.5,-38 407.5,-38 413.5,-44 413.5,-50 413.5,-50 413.5,-71 413.5,-71 413.5,-77 407.5,-83 401.5,-83 401.5,-83 352.5,-83 352.5,-83 346.5,-83 340.5,-77 340.5,-71 340.5,-71 340.5,-50 340.5,-50 340.5,-44 346.5,-38 352.5,-38"/>
<polygon fill="none" stroke="#d3d3d3" points="352,-44.5 352,-75.5 403,-75.5 403,-44.5 352,-44.5"/>
<text text-anchor="start" x="358" y="-62.3" font-family="Times,serif" font-size="14.00" fill="#000000">Survey</text>
<text text-anchor="start" x="355" y="-50.7" font-family="Arial" font-size="11.00" fill="#606060">[SCIS19]</text>
<polygon fill="none" stroke="#d3d3d3" points="348.5,-42 348.5,-79 405.5,-79 405.5,-42 348.5,-42"/>
</g>
<!-- aatt&#45;&gt;android&#45;survey -->
<g id="edge16" class="edge">
<title>aatt&#45;&gt;android&#45;survey</title>
<path fill="none" stroke="#000000" d="M592.3965,-173.2075C545.6052,-148.7237 470.7468,-109.5536 422.743,-84.4353"/>
<polygon fill="#000000" stroke="#000000" points="424.2939,-81.2967 413.8109,-79.7615 421.0485,-87.4989 424.2939,-81.2967"/>
</g>
<!-- c3 -->
<g id="node10" class="node">
<title>c3</title>
<path fill="#d3d3d3" stroke="#d3d3d3" d="M480,-364.5C480,-364.5 524,-364.5 524,-364.5 530,-364.5 536,-370.5 536,-376.5 536,-376.5 536,-397.5 536,-397.5 536,-403.5 530,-409.5 524,-409.5 524,-409.5 480,-409.5 480,-409.5 474,-409.5 468,-403.5 468,-397.5 468,-397.5 468,-376.5 468,-376.5 468,-370.5 474,-364.5 480,-364.5"/>
<polygon fill="none" stroke="#d3d3d3" points="479,-371 479,-402 525,-402 525,-371 479,-371"/>
<text text-anchor="start" x="494" y="-388.8" font-family="Times,serif" font-size="14.00" fill="#000000">C3</text>
<text text-anchor="start" x="482" y="-377.2" font-family="Arial" font-size="11.00" fill="#606060">[FSE16]</text>
<polygon fill="none" stroke="#d3d3d3" points="476,-368.5 476,-405.5 528,-405.5 528,-368.5 476,-368.5"/>
</g>
<!-- c3&#45;&gt;thesis -->
<g id="edge15" class="edge">
<title>c3&#45;&gt;thesis</title>
<path fill="none" stroke="#000000" d="M530.8822,-364.4771C535.4694,-361.4049 540.2657,-358.4654 545,-356 574.3137,-340.735 608.6498,-328.0886 638.1478,-318.6584"/>
<polygon fill="#000000" stroke="#000000" points="639.4569,-321.916 647.9517,-315.5845 637.3626,-315.2366 639.4569,-321.916"/>
</g>
<!-- gat -->
<g id="node11" class="node">
<title>gat</title>
<path fill="#d3d3d3" stroke="#d3d3d3" d="M287.5,-173C287.5,-173 348.5,-173 348.5,-173 354.5,-173 360.5,-179 360.5,-185 360.5,-185 360.5,-206 360.5,-206 360.5,-212 354.5,-218 348.5,-218 348.5,-218 287.5,-218 287.5,-218 281.5,-218 275.5,-212 275.5,-206 275.5,-206 275.5,-185 275.5,-185 275.5,-179 281.5,-173 287.5,-173"/>
<polygon fill="none" stroke="#d3d3d3" points="287,-179.5 287,-210.5 350,-210.5 350,-179.5 287,-179.5"/>
<text text-anchor="start" x="304.5" y="-197.3" font-family="Times,serif" font-size="14.00" fill="#000000">GAT</text>
<text text-anchor="start" x="290" y="-185.7" font-family="Arial" font-size="11.00" fill="#606060">[APSEC16]</text>
<polygon fill="none" stroke="#d3d3d3" points="283.5,-177 283.5,-214 352.5,-214 352.5,-177 283.5,-177"/>
</g>
<!-- gat&#45;&gt;android&#45;survey -->
<g id="edge17" class="edge">
<title>gat&#45;&gt;android&#45;survey</title>
<path fill="none" stroke="#000000" d="M327.8753,-172.904C337.49,-150.9041 352.1949,-117.2573 363.0116,-92.5075"/>
<polygon fill="#000000" stroke="#000000" points="366.2949,-93.7345 367.0925,-83.1697 359.8807,-90.9312 366.2949,-93.7345"/>
</g>
<!-- comedy -->
<g id="node12" class="node">
<title>comedy</title>
<path fill="#d3d3d3" stroke="#d3d3d3" d="M254,-457.5C254,-457.5 334,-457.5 334,-457.5 340,-457.5 346,-463.5 346,-469.5 346,-469.5 346,-490.5 346,-490.5 346,-496.5 340,-502.5 334,-502.5 334,-502.5 254,-502.5 254,-502.5 248,-502.5 242,-496.5 242,-490.5 242,-490.5 242,-469.5 242,-469.5 242,-463.5 248,-457.5 254,-457.5"/>
<polygon fill="none" stroke="#d3d3d3" points="253,-464 253,-495 335,-495 335,-464 253,-464"/>
<text text-anchor="start" x="270.5" y="-481.8" font-family="Times,serif" font-size="14.00" fill="#000000">Comedy</text>
<text text-anchor="start" x="256" y="-470.2" font-family="Arial" font-size="11.00" fill="#606060">[COMPSAC15]</text>
<polygon fill="none" stroke="#d3d3d3" points="250,-461.5 250,-498.5 338,-498.5 338,-461.5 250,-461.5"/>
</g>
<!-- bc -->
<g id="node15" class="node">
<title>bc</title>
<path fill="#d3d3d3" stroke="#d3d3d3" d="M738,-457.5C738,-457.5 814,-457.5 814,-457.5 820,-457.5 826,-463.5 826,-469.5 826,-469.5 826,-490.5 826,-490.5 826,-496.5 820,-502.5 814,-502.5 814,-502.5 738,-502.5 738,-502.5 732,-502.5 726,-496.5 726,-490.5 726,-490.5 726,-469.5 726,-469.5 726,-463.5 732,-457.5 738,-457.5"/>
<polygon fill="none" stroke="#d3d3d3" points="737,-464 737,-495 815,-495 815,-464 737,-464"/>
<text text-anchor="start" x="740" y="-481.8" font-family="Times,serif" font-size="14.00" fill="#000000">Bisect Coord</text>
<text text-anchor="start" x="756" y="-470.2" font-family="Arial" font-size="11.00" fill="#606060">[FSE16]</text>
<polygon fill="none" stroke="#d3d3d3" points="734,-461.5 734,-498.5 818,-498.5 818,-461.5 734,-461.5"/>
</g>
<!-- bc&#45;&gt;survey -->
<g id="edge7" class="edge">
<title>bc&#45;&gt;survey</title>
<path fill="none" stroke="#000000" d="M759.297,-457.4873C750.4633,-445.5809 739.4859,-430.7853 729.8725,-417.8281"/>
<polygon fill="#000000" stroke="#000000" points="732.5577,-415.5732 723.7883,-409.6277 726.936,-419.7442 732.5577,-415.5732"/>
</g>
<!-- att -->
<g id="node16" class="node">
<title>att</title>
<path fill="#d3d3d3" stroke="#d3d3d3" d="M246.5,-277C246.5,-277 329.5,-277 329.5,-277 335.5,-277 341.5,-283 341.5,-289 341.5,-289 341.5,-310 341.5,-310 341.5,-316 335.5,-322 329.5,-322 329.5,-322 246.5,-322 246.5,-322 240.5,-322 234.5,-316 234.5,-310 234.5,-310 234.5,-289 234.5,-289 234.5,-283 240.5,-277 246.5,-277"/>
<polygon fill="none" stroke="#d3d3d3" points="246,-283.5 246,-314.5 331,-314.5 331,-283.5 246,-283.5"/>
<text text-anchor="start" x="275" y="-301.3" font-family="Times,serif" font-size="14.00" fill="#000000">ATT</text>
<text text-anchor="start" x="249" y="-289.7" font-family="Arial" font-size="11.00" fill="#606060">[Internetware15]</text>
<polygon fill="none" stroke="#d3d3d3" points="242.5,-281 242.5,-318 333.5,-318 333.5,-281 242.5,-281"/>
</g>
<!-- att&#45;&gt;aatt -->
<g id="edge2" class="edge">
<title>att&#45;&gt;aatt</title>
<path fill="none" stroke="#000000" d="M320.7108,-276.8479C330.0996,-271.3938 340.6165,-266.2185 351,-263 395.7036,-249.1433 410.1169,-264.2283 456,-255 499.726,-246.2056 547.5901,-229.9279 582.8132,-216.6185"/>
<polygon fill="#000000" stroke="#000000" points="584.3092,-219.7937 592.3988,-212.952 581.8083,-213.2556 584.3092,-219.7937"/>
</g>
<!-- att&#45;&gt;gat -->
<g id="edge1" class="edge">
<title>att&#45;&gt;gat</title>
<path fill="none" stroke="#000000" d="M294.5096,-276.9335C298.6374,-262.6238 304.0442,-243.8799 308.63,-227.9828"/>
<polygon fill="#000000" stroke="#000000" points="312.0944,-228.6007 311.5032,-218.0224 305.3686,-226.6606 312.0944,-228.6007"/>
</g>
<!-- rwtrace -->
<g id="node17" class="node">
<title>rwtrace</title>
<path fill="#d3d3d3" stroke="#d3d3d3" d="M718,-542.5C718,-542.5 776,-542.5 776,-542.5 782,-542.5 788,-548.5 788,-554.5 788,-554.5 788,-575.5 788,-575.5 788,-581.5 782,-587.5 776,-587.5 776,-587.5 718,-587.5 718,-587.5 712,-587.5 706,-581.5 706,-575.5 706,-575.5 706,-554.5 706,-554.5 706,-548.5 712,-542.5 718,-542.5"/>
<polygon fill="none" stroke="#d3d3d3" points="717,-549 717,-580 777,-580 777,-549 717,-549"/>
<text text-anchor="start" x="720" y="-566.8" font-family="Times,serif" font-size="14.00" fill="#000000">RWTrace</text>
<text text-anchor="start" x="726.5" y="-555.2" font-family="Arial" font-size="11.00" fill="#606060">[ASE15]</text>
<polygon fill="none" stroke="#d3d3d3" points="714,-546.5 714,-583.5 780,-583.5 780,-546.5 714,-546.5"/>
</g>
<!-- rwtrace&#45;&gt;survey -->
<g id="edge6" class="edge">
<title>rwtrace&#45;&gt;survey</title>
<path fill="none" stroke="#000000" d="M721.8372,-542.2548C719.9445,-539.6396 718.2782,-536.8742 717,-534 700.728,-497.4118 700.6173,-450.6033 702.9872,-419.7553"/>
<polygon fill="#000000" stroke="#000000" points="706.4949,-419.8262 703.9066,-409.5525 699.5232,-419.198 706.4949,-419.8262"/>
</g>
<!-- rwtrace&#45;&gt;bc -->
<g id="edge4" class="edge">
<title>rwtrace&#45;&gt;bc</title>
<path fill="none" stroke="#000000" d="M754.7715,-542.2216C757.9173,-533.0011 761.606,-522.1893 765.0181,-512.1883"/>
<polygon fill="#000000" stroke="#000000" points="768.3911,-513.1411 768.3076,-502.5466 761.766,-510.8807 768.3911,-513.1411"/>
</g>
<!-- cosedroid -->
<g id="node18" class="node">
<title>cosedroid</title>
<path fill="#d3d3d3" stroke="#d3d3d3" d="M252,-364.5C252,-364.5 332,-364.5 332,-364.5 338,-364.5 344,-370.5 344,-376.5 344,-376.5 344,-397.5 344,-397.5 344,-403.5 338,-409.5 332,-409.5 332,-409.5 252,-409.5 252,-409.5 246,-409.5 240,-403.5 240,-397.5 240,-397.5 240,-376.5 240,-376.5 240,-370.5 246,-364.5 252,-364.5"/>
<polygon fill="none" stroke="#d3d3d3" points="251,-371 251,-402 333,-402 333,-371 251,-371"/>
<text text-anchor="start" x="262.5" y="-388.8" font-family="Times,serif" font-size="14.00" fill="#000000">CoseDroid</text>
<text text-anchor="start" x="254" y="-377.2" font-family="Arial" font-size="11.00" fill="#606060">[COMPSAC14]</text>
<polygon fill="none" stroke="#d3d3d3" points="248,-368.5 248,-405.5 336,-405.5 336,-368.5 248,-368.5"/>
</g>
<!-- cosedroid&#45;&gt;att -->
<g id="edge13" class="edge">
<title>cosedroid&#45;&gt;att</title>
<path fill="none" stroke="#000000" d="M290.9699,-364.4666C290.5255,-354.7445 289.9967,-343.178 289.5094,-332.5176"/>
<polygon fill="#000000" stroke="#000000" points="292.9936,-332.0909 289.0405,-322.2612 286.0009,-332.4106 292.9936,-332.0909"/>
</g>
<!-- care -->
<g id="node19" class="node">
<title>care</title>
<path fill="#d3d3d3" stroke="#d3d3d3" d="M692.5,-624.5C692.5,-624.5 741.5,-624.5 741.5,-624.5 747.5,-624.5 753.5,-630.5 753.5,-636.5 753.5,-636.5 753.5,-657.5 753.5,-657.5 753.5,-663.5 747.5,-669.5 741.5,-669.5 741.5,-669.5 692.5,-669.5 692.5,-669.5 686.5,-669.5 680.5,-663.5 680.5,-657.5 680.5,-657.5 680.5,-636.5 680.5,-636.5 680.5,-630.5 686.5,-624.5 692.5,-624.5"/>
<polygon fill="none" stroke="#d3d3d3" points="692,-631 692,-662 743,-662 743,-631 692,-631"/>
<text text-anchor="start" x="699" y="-648.8" font-family="Times,serif" font-size="14.00" fill="#000000">CARE</text>
<text text-anchor="start" x="695" y="-637.2" font-family="Arial" font-size="11.00" fill="#606060">[ICSE14]</text>
<polygon fill="none" stroke="#d3d3d3" points="688.5,-628.5 688.5,-665.5 745.5,-665.5 745.5,-628.5 688.5,-628.5"/>
</g>
<!-- care&#45;&gt;survey -->
<g id="edge5" class="edge">
<title>care&#45;&gt;survey</title>
<path fill="none" stroke="#000000" d="M707.4292,-624.4703C703.3389,-613.6535 699.0411,-600.3789 697,-588 686.9496,-527.0452 692.0657,-510.5804 697,-449 697.7738,-439.3426 699.2153,-428.9196 700.7677,-419.4259"/>
<polygon fill="#000000" stroke="#000000" points="704.217,-420.019 702.4693,-409.5693 697.319,-418.8281 704.217,-420.019"/>
</g>
<!-- care&#45;&gt;rwtrace -->
<g id="edge3" class="edge">
<title>care&#45;&gt;rwtrace</title>
<path fill="none" stroke="#000000" d="M725.3567,-624.1584C728.4124,-615.8061 731.9291,-606.1939 735.2272,-597.179"/>
<polygon fill="#000000" stroke="#000000" points="738.5392,-598.3129 738.6881,-587.7191 731.9653,-595.9078 738.5392,-598.3129"/>
</g>
<!-- uga -->
<g id="node20" class="node">
<title>uga</title>
<path fill="#d3d3d3" stroke="#d3d3d3" d="M148.5,-364.5C148.5,-364.5 209.5,-364.5 209.5,-364.5 215.5,-364.5 221.5,-370.5 221.5,-376.5 221.5,-376.5 221.5,-397.5 221.5,-397.5 221.5,-403.5 215.5,-409.5 209.5,-409.5 209.5,-409.5 148.5,-409.5 148.5,-409.5 142.5,-409.5 136.5,-403.5 136.5,-397.5 136.5,-397.5 136.5,-376.5 136.5,-376.5 136.5,-370.5 142.5,-364.5 148.5,-364.5"/>
<polygon fill="none" stroke="#d3d3d3" points="148,-371 148,-402 211,-402 211,-371 148,-371"/>
<text text-anchor="start" x="164.5" y="-388.8" font-family="Times,serif" font-size="14.00" fill="#000000">UGA</text>
<text text-anchor="start" x="151" y="-377.2" font-family="Arial" font-size="11.00" fill="#606060">[APSEC14]</text>
<polygon fill="none" stroke="#d3d3d3" points="144.5,-368.5 144.5,-405.5 213.5,-405.5 213.5,-368.5 144.5,-368.5"/>
</g>
<!-- uga&#45;&gt;att -->
<g id="edge10" class="edge">
<title>uga&#45;&gt;att</title>
<path fill="none" stroke="#000000" d="M207.0702,-364.4666C220.6951,-353.5292 237.2277,-340.2576 251.7898,-328.5679"/>
<polygon fill="#000000" stroke="#000000" points="254.0389,-331.2506 259.6461,-322.2612 249.6568,-325.7919 254.0389,-331.2506"/>
</g>
<!-- tapir -->
<g id="node22" class="node">
<title>tapir</title>
<path fill="#d3d3d3" stroke="#d3d3d3" d="M44,-364.5C44,-364.5 106,-364.5 106,-364.5 112,-364.5 118,-370.5 118,-376.5 118,-376.5 118,-397.5 118,-397.5 118,-403.5 112,-409.5 106,-409.5 106,-409.5 44,-409.5 44,-409.5 38,-409.5 32,-403.5 32,-397.5 32,-397.5 32,-376.5 32,-376.5 32,-370.5 38,-364.5 44,-364.5"/>
<polygon fill="none" stroke="#d3d3d3" points="43,-371 43,-402 107,-402 107,-371 43,-371"/>
<text text-anchor="start" x="55" y="-388.8" font-family="Times,serif" font-size="14.00" fill="#000000">TAPIR</text>
<text text-anchor="start" x="46" y="-377.2" font-family="Arial" font-size="11.00" fill="#606060">[SANER19]</text>
<polygon fill="none" stroke="#d3d3d3" points="40,-368.5 40,-405.5 110,-405.5 110,-368.5 40,-368.5"/>
</g>
<!-- test&#45;survey -->
<g id="node24" class="node">
<title>test&#45;survey</title>
<path fill="#d3d3d3" stroke="#d3d3d3" d="M305.5,-624.5C305.5,-624.5 350.5,-624.5 350.5,-624.5 356.5,-624.5 362.5,-630.5 362.5,-636.5 362.5,-636.5 362.5,-657.5 362.5,-657.5 362.5,-663.5 356.5,-669.5 350.5,-669.5 350.5,-669.5 305.5,-669.5 305.5,-669.5 299.5,-669.5 293.5,-663.5 293.5,-657.5 293.5,-657.5 293.5,-636.5 293.5,-636.5 293.5,-630.5 299.5,-624.5 305.5,-624.5"/>
<polygon fill="none" stroke="#d3d3d3" points="305,-631 305,-662 352,-662 352,-631 305,-631"/>
<text text-anchor="start" x="309" y="-648.8" font-family="Times,serif" font-size="14.00" fill="#000000">Survey</text>
<text text-anchor="start" x="308" y="-637.2" font-family="Arial" font-size="11.00" fill="#606060">[FCS19]</text>
<polygon fill="none" stroke="#d3d3d3" points="301.5,-628.5 301.5,-665.5 354.5,-665.5 354.5,-628.5 301.5,-628.5"/>
</g>
</g>
</svg>
