<?xml version="1.0" encoding="UTF-8" standalone="no"?>
<!DOCTYPE svg PUBLIC "-//W3C//DTD SVG 1.1//EN"
 "http://www.w3.org/Graphics/SVG/1.1/DTD/svg11.dtd">
<!-- Generated by graphviz version 2.40.1 (20161225.0304)
 -->
<!-- Title: G Pages: 1 -->
<svg width="1625pt" height="793pt"
 viewBox="0.00 0.00 1625.00 792.79" xmlns="http://www.w3.org/2000/svg" xmlns:xlink="http://www.w3.org/1999/xlink">
<g id="graph0" class="graph" transform="scale(1 1) rotate(0) translate(4 788.7891)">
<title>G</title>
<polygon fill="#ffffff" stroke="transparent" points="-4,4 -4,-788.7891 1621,-788.7891 1621,4 -4,4"/>
<g id="clust1" class="cluster">
<title>cluster_subG</title>
<polygon fill="none" stroke="#000000" points="8,-8 8,-776.7891 1609,-776.7891 1609,-8 8,-8"/>
</g>
<g id="clust2" class="cluster">
<title>cluster_sta</title>
<polygon fill="none" stroke="#000000" points="16,-16 16,-768.7891 1601,-768.7891 1601,-16 16,-16"/>
<text text-anchor="middle" x="808.5" y="-753.5891" font-family="Arial" font-size="14.00" fill="#000000">Software Testing, Analysis, and Synthesis</text>
</g>
<g id="clust3" class="cluster">
<title>cluster_os</title>
<polygon fill="none" stroke="#000000" points="930,-169.1973 930,-386.9932 1065,-386.9932 1065,-169.1973 930,-169.1973"/>
<text text-anchor="middle" x="997.5" y="-371.7932" font-family="Arial" font-size="14.00" fill="#000000">Operating Systems</text>
</g>
<g id="clust4" class="cluster">
<title>cluster_synthesis</title>
<polygon fill="none" stroke="#000000" points="930,-24 930,-161.1973 1384,-161.1973 1384,-24 930,-24"/>
<text text-anchor="middle" x="1157" y="-145.9973" font-family="Arial" font-size="14.00" fill="#000000">Program Synthesis</text>
</g>
<g id="clust5" class="cluster">
<title>cluster_dsl</title>
<polygon fill="none" stroke="#000000" points="1192,-37.5 1192,-123.5986 1376,-123.5986 1376,-37.5 1192,-37.5"/>
<text text-anchor="middle" x="1284" y="-108.3986" font-family="Arial" font-size="14.00" fill="#000000">Domain&#45;Specific Language</text>
</g>
<g id="clust6" class="cluster">
<title>cluster_transformer</title>
<polygon fill="none" stroke="#000000" points="938,-32 938,-129.0986 1184,-129.0986 1184,-32 938,-32"/>
<text text-anchor="middle" x="1061" y="-113.8986" font-family="Arial" font-size="14.00" fill="#000000">Transformers</text>
</g>
<g id="clust7" class="cluster">
<title>cluster_system</title>
<polygon fill="none" stroke="#000000" points="573,-29.5 573,-287.3945 922,-287.3945 922,-29.5 573,-29.5"/>
<text text-anchor="middle" x="747.5" y="-272.1945" font-family="Arial" font-size="14.00" fill="#000000">System Software</text>
</g>
<g id="clust8" class="cluster">
<title>cluster_concurrent</title>
<polygon fill="none" stroke="#000000" points="723,-37.5 723,-255.2959 914,-255.2959 914,-37.5 723,-37.5"/>
<text text-anchor="middle" x="818.5" y="-240.0959" font-family="Arial" font-size="14.00" fill="#000000">Parallel/Distributed Systems</text>
</g>
<g id="clust9" class="cluster">
<title>cluster_compiler</title>
<polygon fill="none" stroke="#000000" points="581,-169.1973 581,-255.2959 715,-255.2959 715,-169.1973 581,-169.1973"/>
<text text-anchor="middle" x="648" y="-240.0959" font-family="Arial" font-size="14.00" fill="#000000">Compiler Toolchain</text>
</g>
<g id="clust11" class="cluster">
<title>cluster_analysis</title>
<polygon fill="none" stroke="#000000" points="24,-394.9932 24,-481.0918 236,-481.0918 236,-394.9932 24,-394.9932"/>
<text text-anchor="middle" x="130" y="-465.8918" font-family="Arial" font-size="14.00" fill="#000000">Software Analysis</text>
</g>
<g id="clust12" class="cluster">
<title>cluster_smd</title>
<polygon fill="none" stroke="#000000" points="597,-295.3945 597,-736.6904 897,-736.6904 897,-295.3945 597,-295.3945"/>
<text text-anchor="middle" x="747" y="-721.4904" font-family="Arial" font-size="14.00" fill="#000000">Understanding Shared Memory Dependences</text>
</g>
<g id="clust13" class="cluster">
<title>cluster_mobile</title>
<polygon fill="none" stroke="#000000" points="244,-169.1973 244,-650.5918 565,-650.5918 565,-169.1973 244,-169.1973"/>
<text text-anchor="middle" x="404.5" y="-635.3918" font-family="Arial" font-size="14.00" fill="#000000">Mobile Apps</text>
</g>
<g id="clust14" class="cluster">
<title>cluster_tech</title>
<polygon fill="none" stroke="#000000" points="1392,-32 1392,-129.0986 1593,-129.0986 1593,-32 1392,-32"/>
<text text-anchor="middle" x="1492.5" y="-113.8986" font-family="Arial" font-size="14.00" fill="#000000">Fun and Profits</text>
</g>
<!-- rescue -->
<g id="node1" class="node">
<title>rescue</title>
<path fill="#d3d3d3" stroke="#d3d3d3" d="M1261,-46C1261,-46 1307,-46 1307,-46 1313,-46 1319,-52 1319,-58 1319,-58 1319,-79 1319,-79 1319,-85 1313,-91 1307,-91 1307,-91 1261,-91 1261,-91 1255,-91 1249,-85 1249,-79 1249,-79 1249,-58 1249,-58 1249,-52 1255,-46 1261,-46"/>
<polygon fill="none" stroke="#d3d3d3" points="1260,-52.5 1260,-83.5 1308,-83.5 1308,-52.5 1260,-52.5"/>
<text text-anchor="start" x="1262.6172" y="-70.3" font-family="Times,serif" font-size="14.00" fill="#000000">ReScue</text>
<text text-anchor="start" x="1263.8208" y="-58.7" font-family="Arial" font-size="11.00" fill="#606060">[ASE18]</text>
<polygon fill="none" stroke="#d3d3d3" points="1257,-50 1257,-87 1311,-87 1311,-50 1257,-50"/>
</g>
<!-- scs -->
<g id="node2" class="node">
<title>scs</title>
<path fill="#d3d3d3" stroke="#d3d3d3" d="M764.5,-177.6973C764.5,-177.6973 807.5,-177.6973 807.5,-177.6973 813.5,-177.6973 819.5,-183.6973 819.5,-189.6973 819.5,-189.6973 819.5,-210.6973 819.5,-210.6973 819.5,-216.6973 813.5,-222.6973 807.5,-222.6973 807.5,-222.6973 764.5,-222.6973 764.5,-222.6973 758.5,-222.6973 752.5,-216.6973 752.5,-210.6973 752.5,-210.6973 752.5,-189.6973 752.5,-189.6973 752.5,-183.6973 758.5,-177.6973 764.5,-177.6973"/>
<polygon fill="none" stroke="#d3d3d3" points="764,-184.1973 764,-215.1973 809,-215.1973 809,-184.1973 764,-184.1973"/>
<text text-anchor="start" x="774.0449" y="-201.9973" font-family="Times,serif" font-size="14.00" fill="#000000">SCS</text>
<text text-anchor="start" x="766.6296" y="-190.3973" font-family="Arial" font-size="11.00" fill="#606060">[FSE18]</text>
<polygon fill="none" stroke="#d3d3d3" points="760.5,-181.6973 760.5,-218.6973 811.5,-218.6973 811.5,-181.6973 760.5,-181.6973"/>
</g>
<!-- abc -->
<g id="node13" class="node">
<title>abc</title>
<path fill="#d3d3d3" stroke="#d3d3d3" d="M1412.5,-46C1412.5,-46 1471.5,-46 1471.5,-46 1477.5,-46 1483.5,-52 1483.5,-58 1483.5,-58 1483.5,-79 1483.5,-79 1483.5,-85 1477.5,-91 1471.5,-91 1471.5,-91 1412.5,-91 1412.5,-91 1406.5,-91 1400.5,-85 1400.5,-79 1400.5,-79 1400.5,-58 1400.5,-58 1400.5,-52 1406.5,-46 1412.5,-46"/>
<polygon fill="none" stroke="#d3d3d3" points="1412,-52.5 1412,-83.5 1473,-83.5 1473,-52.5 1412,-52.5"/>
<text text-anchor="start" x="1428.1069" y="-70.3" font-family="Times,serif" font-size="14.00" fill="#000000">ABC</text>
<text text-anchor="start" x="1414.6804" y="-58.7" font-family="Arial" font-size="11.00" fill="#606060">[APSEC15]</text>
<polygon fill="none" stroke="#d3d3d3" points="1408.5,-50 1408.5,-87 1475.5,-87 1475.5,-50 1408.5,-50"/>
</g>
<!-- scs&#45;&gt;abc -->
<!-- enter -->
<g id="node14" class="node">
<title>enter</title>
<path fill="#d3d3d3" stroke="#d3d3d3" d="M958,-46C958,-46 1040,-46 1040,-46 1046,-46 1052,-52 1052,-58 1052,-58 1052,-79 1052,-79 1052,-85 1046,-91 1040,-91 1040,-91 958,-91 958,-91 952,-91 946,-85 946,-79 946,-79 946,-58 946,-58 946,-52 952,-46 958,-46"/>
<polygon fill="none" stroke="#d3d3d3" points="957,-52.5 957,-83.5 1041,-83.5 1041,-52.5 957,-52.5"/>
<text text-anchor="start" x="976.4482" y="-70.3" font-family="Times,serif" font-size="14.00" fill="#000000">ENTER</text>
<text text-anchor="start" x="959.5654" y="-58.7" font-family="Arial" font-size="11.00" fill="#606060">[ICSE18 Poster]</text>
<polygon fill="none" stroke="#d3d3d3" points="954,-50 954,-87 1044,-87 1044,-50 954,-50"/>
</g>
<!-- scs&#45;&gt;enter -->
<!-- dogfood -->
<g id="node16" class="node">
<title>dogfood</title>
<path fill="#d3d3d3" stroke="#d3d3d3" d="M950.5,-177.6973C950.5,-177.6973 1003.5,-177.6973 1003.5,-177.6973 1009.5,-177.6973 1015.5,-183.6973 1015.5,-189.6973 1015.5,-189.6973 1015.5,-210.6973 1015.5,-210.6973 1015.5,-216.6973 1009.5,-222.6973 1003.5,-222.6973 1003.5,-222.6973 950.5,-222.6973 950.5,-222.6973 944.5,-222.6973 938.5,-216.6973 938.5,-210.6973 938.5,-210.6973 938.5,-189.6973 938.5,-189.6973 938.5,-183.6973 944.5,-177.6973 950.5,-177.6973"/>
<polygon fill="none" stroke="#d3d3d3" points="950,-184.1973 950,-215.1973 1005,-215.1973 1005,-184.1973 950,-184.1973"/>
<text text-anchor="start" x="952.6138" y="-201.9973" font-family="Times,serif" font-size="14.00" fill="#000000">Dogfood</text>
<text text-anchor="start" x="955.4893" y="-190.3973" font-family="Arial" font-size="11.00" fill="#606060">[ICSE20]</text>
<polygon fill="none" stroke="#d3d3d3" points="946.5,-181.6973 946.5,-218.6973 1007.5,-218.6973 1007.5,-181.6973 946.5,-181.6973"/>
</g>
<!-- scs&#45;&gt;dogfood -->
<g id="edge20" class="edge">
<title>scs&#45;&gt;dogfood</title>
<path fill="none" stroke="#000000" d="M789.5914,-222.8641C795.0132,-247.7492 808.0477,-285.0382 838,-291.3945 855.4122,-295.0897 904.3524,-298.8218 918,-287.3945 936.1397,-272.2061 951.0192,-250.0849 961.2979,-231.9245"/>
<polygon fill="#000000" stroke="#000000" points="964.5332,-233.302 966.2465,-222.8466 958.3871,-229.9515 964.5332,-233.302"/>
</g>
<!-- contest&#45;survey -->
<g id="node19" class="node">
<title>contest&#45;survey</title>
<path fill="#d3d3d3" stroke="#d3d3d3" d="M754,-46C754,-46 798,-46 798,-46 804,-46 810,-52 810,-58 810,-58 810,-79 810,-79 810,-85 804,-91 798,-91 798,-91 754,-91 754,-91 748,-91 742,-85 742,-79 742,-79 742,-58 742,-58 742,-52 748,-46 754,-46"/>
<polygon fill="none" stroke="#d3d3d3" points="753,-52.5 753,-83.5 799,-83.5 799,-52.5 753,-52.5"/>
<text text-anchor="start" x="756.1689" y="-70.3" font-family="Times,serif" font-size="14.00" fill="#000000">Survey</text>
<text text-anchor="start" x="755.8262" y="-58.7" font-family="Arial" font-size="11.00" fill="#606060">[FCS20]</text>
<polygon fill="none" stroke="#d3d3d3" points="750,-50 750,-87 802,-87 802,-50 750,-50"/>
</g>
<!-- scs&#45;&gt;contest&#45;survey -->
<g id="edge23" class="edge">
<title>scs&#45;&gt;contest&#45;survey</title>
<path fill="none" stroke="#000000" d="M784.2809,-177.5577C782.6854,-156.545 780.2918,-125.0223 778.4878,-101.2633"/>
<polygon fill="#000000" stroke="#000000" points="781.9773,-100.9911 777.7301,-91.2849 774.9974,-101.5212 781.9773,-100.9911"/>
</g>
<!-- aotes -->
<g id="node3" class="node">
<title>aotes</title>
<path fill="#d3d3d3" stroke="#d3d3d3" d="M1082,-40.5C1082,-40.5 1164,-40.5 1164,-40.5 1170,-40.5 1176,-46.5 1176,-52.5 1176,-52.5 1176,-84.5 1176,-84.5 1176,-90.5 1170,-96.5 1164,-96.5 1164,-96.5 1082,-96.5 1082,-96.5 1076,-96.5 1070,-90.5 1070,-84.5 1070,-84.5 1070,-52.5 1070,-52.5 1070,-46.5 1076,-40.5 1082,-40.5"/>
<polygon fill="none" stroke="#d3d3d3" points="1081,-47.5 1081,-89.5 1165,-89.5 1165,-47.5 1081,-47.5"/>
<text text-anchor="start" x="1100.4448" y="-76.3" font-family="Times,serif" font-size="14.00" fill="#000000">AOTES</text>
<text text-anchor="start" x="1083.5654" y="-64.7" font-family="Arial" font-size="11.00" fill="#606060">[ICSE17 Poster]</text>
<text text-anchor="start" x="1093.9612" y="-53.7" font-family="Arial" font-size="11.00" fill="#606060">[ECOOP18]</text>
<polygon fill="none" stroke="#d3d3d3" points="1078,-44.5 1078,-92.5 1168,-92.5 1168,-44.5 1078,-44.5"/>
</g>
<!-- needle -->
<g id="node4" class="node">
<title>needle</title>
<path fill="#d3d3d3" stroke="#d3d3d3" d="M164,-403.4932C164,-403.4932 216,-403.4932 216,-403.4932 222,-403.4932 228,-409.4932 228,-415.4932 228,-415.4932 228,-436.4932 228,-436.4932 228,-442.4932 222,-448.4932 216,-448.4932 216,-448.4932 164,-448.4932 164,-448.4932 158,-448.4932 152,-442.4932 152,-436.4932 152,-436.4932 152,-415.4932 152,-415.4932 152,-409.4932 158,-403.4932 164,-403.4932"/>
<polygon fill="none" stroke="#d3d3d3" points="163,-409.9932 163,-440.9932 217,-440.9932 217,-409.9932 163,-409.9932"/>
<text text-anchor="start" x="170.1792" y="-427.7932" font-family="Times,serif" font-size="14.00" fill="#000000">Needle</text>
<text text-anchor="start" x="165.5508" y="-416.1932" font-family="Arial" font-size="11.00" fill="#606060">[TURC18]</text>
<polygon fill="none" stroke="#d3d3d3" points="160,-407.4932 160,-444.4932 220,-444.4932 220,-407.4932 160,-407.4932"/>
</g>
<!-- repdroid -->
<g id="node11" class="node">
<title>repdroid</title>
<path fill="#d3d3d3" stroke="#d3d3d3" d="M264.5,-309.3945C264.5,-309.3945 323.5,-309.3945 323.5,-309.3945 329.5,-309.3945 335.5,-315.3945 335.5,-321.3945 335.5,-321.3945 335.5,-342.3945 335.5,-342.3945 335.5,-348.3945 329.5,-354.3945 323.5,-354.3945 323.5,-354.3945 264.5,-354.3945 264.5,-354.3945 258.5,-354.3945 252.5,-348.3945 252.5,-342.3945 252.5,-342.3945 252.5,-321.3945 252.5,-321.3945 252.5,-315.3945 258.5,-309.3945 264.5,-309.3945"/>
<polygon fill="none" stroke="#d3d3d3" points="264,-315.8945 264,-346.8945 325,-346.8945 325,-315.8945 264,-315.8945"/>
<text text-anchor="start" x="266.8931" y="-333.6945" font-family="Times,serif" font-size="14.00" fill="#000000">RepDroid</text>
<text text-anchor="start" x="272.1858" y="-322.0945" font-family="Arial" font-size="11.00" fill="#606060">[ICPC17]</text>
<polygon fill="none" stroke="#d3d3d3" points="260.5,-313.3945 260.5,-350.3945 327.5,-350.3945 327.5,-313.3945 260.5,-313.3945"/>
</g>
<!-- needle&#45;&gt;repdroid -->
<g id="edge11" class="edge">
<title>needle&#45;&gt;repdroid</title>
<path fill="none" stroke="#000000" d="M214.9106,-403.4542C228.8296,-390.8604 246.3412,-375.0159 261.3463,-361.4394"/>
<polygon fill="#000000" stroke="#000000" points="263.8652,-363.8804 268.9322,-354.5757 259.1687,-358.6897 263.8652,-363.8804"/>
</g>
<!-- thesis -->
<g id="node5" class="node">
<title>thesis</title>
<path fill="#d3d3d3" stroke="#d3d3d3" d="M669,-303.8945C669,-303.8945 761,-303.8945 761,-303.8945 767,-303.8945 773,-309.8945 773,-315.8945 773,-315.8945 773,-347.8945 773,-347.8945 773,-353.8945 767,-359.8945 761,-359.8945 761,-359.8945 669,-359.8945 669,-359.8945 663,-359.8945 657,-353.8945 657,-347.8945 657,-347.8945 657,-315.8945 657,-315.8945 657,-309.8945 663,-303.8945 669,-303.8945"/>
<polygon fill="none" stroke="#d3d3d3" points="668,-310.8945 668,-352.8945 762,-352.8945 762,-310.8945 668,-310.8945"/>
<text text-anchor="start" x="682.6489" y="-339.6945" font-family="Times,serif" font-size="14.00" fill="#000000">PhD Thesis</text>
<text text-anchor="start" x="682.0779" y="-328.0945" font-family="Arial" font-size="11.00" fill="#606060">Yanyan Jiang</text>
<text text-anchor="start" x="670.6777" y="-317.0945" font-family="Arial" font-size="11.00" fill="#606060">Nanjing University</text>
<polygon fill="none" stroke="#d3d3d3" points="665,-307.8945 665,-355.8945 765,-355.8945 765,-307.8945 665,-307.8945"/>
</g>
<!-- thesis&#45;&gt;scs -->
<g id="edge12" class="edge">
<title>thesis&#45;&gt;scs</title>
<path fill="none" stroke="#000000" d="M730.2313,-303.6422C741.6403,-282.4797 757.2495,-253.5262 769.0529,-231.6322"/>
<polygon fill="#000000" stroke="#000000" points="772.1905,-233.1878 773.8552,-222.7246 766.0289,-229.866 772.1905,-233.1878"/>
</g>
<!-- aatt -->
<g id="node6" class="node">
<title>aatt</title>
<path fill="#d3d3d3" stroke="#d3d3d3" d="M485.5,-397.9932C485.5,-397.9932 544.5,-397.9932 544.5,-397.9932 550.5,-397.9932 556.5,-403.9932 556.5,-409.9932 556.5,-409.9932 556.5,-441.9932 556.5,-441.9932 556.5,-447.9932 550.5,-453.9932 544.5,-453.9932 544.5,-453.9932 485.5,-453.9932 485.5,-453.9932 479.5,-453.9932 473.5,-447.9932 473.5,-441.9932 473.5,-441.9932 473.5,-409.9932 473.5,-409.9932 473.5,-403.9932 479.5,-397.9932 485.5,-397.9932"/>
<polygon fill="none" stroke="#d3d3d3" points="485,-404.9932 485,-446.9932 546,-446.9932 546,-404.9932 485,-404.9932"/>
<text text-anchor="start" x="497.6138" y="-433.7932" font-family="Times,serif" font-size="14.00" fill="#000000">AATT</text>
<text text-anchor="start" x="487.6804" y="-422.1932" font-family="Arial" font-size="11.00" fill="#606060">[APSEC16]</text>
<text text-anchor="start" x="495.0173" y="-411.1932" font-family="Arial" font-size="11.00" fill="#606060">[SCP18]</text>
<polygon fill="none" stroke="#d3d3d3" points="481.5,-401.9932 481.5,-449.9932 548.5,-449.9932 548.5,-401.9932 481.5,-401.9932"/>
</g>
<!-- aatt&#45;&gt;thesis -->
<g id="edge14" class="edge">
<title>aatt&#45;&gt;thesis</title>
<path fill="none" stroke="#000000" d="M556.9266,-406.267C583.1893,-393.9106 617.6301,-377.7064 647.6578,-363.5786"/>
<polygon fill="#000000" stroke="#000000" points="649.2626,-366.6916 656.8211,-359.2673 646.2825,-360.3576 649.2626,-366.6916"/>
</g>
<!-- android&#45;survey -->
<g id="node27" class="node">
<title>android&#45;survey</title>
<path fill="#d3d3d3" stroke="#d3d3d3" d="M390,-309.3945C390,-309.3945 438,-309.3945 438,-309.3945 444,-309.3945 450,-315.3945 450,-321.3945 450,-321.3945 450,-342.3945 450,-342.3945 450,-348.3945 444,-354.3945 438,-354.3945 438,-354.3945 390,-354.3945 390,-354.3945 384,-354.3945 378,-348.3945 378,-342.3945 378,-342.3945 378,-321.3945 378,-321.3945 378,-315.3945 384,-309.3945 390,-309.3945"/>
<polygon fill="none" stroke="#d3d3d3" points="389,-315.8945 389,-346.8945 439,-346.8945 439,-315.8945 389,-315.8945"/>
<text text-anchor="start" x="394.1689" y="-333.6945" font-family="Times,serif" font-size="14.00" fill="#000000">Survey</text>
<text text-anchor="start" x="391.9893" y="-322.0945" font-family="Arial" font-size="11.00" fill="#606060">[SCIS19]</text>
<polygon fill="none" stroke="#d3d3d3" points="386,-313.3945 386,-350.3945 442,-350.3945 442,-313.3945 386,-313.3945"/>
</g>
<!-- aatt&#45;&gt;android&#45;survey -->
<g id="edge15" class="edge">
<title>aatt&#45;&gt;android&#45;survey</title>
<path fill="none" stroke="#000000" d="M484.6967,-397.7605C472.3782,-386.2838 458.1402,-373.0186 445.6842,-361.4138"/>
<polygon fill="#000000" stroke="#000000" points="447.8945,-358.6894 438.192,-354.4335 443.1228,-363.811 447.8945,-358.6894"/>
</g>
<!-- c3 -->
<g id="node7" class="node">
<title>c3</title>
<path fill="#d3d3d3" stroke="#d3d3d3" d="M952.5,-309.3945C952.5,-309.3945 995.5,-309.3945 995.5,-309.3945 1001.5,-309.3945 1007.5,-315.3945 1007.5,-321.3945 1007.5,-321.3945 1007.5,-342.3945 1007.5,-342.3945 1007.5,-348.3945 1001.5,-354.3945 995.5,-354.3945 995.5,-354.3945 952.5,-354.3945 952.5,-354.3945 946.5,-354.3945 940.5,-348.3945 940.5,-342.3945 940.5,-342.3945 940.5,-321.3945 940.5,-321.3945 940.5,-315.3945 946.5,-309.3945 952.5,-309.3945"/>
<polygon fill="none" stroke="#d3d3d3" points="952,-315.8945 952,-346.8945 997,-346.8945 997,-315.8945 952,-315.8945"/>
<text text-anchor="start" x="966.3311" y="-333.6945" font-family="Times,serif" font-size="14.00" fill="#000000">C3</text>
<text text-anchor="start" x="954.6296" y="-322.0945" font-family="Arial" font-size="11.00" fill="#606060">[FSE16]</text>
<polygon fill="none" stroke="#d3d3d3" points="948.5,-313.3945 948.5,-350.3945 999.5,-350.3945 999.5,-313.3945 948.5,-313.3945"/>
</g>
<!-- diet -->
<g id="node15" class="node">
<title>diet</title>
<path fill="#d3d3d3" stroke="#d3d3d3" d="M850,-177.6973C850,-177.6973 894,-177.6973 894,-177.6973 900,-177.6973 906,-183.6973 906,-189.6973 906,-189.6973 906,-210.6973 906,-210.6973 906,-216.6973 900,-222.6973 894,-222.6973 894,-222.6973 850,-222.6973 850,-222.6973 844,-222.6973 838,-216.6973 838,-210.6973 838,-210.6973 838,-189.6973 838,-189.6973 838,-183.6973 844,-177.6973 850,-177.6973"/>
<polygon fill="none" stroke="#d3d3d3" points="849,-184.1973 849,-215.1973 895,-215.1973 895,-184.1973 849,-184.1973"/>
<text text-anchor="start" x="856.062" y="-201.9973" font-family="Times,serif" font-size="14.00" fill="#000000">DIET</text>
<text text-anchor="start" x="851.8208" y="-190.3973" font-family="Arial" font-size="11.00" fill="#606060">[ASE19]</text>
<polygon fill="none" stroke="#d3d3d3" points="846,-181.6973 846,-218.6973 898,-218.6973 898,-181.6973 846,-181.6973"/>
</g>
<!-- c3&#45;&gt;diet -->
<g id="edge17" class="edge">
<title>c3&#45;&gt;diet</title>
<path fill="none" stroke="#000000" d="M947.0792,-309.298C939.8408,-302.6107 932.2842,-295.0265 926,-287.3945 911.866,-270.2292 898.6721,-249.0622 888.8642,-231.8819"/>
<polygon fill="#000000" stroke="#000000" points="891.7179,-229.8144 883.7792,-222.7982 885.6098,-233.2337 891.7179,-229.8144"/>
</g>
<!-- c3&#45;&gt;dogfood -->
<g id="edge21" class="edge">
<title>c3&#45;&gt;dogfood</title>
<path fill="none" stroke="#000000" d="M974.5157,-309.255C974.9922,-288.3365 975.706,-257.002 976.2464,-233.2807"/>
<polygon fill="#000000" stroke="#000000" points="979.7522,-233.0593 976.481,-222.9821 972.754,-232.8998 979.7522,-233.0593"/>
</g>
<!-- gain -->
<g id="node8" class="node">
<title>gain</title>
<path fill="#d3d3d3" stroke="#d3d3d3" d="M1513.5,-40.5C1513.5,-40.5 1572.5,-40.5 1572.5,-40.5 1578.5,-40.5 1584.5,-46.5 1584.5,-52.5 1584.5,-52.5 1584.5,-84.5 1584.5,-84.5 1584.5,-90.5 1578.5,-96.5 1572.5,-96.5 1572.5,-96.5 1513.5,-96.5 1513.5,-96.5 1507.5,-96.5 1501.5,-90.5 1501.5,-84.5 1501.5,-84.5 1501.5,-52.5 1501.5,-52.5 1501.5,-46.5 1507.5,-40.5 1513.5,-40.5"/>
<polygon fill="none" stroke="#d3d3d3" points="1513,-47.5 1513,-89.5 1574,-89.5 1574,-47.5 1513,-47.5"/>
<text text-anchor="start" x="1526.0034" y="-76.3" font-family="Times,serif" font-size="14.00" fill="#000000">GAIN</text>
<text text-anchor="start" x="1515.6804" y="-64.7" font-family="Arial" font-size="11.00" fill="#606060">[APSEC14]</text>
<text text-anchor="start" x="1525.77" y="-53.7" font-family="Arial" font-size="11.00" fill="#606060">[IST16]</text>
<polygon fill="none" stroke="#d3d3d3" points="1509.5,-44.5 1509.5,-92.5 1576.5,-92.5 1576.5,-44.5 1509.5,-44.5"/>
</g>
<!-- cod -->
<g id="node9" class="node">
<title>cod</title>
<path fill="#d3d3d3" stroke="#d3d3d3" d="M626,-177.6973C626,-177.6973 670,-177.6973 670,-177.6973 676,-177.6973 682,-183.6973 682,-189.6973 682,-189.6973 682,-210.6973 682,-210.6973 682,-216.6973 676,-222.6973 670,-222.6973 670,-222.6973 626,-222.6973 626,-222.6973 620,-222.6973 614,-216.6973 614,-210.6973 614,-210.6973 614,-189.6973 614,-189.6973 614,-183.6973 620,-177.6973 626,-177.6973"/>
<polygon fill="none" stroke="#d3d3d3" points="625,-184.1973 625,-215.1973 671,-215.1973 671,-184.1973 625,-184.1973"/>
<text text-anchor="start" x="636.3311" y="-201.9973" font-family="Times,serif" font-size="14.00" fill="#000000">Cod</text>
<text text-anchor="start" x="627.8208" y="-190.3973" font-family="Arial" font-size="11.00" fill="#606060">[ASE19]</text>
<polygon fill="none" stroke="#d3d3d3" points="622,-181.6973 622,-218.6973 674,-218.6973 674,-181.6973 622,-181.6973"/>
</g>
<!-- con&#45;survey -->
<g id="node10" class="node">
<title>con&#45;survey</title>
<path fill="#d3d3d3" stroke="#d3d3d3" d="M693.5,-403.4932C693.5,-403.4932 736.5,-403.4932 736.5,-403.4932 742.5,-403.4932 748.5,-409.4932 748.5,-415.4932 748.5,-415.4932 748.5,-436.4932 748.5,-436.4932 748.5,-442.4932 742.5,-448.4932 736.5,-448.4932 736.5,-448.4932 693.5,-448.4932 693.5,-448.4932 687.5,-448.4932 681.5,-442.4932 681.5,-436.4932 681.5,-436.4932 681.5,-415.4932 681.5,-415.4932 681.5,-409.4932 687.5,-403.4932 693.5,-403.4932"/>
<polygon fill="none" stroke="#d3d3d3" points="693,-409.9932 693,-440.9932 738,-440.9932 738,-409.9932 693,-409.9932"/>
<text text-anchor="start" x="695.6689" y="-427.7932" font-family="Times,serif" font-size="14.00" fill="#000000">Survey</text>
<text text-anchor="start" x="696.8489" y="-416.1932" font-family="Arial" font-size="11.00" fill="#606060">[JoS17]</text>
<polygon fill="none" stroke="#d3d3d3" points="689.5,-407.4932 689.5,-444.4932 740.5,-444.4932 740.5,-407.4932 689.5,-407.4932"/>
</g>
<!-- con&#45;survey&#45;&gt;thesis -->
<g id="edge9" class="edge">
<title>con&#45;survey&#45;&gt;thesis</title>
<path fill="none" stroke="#000000" d="M715,-403.2145C715,-393.3033 715,-381.4132 715,-370.2083"/>
<polygon fill="#000000" stroke="#000000" points="718.5001,-370.187 715,-360.187 711.5001,-370.1871 718.5001,-370.187"/>
</g>
<!-- lesdroid -->
<g id="node25" class="node">
<title>lesdroid</title>
<path fill="#d3d3d3" stroke="#d3d3d3" d="M264.5,-177.6973C264.5,-177.6973 325.5,-177.6973 325.5,-177.6973 331.5,-177.6973 337.5,-183.6973 337.5,-189.6973 337.5,-189.6973 337.5,-210.6973 337.5,-210.6973 337.5,-216.6973 331.5,-222.6973 325.5,-222.6973 325.5,-222.6973 264.5,-222.6973 264.5,-222.6973 258.5,-222.6973 252.5,-216.6973 252.5,-210.6973 252.5,-210.6973 252.5,-189.6973 252.5,-189.6973 252.5,-183.6973 258.5,-177.6973 264.5,-177.6973"/>
<polygon fill="none" stroke="#d3d3d3" points="264,-184.1973 264,-215.1973 327,-215.1973 327,-184.1973 264,-184.1973"/>
<text text-anchor="start" x="266.7241" y="-201.9973" font-family="Times,serif" font-size="14.00" fill="#000000">LESDroid</text>
<text text-anchor="start" x="273.1858" y="-190.3973" font-family="Arial" font-size="11.00" fill="#606060">[ICPC18]</text>
<polygon fill="none" stroke="#d3d3d3" points="260.5,-181.6973 260.5,-218.6973 329.5,-218.6973 329.5,-181.6973 260.5,-181.6973"/>
</g>
<!-- repdroid&#45;&gt;lesdroid -->
<g id="edge8" class="edge">
<title>repdroid&#45;&gt;lesdroid</title>
<path fill="none" stroke="#000000" d="M294.1719,-309.255C294.3307,-288.3365 294.5687,-257.002 294.7488,-233.2807"/>
<polygon fill="#000000" stroke="#000000" points="298.2509,-233.0085 294.827,-222.9821 291.2511,-232.9552 298.2509,-233.0085"/>
</g>
<!-- combodroid -->
<g id="node28" class="node">
<title>combodroid</title>
<path fill="#d3d3d3" stroke="#d3d3d3" d="M367.5,-177.6973C367.5,-177.6973 444.5,-177.6973 444.5,-177.6973 450.5,-177.6973 456.5,-183.6973 456.5,-189.6973 456.5,-189.6973 456.5,-210.6973 456.5,-210.6973 456.5,-216.6973 450.5,-222.6973 444.5,-222.6973 444.5,-222.6973 367.5,-222.6973 367.5,-222.6973 361.5,-222.6973 355.5,-216.6973 355.5,-210.6973 355.5,-210.6973 355.5,-189.6973 355.5,-189.6973 355.5,-183.6973 361.5,-177.6973 367.5,-177.6973"/>
<polygon fill="none" stroke="#d3d3d3" points="367,-184.1973 367,-215.1973 446,-215.1973 446,-184.1973 367,-184.1973"/>
<text text-anchor="start" x="369.5552" y="-201.9973" font-family="Times,serif" font-size="14.00" fill="#000000">ComboDroid</text>
<text text-anchor="start" x="384.4893" y="-190.3973" font-family="Arial" font-size="11.00" fill="#606060">[ICSE20]</text>
<polygon fill="none" stroke="#d3d3d3" points="363.5,-181.6973 363.5,-218.6973 448.5,-218.6973 448.5,-181.6973 363.5,-181.6973"/>
</g>
<!-- repdroid&#45;&gt;combodroid -->
<g id="edge22" class="edge">
<title>repdroid&#45;&gt;combodroid</title>
<path fill="none" stroke="#000000" d="M323.9224,-309.2395C331.8304,-302.6094 340.0817,-295.0692 347,-287.3945 362.4241,-270.2841 376.961,-248.8871 387.7461,-231.5711"/>
<polygon fill="#000000" stroke="#000000" points="390.7977,-233.2896 393.0288,-222.9323 384.8258,-229.6377 390.7977,-233.2896"/>
</g>
<!-- comedy -->
<g id="node12" class="node">
<title>comedy</title>
<path fill="#d3d3d3" stroke="#d3d3d3" d="M44.5,-403.4932C44.5,-403.4932 121.5,-403.4932 121.5,-403.4932 127.5,-403.4932 133.5,-409.4932 133.5,-415.4932 133.5,-415.4932 133.5,-436.4932 133.5,-436.4932 133.5,-442.4932 127.5,-448.4932 121.5,-448.4932 121.5,-448.4932 44.5,-448.4932 44.5,-448.4932 38.5,-448.4932 32.5,-442.4932 32.5,-436.4932 32.5,-436.4932 32.5,-415.4932 32.5,-415.4932 32.5,-409.4932 38.5,-403.4932 44.5,-403.4932"/>
<polygon fill="none" stroke="#d3d3d3" points="44,-409.9932 44,-440.9932 123,-440.9932 123,-409.9932 44,-409.9932"/>
<text text-anchor="start" x="59.7793" y="-427.7932" font-family="Times,serif" font-size="14.00" fill="#000000">Comedy</text>
<text text-anchor="start" x="46.5173" y="-416.1932" font-family="Arial" font-size="11.00" fill="#606060">[COMPSAC15]</text>
<polygon fill="none" stroke="#d3d3d3" points="40.5,-407.4932 40.5,-444.4932 125.5,-444.4932 125.5,-407.4932 40.5,-407.4932"/>
</g>
<!-- bc -->
<g id="node17" class="node">
<title>bc</title>
<path fill="#d3d3d3" stroke="#d3d3d3" d="M746.5,-490.9932C746.5,-490.9932 823.5,-490.9932 823.5,-490.9932 829.5,-490.9932 835.5,-496.9932 835.5,-502.9932 835.5,-502.9932 835.5,-523.9932 835.5,-523.9932 835.5,-529.9932 829.5,-535.9932 823.5,-535.9932 823.5,-535.9932 746.5,-535.9932 746.5,-535.9932 740.5,-535.9932 734.5,-529.9932 734.5,-523.9932 734.5,-523.9932 734.5,-502.9932 734.5,-502.9932 734.5,-496.9932 740.5,-490.9932 746.5,-490.9932"/>
<polygon fill="none" stroke="#d3d3d3" points="746,-497.4932 746,-528.4932 825,-528.4932 825,-497.4932 746,-497.4932"/>
<text text-anchor="start" x="748.7534" y="-515.2932" font-family="Times,serif" font-size="14.00" fill="#000000">Bisect Coord</text>
<text text-anchor="start" x="765.6296" y="-503.6932" font-family="Arial" font-size="11.00" fill="#606060">[FSE16]</text>
<polygon fill="none" stroke="#d3d3d3" points="742.5,-494.9932 742.5,-531.9932 827.5,-531.9932 827.5,-494.9932 742.5,-494.9932"/>
</g>
<!-- bc&#45;&gt;con&#45;survey -->
<g id="edge7" class="edge">
<title>bc&#45;&gt;con&#45;survey</title>
<path fill="none" stroke="#000000" d="M766.9733,-490.9597C758.6284,-480.5287 748.5851,-467.9746 739.561,-456.6944"/>
<polygon fill="#000000" stroke="#000000" points="742.189,-454.3766 733.2089,-448.7543 736.7229,-458.7495 742.189,-454.3766"/>
</g>
<!-- gat -->
<g id="node18" class="node">
<title>gat</title>
<path fill="#d3d3d3" stroke="#d3d3d3" d="M384.5,-403.4932C384.5,-403.4932 443.5,-403.4932 443.5,-403.4932 449.5,-403.4932 455.5,-409.4932 455.5,-415.4932 455.5,-415.4932 455.5,-436.4932 455.5,-436.4932 455.5,-442.4932 449.5,-448.4932 443.5,-448.4932 443.5,-448.4932 384.5,-448.4932 384.5,-448.4932 378.5,-448.4932 372.5,-442.4932 372.5,-436.4932 372.5,-436.4932 372.5,-415.4932 372.5,-415.4932 372.5,-409.4932 378.5,-403.4932 384.5,-403.4932"/>
<polygon fill="none" stroke="#d3d3d3" points="384,-409.9932 384,-440.9932 445,-440.9932 445,-409.9932 384,-409.9932"/>
<text text-anchor="start" x="400.8896" y="-427.7932" font-family="Times,serif" font-size="14.00" fill="#000000">GAT</text>
<text text-anchor="start" x="386.6804" y="-416.1932" font-family="Arial" font-size="11.00" fill="#606060">[APSEC16]</text>
<polygon fill="none" stroke="#d3d3d3" points="380.5,-407.4932 380.5,-444.4932 447.5,-444.4932 447.5,-407.4932 380.5,-407.4932"/>
</g>
<!-- gat&#45;&gt;android&#45;survey -->
<g id="edge16" class="edge">
<title>gat&#45;&gt;android&#45;survey</title>
<path fill="none" stroke="#000000" d="M414,-403.2145C414,-391.6562 414,-377.4068 414,-364.6911"/>
<polygon fill="#000000" stroke="#000000" points="417.5001,-364.4634 414,-354.4634 410.5001,-364.4635 417.5001,-364.4634"/>
</g>
<!-- rwtrace -->
<g id="node20" class="node">
<title>rwtrace</title>
<path fill="#d3d3d3" stroke="#d3d3d3" d="M726.5,-572.9932C726.5,-572.9932 783.5,-572.9932 783.5,-572.9932 789.5,-572.9932 795.5,-578.9932 795.5,-584.9932 795.5,-584.9932 795.5,-605.9932 795.5,-605.9932 795.5,-611.9932 789.5,-617.9932 783.5,-617.9932 783.5,-617.9932 726.5,-617.9932 726.5,-617.9932 720.5,-617.9932 714.5,-611.9932 714.5,-605.9932 714.5,-605.9932 714.5,-584.9932 714.5,-584.9932 714.5,-578.9932 720.5,-572.9932 726.5,-572.9932"/>
<polygon fill="none" stroke="#d3d3d3" points="726,-579.4932 726,-610.4932 785,-610.4932 785,-579.4932 726,-579.4932"/>
<text text-anchor="start" x="728.9219" y="-597.2932" font-family="Times,serif" font-size="14.00" fill="#000000">RWTrace</text>
<text text-anchor="start" x="735.3208" y="-585.6932" font-family="Arial" font-size="11.00" fill="#606060">[ASE15]</text>
<polygon fill="none" stroke="#d3d3d3" points="722.5,-576.9932 722.5,-613.9932 787.5,-613.9932 787.5,-576.9932 722.5,-576.9932"/>
</g>
<!-- rwtrace&#45;&gt;con&#45;survey -->
<g id="edge6" class="edge">
<title>rwtrace&#45;&gt;con&#45;survey</title>
<path fill="none" stroke="#000000" d="M741.4269,-572.7214C735.7126,-562.0733 729.5712,-549.0049 726,-536.4932 718.7699,-511.1621 716.1241,-481.3915 715.2287,-459.1373"/>
<polygon fill="#000000" stroke="#000000" points="718.7189,-458.7579 714.9173,-448.8686 711.7221,-458.9701 718.7189,-458.7579"/>
</g>
<!-- rwtrace&#45;&gt;bc -->
<g id="edge4" class="edge">
<title>rwtrace&#45;&gt;bc</title>
<path fill="none" stroke="#000000" d="M763.3567,-572.6516C766.4124,-564.2993 769.9291,-554.6871 773.2272,-545.6721"/>
<polygon fill="#000000" stroke="#000000" points="776.5392,-546.806 776.6881,-536.2122 769.9653,-544.4009 776.5392,-546.806"/>
</g>
<!-- att -->
<g id="node21" class="node">
<title>att</title>
<path fill="#d3d3d3" stroke="#d3d3d3" d="M422.5,-490.9932C422.5,-490.9932 505.5,-490.9932 505.5,-490.9932 511.5,-490.9932 517.5,-496.9932 517.5,-502.9932 517.5,-502.9932 517.5,-523.9932 517.5,-523.9932 517.5,-529.9932 511.5,-535.9932 505.5,-535.9932 505.5,-535.9932 422.5,-535.9932 422.5,-535.9932 416.5,-535.9932 410.5,-529.9932 410.5,-523.9932 410.5,-523.9932 410.5,-502.9932 410.5,-502.9932 410.5,-496.9932 416.5,-490.9932 422.5,-490.9932"/>
<polygon fill="none" stroke="#d3d3d3" points="422,-497.4932 422,-528.4932 507,-528.4932 507,-497.4932 422,-497.4932"/>
<text text-anchor="start" x="451.6689" y="-515.2932" font-family="Times,serif" font-size="14.00" fill="#000000">ATT</text>
<text text-anchor="start" x="424.7539" y="-503.6932" font-family="Arial" font-size="11.00" fill="#606060">[Internetware15]</text>
<polygon fill="none" stroke="#d3d3d3" points="418.5,-494.9932 418.5,-531.9932 509.5,-531.9932 509.5,-494.9932 418.5,-494.9932"/>
</g>
<!-- att&#45;&gt;aatt -->
<g id="edge2" class="edge">
<title>att&#45;&gt;aatt</title>
<path fill="none" stroke="#000000" d="M477.1338,-490.9597C482.099,-482.441 487.8895,-472.5063 493.4269,-463.0058"/>
<polygon fill="#000000" stroke="#000000" points="496.6114,-464.4927 498.6232,-454.0906 490.5637,-460.9677 496.6114,-464.4927"/>
</g>
<!-- att&#45;&gt;gat -->
<g id="edge1" class="edge">
<title>att&#45;&gt;gat</title>
<path fill="none" stroke="#000000" d="M451.1238,-490.9597C445.3368,-480.8325 438.4063,-468.7041 432.1086,-457.6832"/>
<polygon fill="#000000" stroke="#000000" points="435.0067,-455.7003 427.0064,-448.7543 428.929,-459.1733 435.0067,-455.7003"/>
</g>
<!-- cosedroid -->
<g id="node22" class="node">
<title>cosedroid</title>
<path fill="#d3d3d3" stroke="#d3d3d3" d="M467.5,-572.9932C467.5,-572.9932 544.5,-572.9932 544.5,-572.9932 550.5,-572.9932 556.5,-578.9932 556.5,-584.9932 556.5,-584.9932 556.5,-605.9932 556.5,-605.9932 556.5,-611.9932 550.5,-617.9932 544.5,-617.9932 544.5,-617.9932 467.5,-617.9932 467.5,-617.9932 461.5,-617.9932 455.5,-611.9932 455.5,-605.9932 455.5,-605.9932 455.5,-584.9932 455.5,-584.9932 455.5,-578.9932 461.5,-572.9932 467.5,-572.9932"/>
<polygon fill="none" stroke="#d3d3d3" points="467,-579.4932 467,-610.4932 546,-610.4932 546,-579.4932 467,-579.4932"/>
<text text-anchor="start" x="476.1689" y="-597.2932" font-family="Times,serif" font-size="14.00" fill="#000000">CoseDroid</text>
<text text-anchor="start" x="469.5173" y="-585.6932" font-family="Arial" font-size="11.00" fill="#606060">[COMPSAC14]</text>
<polygon fill="none" stroke="#d3d3d3" points="463.5,-576.9932 463.5,-613.9932 548.5,-613.9932 548.5,-576.9932 463.5,-576.9932"/>
</g>
<!-- cosedroid&#45;&gt;att -->
<g id="edge13" class="edge">
<title>cosedroid&#45;&gt;att</title>
<path fill="none" stroke="#000000" d="M494.3007,-572.6516C489.9771,-564.2104 484.9945,-554.4824 480.3346,-545.3846"/>
<polygon fill="#000000" stroke="#000000" points="483.3106,-543.5171 475.6366,-536.2122 477.0803,-546.7083 483.3106,-543.5171"/>
</g>
<!-- care -->
<g id="node23" class="node">
<title>care</title>
<path fill="#d3d3d3" stroke="#d3d3d3" d="M701,-659.0918C701,-659.0918 749,-659.0918 749,-659.0918 755,-659.0918 761,-665.0918 761,-671.0918 761,-671.0918 761,-692.0918 761,-692.0918 761,-698.0918 755,-704.0918 749,-704.0918 749,-704.0918 701,-704.0918 701,-704.0918 695,-704.0918 689,-698.0918 689,-692.0918 689,-692.0918 689,-671.0918 689,-671.0918 689,-665.0918 695,-659.0918 701,-659.0918"/>
<polygon fill="none" stroke="#d3d3d3" points="700,-665.5918 700,-696.5918 750,-696.5918 750,-665.5918 700,-665.5918"/>
<text text-anchor="start" x="706.3311" y="-683.3918" font-family="Times,serif" font-size="14.00" fill="#000000">CARE</text>
<text text-anchor="start" x="702.9893" y="-671.7918" font-family="Arial" font-size="11.00" fill="#606060">[ICSE14]</text>
<polygon fill="none" stroke="#d3d3d3" points="697,-663.0918 697,-700.0918 753,-700.0918 753,-663.0918 697,-663.0918"/>
</g>
<!-- care&#45;&gt;con&#45;survey -->
<g id="edge5" class="edge">
<title>care&#45;&gt;con&#45;survey</title>
<path fill="none" stroke="#000000" d="M709.2113,-658.8765C707.9067,-656.1777 706.7883,-653.3864 706,-650.5918 687.3161,-584.353 698.6467,-502.7853 707.5045,-458.446"/>
<polygon fill="#000000" stroke="#000000" points="710.9578,-459.0306 709.5704,-448.527 704.1048,-457.6032 710.9578,-459.0306"/>
</g>
<!-- care&#45;&gt;rwtrace -->
<g id="edge3" class="edge">
<title>care&#45;&gt;rwtrace</title>
<path fill="none" stroke="#000000" d="M732.8821,-658.9704C736.1974,-649.4557 740.1166,-638.2078 743.728,-627.8434"/>
<polygon fill="#000000" stroke="#000000" points="747.081,-628.8572 747.0663,-618.2624 740.4708,-626.5539 747.081,-628.8572"/>
</g>
<!-- uga -->
<g id="node24" class="node">
<title>uga</title>
<path fill="#d3d3d3" stroke="#d3d3d3" d="M366.5,-572.9932C366.5,-572.9932 425.5,-572.9932 425.5,-572.9932 431.5,-572.9932 437.5,-578.9932 437.5,-584.9932 437.5,-584.9932 437.5,-605.9932 437.5,-605.9932 437.5,-611.9932 431.5,-617.9932 425.5,-617.9932 425.5,-617.9932 366.5,-617.9932 366.5,-617.9932 360.5,-617.9932 354.5,-611.9932 354.5,-605.9932 354.5,-605.9932 354.5,-584.9932 354.5,-584.9932 354.5,-578.9932 360.5,-572.9932 366.5,-572.9932"/>
<polygon fill="none" stroke="#d3d3d3" points="366,-579.4932 366,-610.4932 427,-610.4932 427,-579.4932 366,-579.4932"/>
<text text-anchor="start" x="381.3345" y="-597.2932" font-family="Times,serif" font-size="14.00" fill="#000000">UGA</text>
<text text-anchor="start" x="368.6804" y="-585.6932" font-family="Arial" font-size="11.00" fill="#606060">[APSEC14]</text>
<polygon fill="none" stroke="#d3d3d3" points="362.5,-576.9932 362.5,-613.9932 429.5,-613.9932 429.5,-576.9932 362.5,-576.9932"/>
</g>
<!-- uga&#45;&gt;att -->
<g id="edge10" class="edge">
<title>uga&#45;&gt;att</title>
<path fill="none" stroke="#000000" d="M414.9418,-572.6516C422.3102,-563.7662 430.861,-553.4549 438.7401,-543.9536"/>
<polygon fill="#000000" stroke="#000000" points="441.4706,-546.144 445.1598,-536.2122 436.0822,-541.6757 441.4706,-546.144"/>
</g>
<!-- uga&#45;&gt;combodroid -->
<g id="edge19" class="edge">
<title>uga&#45;&gt;combodroid</title>
<path fill="none" stroke="#000000" d="M387.619,-572.6587C379.7226,-549.8422 368.4581,-513.579 364,-481.0918 352.7756,-399.2963 351.7545,-376.1354 369,-295.3945 373.6251,-273.7405 382.5419,-250.5604 390.4629,-232.4954"/>
<polygon fill="#000000" stroke="#000000" points="393.8117,-233.583 394.7275,-223.0278 387.4293,-230.7081 393.8117,-233.583"/>
</g>
<!-- tapir -->
<g id="node26" class="node">
<title>tapir</title>
<path fill="#d3d3d3" stroke="#d3d3d3" d="M264,-572.9932C264,-572.9932 324,-572.9932 324,-572.9932 330,-572.9932 336,-578.9932 336,-584.9932 336,-584.9932 336,-605.9932 336,-605.9932 336,-611.9932 330,-617.9932 324,-617.9932 324,-617.9932 264,-617.9932 264,-617.9932 258,-617.9932 252,-611.9932 252,-605.9932 252,-605.9932 252,-584.9932 252,-584.9932 252,-578.9932 258,-572.9932 264,-572.9932"/>
<polygon fill="none" stroke="#d3d3d3" points="263,-579.4932 263,-610.4932 325,-610.4932 325,-579.4932 263,-579.4932"/>
<text text-anchor="start" x="274.333" y="-597.2932" font-family="Times,serif" font-size="14.00" fill="#000000">TAPIR</text>
<text text-anchor="start" x="265.877" y="-585.6932" font-family="Arial" font-size="11.00" fill="#606060">[SANER19]</text>
<polygon fill="none" stroke="#d3d3d3" points="260,-576.9932 260,-613.9932 328,-613.9932 328,-576.9932 260,-576.9932"/>
</g>
<!-- android&#45;survey&#45;&gt;combodroid -->
<g id="edge18" class="edge">
<title>android&#45;survey&#45;&gt;combodroid</title>
<path fill="none" stroke="#000000" d="M412.6248,-309.255C411.354,-288.3365 409.4506,-257.002 408.0097,-233.2807"/>
<polygon fill="#000000" stroke="#000000" points="411.4841,-232.7515 407.3841,-222.9821 404.4969,-233.176 411.4841,-232.7515"/>
</g>
<!-- test&#45;survey -->
<g id="node29" class="node">
<title>test&#45;survey</title>
<path fill="#d3d3d3" stroke="#d3d3d3" d="M178,-177.6973C178,-177.6973 222,-177.6973 222,-177.6973 228,-177.6973 234,-183.6973 234,-189.6973 234,-189.6973 234,-210.6973 234,-210.6973 234,-216.6973 228,-222.6973 222,-222.6973 222,-222.6973 178,-222.6973 178,-222.6973 172,-222.6973 166,-216.6973 166,-210.6973 166,-210.6973 166,-189.6973 166,-189.6973 166,-183.6973 172,-177.6973 178,-177.6973"/>
<polygon fill="none" stroke="#d3d3d3" points="177,-184.1973 177,-215.1973 223,-215.1973 223,-184.1973 177,-184.1973"/>
<text text-anchor="start" x="180.1689" y="-201.9973" font-family="Times,serif" font-size="14.00" fill="#000000">Survey</text>
<text text-anchor="start" x="179.8262" y="-190.3973" font-family="Arial" font-size="11.00" fill="#606060">[FCS20]</text>
<polygon fill="none" stroke="#d3d3d3" points="174,-181.6973 174,-218.6973 226,-218.6973 226,-181.6973 174,-181.6973"/>
</g>
<!-- test&#45;survey&#45;&gt;contest&#45;survey -->
<g id="edge24" class="edge">
<title>test&#45;survey&#45;&gt;contest&#45;survey</title>
<path fill="none" stroke="#000000" d="M225.5384,-177.6196C230.1239,-174.4009 235.0318,-171.4309 240,-169.1973 410.636,-92.4823 637.1829,-74.2016 731.6755,-69.8533"/>
<polygon fill="#000000" stroke="#000000" points="731.8953,-73.3472 741.7357,-69.4207 731.5945,-66.3536 731.8953,-73.3472"/>
</g>
</g>
</svg>
