<?xml version="1.0" encoding="UTF-8" standalone="no"?>
<!DOCTYPE svg PUBLIC "-//W3C//DTD SVG 1.1//EN"
 "http://www.w3.org/Graphics/SVG/1.1/DTD/svg11.dtd">
<!-- Generated by graphviz version 2.40.1 (20161225.0304)
 -->
<!-- Title: G Pages: 1 -->
<svg width="986pt" height="781pt"
 viewBox="0.00 0.00 986.00 780.50" xmlns="http://www.w3.org/2000/svg" xmlns:xlink="http://www.w3.org/1999/xlink">
<g id="graph0" class="graph" transform="scale(1 1) rotate(0) translate(4 776.5)">
<title>G</title>
<polygon fill="#ffffff" stroke="transparent" points="-4,4 -4,-776.5 982,-776.5 982,4 -4,4"/>
<g id="clust1" class="cluster">
<title>cluster_subG</title>
<polygon fill="none" stroke="#000000" points="8,-8 8,-764.5 970,-764.5 970,-8 8,-8"/>
</g>
<g id="clust2" class="cluster">
<title>cluster_sta</title>
<polygon fill="none" stroke="#000000" points="16,-16 16,-756.5 962,-756.5 962,-16 16,-16"/>
<text text-anchor="middle" x="489" y="-741.3" font-family="Arial" font-size="14.00" fill="#000000">Software Testing, Analysis, and Synthesis</text>
</g>
<g id="clust3" class="cluster">
<title>cluster_adverse</title>
<polygon fill="none" stroke="#000000" points="782,-369.5 782,-454.5 954,-454.5 954,-369.5 782,-369.5"/>
<text text-anchor="middle" x="868" y="-439.3" font-family="Arial" font-size="14.00" fill="#000000">Adversarial Conditions</text>
</g>
<g id="clust4" class="cluster">
<title>cluster_concurrency</title>
<polygon fill="none" stroke="#000000" points="460,-167 460,-263 697,-263 697,-167 460,-167"/>
<text text-anchor="middle" x="578.5" y="-247.8" font-family="Arial" font-size="14.00" fill="#000000">Exploration of Interleaving Spaces</text>
</g>
<g id="clust5" class="cluster">
<title>cluster_synthesis</title>
<polygon fill="none" stroke="#000000" points="467,-24 467,-159 733,-159 733,-24 467,-24"/>
<text text-anchor="middle" x="600" y="-143.8" font-family="Arial" font-size="14.00" fill="#000000">Program Synthesis</text>
</g>
<g id="clust6" class="cluster">
<title>cluster_transformer</title>
<polygon fill="none" stroke="#000000" points="475,-32 475,-128 725,-128 725,-32 475,-32"/>
<text text-anchor="middle" x="600" y="-112.8" font-family="Arial" font-size="14.00" fill="#000000">Transformers</text>
</g>
<g id="clust7" class="cluster">
<title>cluster_analysis</title>
<polygon fill="none" stroke="#000000" points="234,-462.5 234,-547.5 450,-547.5 450,-462.5 234,-462.5"/>
<text text-anchor="middle" x="342" y="-532.3" font-family="Arial" font-size="14.00" fill="#000000">Software Analysis</text>
</g>
<g id="clust8" class="cluster">
<title>cluster_smd</title>
<polygon fill="none" stroke="#000000" points="460,-271 460,-725.5 774,-725.5 774,-271 460,-271"/>
<text text-anchor="middle" x="617" y="-710.3" font-family="Arial" font-size="14.00" fill="#000000">Understanding Shared Memory Dependences</text>
</g>
<g id="clust9" class="cluster">
<title>cluster_mobile</title>
<polygon fill="none" stroke="#000000" points="24,-37.5 24,-454.5 452,-454.5 452,-37.5 24,-37.5"/>
<text text-anchor="middle" x="238" y="-439.3" font-family="Arial" font-size="14.00" fill="#000000">Mobile Apps</text>
</g>
<g id="clust10" class="cluster">
<title>cluster_tech</title>
<polygon fill="none" stroke="#000000" points="741,-32 741,-128 946,-128 946,-32 741,-32"/>
<text text-anchor="middle" x="843.5" y="-112.8" font-family="Arial" font-size="14.00" fill="#000000">Fun and Profits</text>
</g>
<g id="clust11" class="cluster">
<title>cluster_compiler</title>
<polygon fill="none" stroke="#000000" points="168,-555.5 168,-640.5 308,-640.5 308,-555.5 168,-555.5"/>
<text text-anchor="middle" x="238" y="-625.3" font-family="Arial" font-size="14.00" fill="#000000">Compiler Toolchain</text>
</g>
<g id="clust12" class="cluster">
<title>cluster_system</title>
<polygon fill="none" stroke="#000000" points="782,-276.5 782,-361.5 908,-361.5 908,-276.5 782,-276.5"/>
<text text-anchor="middle" x="845" y="-346.3" font-family="Arial" font-size="14.00" fill="#000000">System Software</text>
</g>
<!-- rescue -->
<g id="node1" class="node">
<title>rescue</title>
<path fill="#d3d3d3" stroke="#d3d3d3" d="M888,-378C888,-378 934,-378 934,-378 940,-378 946,-384 946,-390 946,-390 946,-411 946,-411 946,-417 940,-423 934,-423 934,-423 888,-423 888,-423 882,-423 876,-417 876,-411 876,-411 876,-390 876,-390 876,-384 882,-378 888,-378"/>
<polygon fill="none" stroke="#d3d3d3" points="887,-384.5 887,-415.5 935,-415.5 935,-384.5 887,-384.5"/>
<text text-anchor="start" x="890" y="-402.3" font-family="Times,serif" font-size="14.00" fill="#000000">ReScue</text>
<text text-anchor="start" x="890.5" y="-390.7" font-family="Arial" font-size="11.00" fill="#606060">[ASE18]</text>
<polygon fill="none" stroke="#d3d3d3" points="884,-382 884,-419 938,-419 938,-382 884,-382"/>
</g>
<!-- scs -->
<g id="node2" class="node">
<title>scs</title>
<path fill="#d3d3d3" stroke="#d3d3d3" d="M604,-181C604,-181 648,-181 648,-181 654,-181 660,-187 660,-193 660,-193 660,-214 660,-214 660,-220 654,-226 648,-226 648,-226 604,-226 604,-226 598,-226 592,-220 592,-214 592,-214 592,-193 592,-193 592,-187 598,-181 604,-181"/>
<polygon fill="none" stroke="#d3d3d3" points="603,-187.5 603,-218.5 649,-218.5 649,-187.5 603,-187.5"/>
<text text-anchor="start" x="613.5" y="-205.3" font-family="Times,serif" font-size="14.00" fill="#000000">SCS</text>
<text text-anchor="start" x="606" y="-193.7" font-family="Arial" font-size="11.00" fill="#606060">[FSE18]</text>
<polygon fill="none" stroke="#d3d3d3" points="600,-185 600,-222 652,-222 652,-185 600,-185"/>
</g>
<!-- abc -->
<g id="node15" class="node">
<title>abc</title>
<path fill="#d3d3d3" stroke="#d3d3d3" d="M761.5,-46C761.5,-46 822.5,-46 822.5,-46 828.5,-46 834.5,-52 834.5,-58 834.5,-58 834.5,-79 834.5,-79 834.5,-85 828.5,-91 822.5,-91 822.5,-91 761.5,-91 761.5,-91 755.5,-91 749.5,-85 749.5,-79 749.5,-79 749.5,-58 749.5,-58 749.5,-52 755.5,-46 761.5,-46"/>
<polygon fill="none" stroke="#d3d3d3" points="761,-52.5 761,-83.5 824,-83.5 824,-52.5 761,-52.5"/>
<text text-anchor="start" x="778.5" y="-70.3" font-family="Times,serif" font-size="14.00" fill="#000000">ABC</text>
<text text-anchor="start" x="764" y="-58.7" font-family="Arial" font-size="11.00" fill="#606060">[APSEC15]</text>
<polygon fill="none" stroke="#d3d3d3" points="757.5,-50 757.5,-87 826.5,-87 826.5,-50 757.5,-50"/>
</g>
<!-- scs&#45;&gt;abc -->
<!-- enter -->
<g id="node16" class="node">
<title>enter</title>
<path fill="#d3d3d3" stroke="#d3d3d3" d="M495,-46C495,-46 579,-46 579,-46 585,-46 591,-52 591,-58 591,-58 591,-79 591,-79 591,-85 585,-91 579,-91 579,-91 495,-91 495,-91 489,-91 483,-85 483,-79 483,-79 483,-58 483,-58 483,-52 489,-46 495,-46"/>
<polygon fill="none" stroke="#d3d3d3" points="494,-52.5 494,-83.5 580,-83.5 580,-52.5 494,-52.5"/>
<text text-anchor="start" x="515" y="-70.3" font-family="Times,serif" font-size="14.00" fill="#000000">ENTER</text>
<text text-anchor="start" x="497" y="-58.7" font-family="Arial" font-size="11.00" fill="#606060">[ICSE18 Poster]</text>
<polygon fill="none" stroke="#d3d3d3" points="491,-50 491,-87 583,-87 583,-50 491,-50"/>
</g>
<!-- scs&#45;&gt;enter -->
<!-- aotes -->
<g id="node3" class="node">
<title>aotes</title>
<path fill="#d3d3d3" stroke="#d3d3d3" d="M621,-40.5C621,-40.5 705,-40.5 705,-40.5 711,-40.5 717,-46.5 717,-52.5 717,-52.5 717,-84.5 717,-84.5 717,-90.5 711,-96.5 705,-96.5 705,-96.5 621,-96.5 621,-96.5 615,-96.5 609,-90.5 609,-84.5 609,-84.5 609,-52.5 609,-52.5 609,-46.5 615,-40.5 621,-40.5"/>
<polygon fill="none" stroke="#d3d3d3" points="620,-47.5 620,-89.5 706,-89.5 706,-47.5 620,-47.5"/>
<text text-anchor="start" x="641" y="-76.3" font-family="Times,serif" font-size="14.00" fill="#000000">AOTES</text>
<text text-anchor="start" x="623" y="-64.7" font-family="Arial" font-size="11.00" fill="#606060">[ICSE17 Poster]</text>
<text text-anchor="start" x="633" y="-53.7" font-family="Arial" font-size="11.00" fill="#606060">[ECOOP18]</text>
<polygon fill="none" stroke="#d3d3d3" points="617,-44.5 617,-92.5 709,-92.5 709,-44.5 617,-44.5"/>
</g>
<!-- needle -->
<g id="node4" class="node">
<title>needle</title>
<path fill="#d3d3d3" stroke="#d3d3d3" d="M376,-471C376,-471 430,-471 430,-471 436,-471 442,-477 442,-483 442,-483 442,-504 442,-504 442,-510 436,-516 430,-516 430,-516 376,-516 376,-516 370,-516 364,-510 364,-504 364,-504 364,-483 364,-483 364,-477 370,-471 376,-471"/>
<polygon fill="none" stroke="#d3d3d3" points="375,-477.5 375,-508.5 431,-508.5 431,-477.5 375,-477.5"/>
<text text-anchor="start" x="383.5" y="-495.3" font-family="Times,serif" font-size="14.00" fill="#000000">Needle</text>
<text text-anchor="start" x="378" y="-483.7" font-family="Arial" font-size="11.00" fill="#606060">[TURC18]</text>
<polygon fill="none" stroke="#d3d3d3" points="372,-475 372,-512 434,-512 434,-475 372,-475"/>
</g>
<!-- repdroid -->
<g id="node6" class="node">
<title>repdroid</title>
<path fill="#d3d3d3" stroke="#d3d3d3" d="M374,-378C374,-378 432,-378 432,-378 438,-378 444,-384 444,-390 444,-390 444,-411 444,-411 444,-417 438,-423 432,-423 432,-423 374,-423 374,-423 368,-423 362,-417 362,-411 362,-411 362,-390 362,-390 362,-384 368,-378 374,-378"/>
<polygon fill="none" stroke="#d3d3d3" points="373,-384.5 373,-415.5 433,-415.5 433,-384.5 373,-384.5"/>
<text text-anchor="start" x="376" y="-402.3" font-family="Times,serif" font-size="14.00" fill="#000000">RepDroid</text>
<text text-anchor="start" x="380" y="-390.7" font-family="Arial" font-size="11.00" fill="#606060">[ICPC17]</text>
<polygon fill="none" stroke="#d3d3d3" points="370,-382 370,-419 436,-419 436,-382 370,-382"/>
</g>
<!-- needle&#45;&gt;repdroid -->
<g id="edge11" class="edge">
<title>needle&#45;&gt;repdroid</title>
<path fill="none" stroke="#000000" d="M403,-470.9873C403,-459.6479 403,-445.6878 403,-433.1911"/>
<polygon fill="#000000" stroke="#000000" points="406.5001,-433.1277 403,-423.1277 399.5001,-433.1278 406.5001,-433.1277"/>
</g>
<!-- thesis -->
<g id="node5" class="node">
<title>thesis</title>
<path fill="#d3d3d3" stroke="#d3d3d3" d="M579,-279.5C579,-279.5 673,-279.5 673,-279.5 679,-279.5 685,-285.5 685,-291.5 685,-291.5 685,-323.5 685,-323.5 685,-329.5 679,-335.5 673,-335.5 673,-335.5 579,-335.5 579,-335.5 573,-335.5 567,-329.5 567,-323.5 567,-323.5 567,-291.5 567,-291.5 567,-285.5 573,-279.5 579,-279.5"/>
<polygon fill="none" stroke="#d3d3d3" points="578,-286.5 578,-328.5 674,-328.5 674,-286.5 578,-286.5"/>
<text text-anchor="start" x="594" y="-315.3" font-family="Times,serif" font-size="14.00" fill="#000000">PhD Thesis</text>
<text text-anchor="start" x="592.5" y="-303.7" font-family="Arial" font-size="11.00" fill="#606060">Yanyan Jiang</text>
<text text-anchor="start" x="581" y="-292.7" font-family="Arial" font-size="11.00" fill="#606060">Nanjing University</text>
<polygon fill="none" stroke="#d3d3d3" points="575,-283.5 575,-331.5 677,-331.5 677,-283.5 575,-283.5"/>
</g>
<!-- thesis&#45;&gt;scs -->
<g id="edge12" class="edge">
<title>thesis&#45;&gt;scs</title>
<path fill="none" stroke="#000000" d="M626,-279.3561C626,-266.0296 626,-250.0342 626,-236.1743"/>
<polygon fill="#000000" stroke="#000000" points="629.5001,-236.0714 626,-226.0715 622.5001,-236.0715 629.5001,-236.0714"/>
</g>
<!-- lesdroid -->
<g id="node23" class="node">
<title>lesdroid</title>
<path fill="#d3d3d3" stroke="#d3d3d3" d="M372,-285C372,-285 432,-285 432,-285 438,-285 444,-291 444,-297 444,-297 444,-318 444,-318 444,-324 438,-330 432,-330 432,-330 372,-330 372,-330 366,-330 360,-324 360,-318 360,-318 360,-297 360,-297 360,-291 366,-285 372,-285"/>
<polygon fill="none" stroke="#d3d3d3" points="371,-291.5 371,-322.5 433,-322.5 433,-291.5 371,-291.5"/>
<text text-anchor="start" x="374" y="-309.3" font-family="Times,serif" font-size="14.00" fill="#000000">LESDroid</text>
<text text-anchor="start" x="379" y="-297.7" font-family="Arial" font-size="11.00" fill="#606060">[ICPC18]</text>
<polygon fill="none" stroke="#d3d3d3" points="368,-289 368,-326 436,-326 436,-289 368,-289"/>
</g>
<!-- repdroid&#45;&gt;lesdroid -->
<g id="edge8" class="edge">
<title>repdroid&#45;&gt;lesdroid</title>
<path fill="none" stroke="#000000" d="M402.7579,-377.9873C402.636,-366.6479 402.4859,-352.6878 402.3515,-340.1911"/>
<polygon fill="#000000" stroke="#000000" points="405.8507,-340.0895 402.2433,-330.1277 398.8511,-340.1648 405.8507,-340.0895"/>
</g>
<!-- gain -->
<g id="node7" class="node">
<title>gain</title>
<path fill="#d3d3d3" stroke="#d3d3d3" d="M864.5,-40.5C864.5,-40.5 925.5,-40.5 925.5,-40.5 931.5,-40.5 937.5,-46.5 937.5,-52.5 937.5,-52.5 937.5,-84.5 937.5,-84.5 937.5,-90.5 931.5,-96.5 925.5,-96.5 925.5,-96.5 864.5,-96.5 864.5,-96.5 858.5,-96.5 852.5,-90.5 852.5,-84.5 852.5,-84.5 852.5,-52.5 852.5,-52.5 852.5,-46.5 858.5,-40.5 864.5,-40.5"/>
<polygon fill="none" stroke="#d3d3d3" points="864,-47.5 864,-89.5 927,-89.5 927,-47.5 864,-47.5"/>
<text text-anchor="start" x="878.5" y="-76.3" font-family="Times,serif" font-size="14.00" fill="#000000">GAIN</text>
<text text-anchor="start" x="867" y="-64.7" font-family="Arial" font-size="11.00" fill="#606060">[APSEC14]</text>
<text text-anchor="start" x="877.5" y="-53.7" font-family="Arial" font-size="11.00" fill="#606060">[IST16]</text>
<polygon fill="none" stroke="#d3d3d3" points="860.5,-44.5 860.5,-92.5 929.5,-92.5 929.5,-44.5 860.5,-44.5"/>
</g>
<!-- c2v -->
<g id="node8" class="node">
<title>c2v</title>
<path fill="#d3d3d3" stroke="#d3d3d3" d="M215.5,-564C215.5,-564 260.5,-564 260.5,-564 266.5,-564 272.5,-570 272.5,-576 272.5,-576 272.5,-597 272.5,-597 272.5,-603 266.5,-609 260.5,-609 260.5,-609 215.5,-609 215.5,-609 209.5,-609 203.5,-603 203.5,-597 203.5,-597 203.5,-576 203.5,-576 203.5,-570 209.5,-564 215.5,-564"/>
<polygon fill="none" stroke="#d3d3d3" points="215,-570.5 215,-601.5 262,-601.5 262,-570.5 215,-570.5"/>
<text text-anchor="start" x="225.5" y="-588.3" font-family="Times,serif" font-size="14.00" fill="#000000">C2V</text>
<text text-anchor="start" x="218" y="-576.7" font-family="Arial" font-size="11.00" fill="#606060">[ASE19]</text>
<polygon fill="none" stroke="#d3d3d3" points="211.5,-568 211.5,-605 264.5,-605 264.5,-568 211.5,-568"/>
</g>
<!-- diet -->
<g id="node9" class="node">
<title>diet</title>
<path fill="#d3d3d3" stroke="#d3d3d3" d="M802.5,-285C802.5,-285 847.5,-285 847.5,-285 853.5,-285 859.5,-291 859.5,-297 859.5,-297 859.5,-318 859.5,-318 859.5,-324 853.5,-330 847.5,-330 847.5,-330 802.5,-330 802.5,-330 796.5,-330 790.5,-324 790.5,-318 790.5,-318 790.5,-297 790.5,-297 790.5,-291 796.5,-285 802.5,-285"/>
<polygon fill="none" stroke="#d3d3d3" points="802,-291.5 802,-322.5 849,-322.5 849,-291.5 802,-291.5"/>
<text text-anchor="start" x="810" y="-309.3" font-family="Times,serif" font-size="14.00" fill="#000000">DIET</text>
<text text-anchor="start" x="805" y="-297.7" font-family="Arial" font-size="11.00" fill="#606060">[ASE19]</text>
<polygon fill="none" stroke="#d3d3d3" points="798.5,-289 798.5,-326 851.5,-326 851.5,-289 798.5,-289"/>
</g>
<!-- survey -->
<g id="node10" class="node">
<title>survey</title>
<path fill="#d3d3d3" stroke="#d3d3d3" d="M604.5,-378C604.5,-378 647.5,-378 647.5,-378 653.5,-378 659.5,-384 659.5,-390 659.5,-390 659.5,-411 659.5,-411 659.5,-417 653.5,-423 647.5,-423 647.5,-423 604.5,-423 604.5,-423 598.5,-423 592.5,-417 592.5,-411 592.5,-411 592.5,-390 592.5,-390 592.5,-384 598.5,-378 604.5,-378"/>
<polygon fill="none" stroke="#d3d3d3" points="604,-384.5 604,-415.5 649,-415.5 649,-384.5 604,-384.5"/>
<text text-anchor="start" x="607" y="-402.3" font-family="Times,serif" font-size="14.00" fill="#000000">Survey</text>
<text text-anchor="start" x="607.5" y="-390.7" font-family="Arial" font-size="11.00" fill="#606060">[JoS17]</text>
<polygon fill="none" stroke="#d3d3d3" points="600.5,-382 600.5,-419 651.5,-419 651.5,-382 600.5,-382"/>
</g>
<!-- survey&#45;&gt;thesis -->
<g id="edge9" class="edge">
<title>survey&#45;&gt;thesis</title>
<path fill="none" stroke="#000000" d="M626,-377.9873C626,-368.3732 626,-356.8752 626,-345.9824"/>
<polygon fill="#000000" stroke="#000000" points="629.5001,-345.8055 626,-335.8056 622.5001,-345.8056 629.5001,-345.8055"/>
</g>
<!-- aatt -->
<g id="node11" class="node">
<title>aatt</title>
<path fill="#d3d3d3" stroke="#d3d3d3" d="M480.5,-175.5C480.5,-175.5 541.5,-175.5 541.5,-175.5 547.5,-175.5 553.5,-181.5 553.5,-187.5 553.5,-187.5 553.5,-219.5 553.5,-219.5 553.5,-225.5 547.5,-231.5 541.5,-231.5 541.5,-231.5 480.5,-231.5 480.5,-231.5 474.5,-231.5 468.5,-225.5 468.5,-219.5 468.5,-219.5 468.5,-187.5 468.5,-187.5 468.5,-181.5 474.5,-175.5 480.5,-175.5"/>
<polygon fill="none" stroke="#d3d3d3" points="480,-182.5 480,-224.5 543,-224.5 543,-182.5 480,-182.5"/>
<text text-anchor="start" x="493" y="-211.3" font-family="Times,serif" font-size="14.00" fill="#000000">AATT</text>
<text text-anchor="start" x="483" y="-199.7" font-family="Arial" font-size="11.00" fill="#606060">[APSEC16]</text>
<text text-anchor="start" x="490.5" y="-188.7" font-family="Arial" font-size="11.00" fill="#606060">[SCP18]</text>
<polygon fill="none" stroke="#d3d3d3" points="476.5,-179.5 476.5,-227.5 545.5,-227.5 545.5,-179.5 476.5,-179.5"/>
</g>
<!-- aatt&#45;&gt;thesis -->
<g id="edge14" class="edge">
<title>aatt&#45;&gt;thesis</title>
<path fill="none" stroke="#000000" d="M542.1455,-231.6664C556.0834,-244.271 572.6574,-259.2598 587.3756,-272.5701"/>
<polygon fill="#000000" stroke="#000000" points="585.1148,-275.2445 594.8793,-279.3561 589.81,-270.0527 585.1148,-275.2445"/>
</g>
<!-- android&#45;survey -->
<g id="node25" class="node">
<title>android&#45;survey</title>
<path fill="#d3d3d3" stroke="#d3d3d3" d="M352.5,-46C352.5,-46 401.5,-46 401.5,-46 407.5,-46 413.5,-52 413.5,-58 413.5,-58 413.5,-79 413.5,-79 413.5,-85 407.5,-91 401.5,-91 401.5,-91 352.5,-91 352.5,-91 346.5,-91 340.5,-85 340.5,-79 340.5,-79 340.5,-58 340.5,-58 340.5,-52 346.5,-46 352.5,-46"/>
<polygon fill="none" stroke="#d3d3d3" points="352,-52.5 352,-83.5 403,-83.5 403,-52.5 352,-52.5"/>
<text text-anchor="start" x="358" y="-70.3" font-family="Times,serif" font-size="14.00" fill="#000000">Survey</text>
<text text-anchor="start" x="355" y="-58.7" font-family="Arial" font-size="11.00" fill="#606060">[SCIS19]</text>
<polygon fill="none" stroke="#d3d3d3" points="348.5,-50 348.5,-87 405.5,-87 405.5,-50 348.5,-50"/>
</g>
<!-- aatt&#45;&gt;android&#45;survey -->
<g id="edge16" class="edge">
<title>aatt&#45;&gt;android&#45;survey</title>
<path fill="none" stroke="#000000" d="M482.9092,-175.1996C460.6108,-152.7347 429.5131,-121.405 406.7843,-98.5066"/>
<polygon fill="#000000" stroke="#000000" points="409.2494,-96.0218 399.7206,-91.3902 404.2813,-100.9532 409.2494,-96.0218"/>
</g>
<!-- c3 -->
<g id="node12" class="node">
<title>c3</title>
<path fill="#d3d3d3" stroke="#d3d3d3" d="M802,-378C802,-378 846,-378 846,-378 852,-378 858,-384 858,-390 858,-390 858,-411 858,-411 858,-417 852,-423 846,-423 846,-423 802,-423 802,-423 796,-423 790,-417 790,-411 790,-411 790,-390 790,-390 790,-384 796,-378 802,-378"/>
<polygon fill="none" stroke="#d3d3d3" points="801,-384.5 801,-415.5 847,-415.5 847,-384.5 801,-384.5"/>
<text text-anchor="start" x="816" y="-402.3" font-family="Times,serif" font-size="14.00" fill="#000000">C3</text>
<text text-anchor="start" x="804" y="-390.7" font-family="Arial" font-size="11.00" fill="#606060">[FSE16]</text>
<polygon fill="none" stroke="#d3d3d3" points="798,-382 798,-419 850,-419 850,-382 798,-382"/>
</g>
<!-- c3&#45;&gt;thesis -->
<g id="edge15" class="edge">
<title>c3&#45;&gt;thesis</title>
<path fill="none" stroke="#000000" d="M792.3527,-377.9499C787.6356,-374.9502 782.758,-372.0388 778,-369.5 751.5749,-355.4002 721.2297,-342.4281 694.6363,-332.0342"/>
<polygon fill="#000000" stroke="#000000" points="695.6122,-328.6593 685.0227,-328.3242 693.0919,-335.1899 695.6122,-328.6593"/>
</g>
<!-- c3&#45;&gt;diet -->
<g id="edge18" class="edge">
<title>c3&#45;&gt;diet</title>
<path fill="none" stroke="#000000" d="M824.2421,-377.9873C824.364,-366.6479 824.5141,-352.6878 824.6485,-340.1911"/>
<polygon fill="#000000" stroke="#000000" points="828.1489,-340.1648 824.7567,-330.1277 821.1493,-340.0895 828.1489,-340.1648"/>
</g>
<!-- gat -->
<g id="node13" class="node">
<title>gat</title>
<path fill="#d3d3d3" stroke="#d3d3d3" d="M287.5,-181C287.5,-181 348.5,-181 348.5,-181 354.5,-181 360.5,-187 360.5,-193 360.5,-193 360.5,-214 360.5,-214 360.5,-220 354.5,-226 348.5,-226 348.5,-226 287.5,-226 287.5,-226 281.5,-226 275.5,-220 275.5,-214 275.5,-214 275.5,-193 275.5,-193 275.5,-187 281.5,-181 287.5,-181"/>
<polygon fill="none" stroke="#d3d3d3" points="287,-187.5 287,-218.5 350,-218.5 350,-187.5 287,-187.5"/>
<text text-anchor="start" x="304.5" y="-205.3" font-family="Times,serif" font-size="14.00" fill="#000000">GAT</text>
<text text-anchor="start" x="290" y="-193.7" font-family="Arial" font-size="11.00" fill="#606060">[APSEC16]</text>
<polygon fill="none" stroke="#d3d3d3" points="283.5,-185 283.5,-222 352.5,-222 352.5,-185 283.5,-185"/>
</g>
<!-- gat&#45;&gt;android&#45;survey -->
<g id="edge17" class="edge">
<title>gat&#45;&gt;android&#45;survey</title>
<path fill="none" stroke="#000000" d="M327.8753,-180.904C337.49,-158.9041 352.1949,-125.2573 363.0116,-100.5075"/>
<polygon fill="#000000" stroke="#000000" points="366.2949,-101.7345 367.0925,-91.1697 359.8807,-98.9312 366.2949,-101.7345"/>
</g>
<!-- comedy -->
<g id="node14" class="node">
<title>comedy</title>
<path fill="#d3d3d3" stroke="#d3d3d3" d="M254,-471C254,-471 334,-471 334,-471 340,-471 346,-477 346,-483 346,-483 346,-504 346,-504 346,-510 340,-516 334,-516 334,-516 254,-516 254,-516 248,-516 242,-510 242,-504 242,-504 242,-483 242,-483 242,-477 248,-471 254,-471"/>
<polygon fill="none" stroke="#d3d3d3" points="253,-477.5 253,-508.5 335,-508.5 335,-477.5 253,-477.5"/>
<text text-anchor="start" x="270.5" y="-495.3" font-family="Times,serif" font-size="14.00" fill="#000000">Comedy</text>
<text text-anchor="start" x="256" y="-483.7" font-family="Arial" font-size="11.00" fill="#606060">[COMPSAC15]</text>
<polygon fill="none" stroke="#d3d3d3" points="250,-475 250,-512 338,-512 338,-475 250,-475"/>
</g>
<!-- bc -->
<g id="node17" class="node">
<title>bc</title>
<path fill="#d3d3d3" stroke="#d3d3d3" d="M657,-471C657,-471 733,-471 733,-471 739,-471 745,-477 745,-483 745,-483 745,-504 745,-504 745,-510 739,-516 733,-516 733,-516 657,-516 657,-516 651,-516 645,-510 645,-504 645,-504 645,-483 645,-483 645,-477 651,-471 657,-471"/>
<polygon fill="none" stroke="#d3d3d3" points="656,-477.5 656,-508.5 734,-508.5 734,-477.5 656,-477.5"/>
<text text-anchor="start" x="659" y="-495.3" font-family="Times,serif" font-size="14.00" fill="#000000">Bisect Coord</text>
<text text-anchor="start" x="675" y="-483.7" font-family="Arial" font-size="11.00" fill="#606060">[FSE16]</text>
<polygon fill="none" stroke="#d3d3d3" points="653,-475 653,-512 737,-512 737,-475 653,-475"/>
</g>
<!-- bc&#45;&gt;survey -->
<g id="edge7" class="edge">
<title>bc&#45;&gt;survey</title>
<path fill="none" stroke="#000000" d="M678.297,-470.9873C669.4633,-459.0809 658.4859,-444.2853 648.8725,-431.3281"/>
<polygon fill="#000000" stroke="#000000" points="651.5577,-429.0732 642.7883,-423.1277 645.936,-433.2442 651.5577,-429.0732"/>
</g>
<!-- att -->
<g id="node18" class="node">
<title>att</title>
<path fill="#d3d3d3" stroke="#d3d3d3" d="M246.5,-285C246.5,-285 329.5,-285 329.5,-285 335.5,-285 341.5,-291 341.5,-297 341.5,-297 341.5,-318 341.5,-318 341.5,-324 335.5,-330 329.5,-330 329.5,-330 246.5,-330 246.5,-330 240.5,-330 234.5,-324 234.5,-318 234.5,-318 234.5,-297 234.5,-297 234.5,-291 240.5,-285 246.5,-285"/>
<polygon fill="none" stroke="#d3d3d3" points="246,-291.5 246,-322.5 331,-322.5 331,-291.5 246,-291.5"/>
<text text-anchor="start" x="275" y="-309.3" font-family="Times,serif" font-size="14.00" fill="#000000">ATT</text>
<text text-anchor="start" x="249" y="-297.7" font-family="Arial" font-size="11.00" fill="#606060">[Internetware15]</text>
<polygon fill="none" stroke="#d3d3d3" points="242.5,-289 242.5,-326 333.5,-326 333.5,-289 242.5,-289"/>
</g>
<!-- att&#45;&gt;aatt -->
<g id="edge2" class="edge">
<title>att&#45;&gt;aatt</title>
<path fill="none" stroke="#000000" d="M320.7108,-284.8479C330.0996,-279.3938 340.6165,-274.2185 351,-271 373.3518,-264.0717 434.9324,-273.1862 456,-263 467.2793,-257.5465 477.3673,-248.6859 485.7278,-239.4491"/>
<polygon fill="#000000" stroke="#000000" points="488.5295,-241.5569 492.3325,-231.6681 483.1928,-237.027 488.5295,-241.5569"/>
</g>
<!-- att&#45;&gt;gat -->
<g id="edge1" class="edge">
<title>att&#45;&gt;gat</title>
<path fill="none" stroke="#000000" d="M294.5096,-284.9335C298.6374,-270.6238 304.0442,-251.8799 308.63,-235.9828"/>
<polygon fill="#000000" stroke="#000000" points="312.0944,-236.6007 311.5032,-226.0224 305.3686,-234.6606 312.0944,-236.6007"/>
</g>
<!-- rwtrace -->
<g id="node19" class="node">
<title>rwtrace</title>
<path fill="#d3d3d3" stroke="#d3d3d3" d="M637,-564C637,-564 695,-564 695,-564 701,-564 707,-570 707,-576 707,-576 707,-597 707,-597 707,-603 701,-609 695,-609 695,-609 637,-609 637,-609 631,-609 625,-603 625,-597 625,-597 625,-576 625,-576 625,-570 631,-564 637,-564"/>
<polygon fill="none" stroke="#d3d3d3" points="636,-570.5 636,-601.5 696,-601.5 696,-570.5 636,-570.5"/>
<text text-anchor="start" x="639" y="-588.3" font-family="Times,serif" font-size="14.00" fill="#000000">RWTrace</text>
<text text-anchor="start" x="645.5" y="-576.7" font-family="Arial" font-size="11.00" fill="#606060">[ASE15]</text>
<polygon fill="none" stroke="#d3d3d3" points="633,-568 633,-605 699,-605 699,-568 633,-568"/>
</g>
<!-- rwtrace&#45;&gt;survey -->
<g id="edge6" class="edge">
<title>rwtrace&#45;&gt;survey</title>
<path fill="none" stroke="#000000" d="M645.1583,-563.9345C641.5026,-558.8538 638.1771,-553.2523 636,-547.5 621.8665,-510.1561 621.2508,-463.6993 622.9228,-433.127"/>
<polygon fill="#000000" stroke="#000000" points="626.4238,-433.2258 623.5912,-423.0167 619.439,-432.764 626.4238,-433.2258"/>
</g>
<!-- rwtrace&#45;&gt;bc -->
<g id="edge4" class="edge">
<title>rwtrace&#45;&gt;bc</title>
<path fill="none" stroke="#000000" d="M673.0201,-563.9873C676.5914,-552.5345 680.9963,-538.4084 684.9228,-525.8167"/>
<polygon fill="#000000" stroke="#000000" points="688.3084,-526.7163 687.944,-516.1277 681.6257,-524.6324 688.3084,-526.7163"/>
</g>
<!-- cosedroid -->
<g id="node20" class="node">
<title>cosedroid</title>
<path fill="#d3d3d3" stroke="#d3d3d3" d="M252,-378C252,-378 332,-378 332,-378 338,-378 344,-384 344,-390 344,-390 344,-411 344,-411 344,-417 338,-423 332,-423 332,-423 252,-423 252,-423 246,-423 240,-417 240,-411 240,-411 240,-390 240,-390 240,-384 246,-378 252,-378"/>
<polygon fill="none" stroke="#d3d3d3" points="251,-384.5 251,-415.5 333,-415.5 333,-384.5 251,-384.5"/>
<text text-anchor="start" x="262.5" y="-402.3" font-family="Times,serif" font-size="14.00" fill="#000000">CoseDroid</text>
<text text-anchor="start" x="254" y="-390.7" font-family="Arial" font-size="11.00" fill="#606060">[COMPSAC14]</text>
<polygon fill="none" stroke="#d3d3d3" points="248,-382 248,-419 336,-419 336,-382 248,-382"/>
</g>
<!-- cosedroid&#45;&gt;att -->
<g id="edge13" class="edge">
<title>cosedroid&#45;&gt;att</title>
<path fill="none" stroke="#000000" d="M291.0317,-377.9873C290.544,-366.6479 289.9436,-352.6878 289.4061,-340.1911"/>
<polygon fill="#000000" stroke="#000000" points="292.8998,-339.9681 288.9732,-330.1277 285.9063,-340.2689 292.8998,-339.9681"/>
</g>
<!-- care -->
<g id="node21" class="node">
<title>care</title>
<path fill="#d3d3d3" stroke="#d3d3d3" d="M611.5,-649C611.5,-649 660.5,-649 660.5,-649 666.5,-649 672.5,-655 672.5,-661 672.5,-661 672.5,-682 672.5,-682 672.5,-688 666.5,-694 660.5,-694 660.5,-694 611.5,-694 611.5,-694 605.5,-694 599.5,-688 599.5,-682 599.5,-682 599.5,-661 599.5,-661 599.5,-655 605.5,-649 611.5,-649"/>
<polygon fill="none" stroke="#d3d3d3" points="611,-655.5 611,-686.5 662,-686.5 662,-655.5 611,-655.5"/>
<text text-anchor="start" x="618" y="-673.3" font-family="Times,serif" font-size="14.00" fill="#000000">CARE</text>
<text text-anchor="start" x="614" y="-661.7" font-family="Arial" font-size="11.00" fill="#606060">[ICSE14]</text>
<polygon fill="none" stroke="#d3d3d3" points="607.5,-653 607.5,-690 664.5,-690 664.5,-653 607.5,-653"/>
</g>
<!-- care&#45;&gt;survey -->
<g id="edge5" class="edge">
<title>care&#45;&gt;survey</title>
<path fill="none" stroke="#000000" d="M619.3859,-648.8483C618.0116,-646.1375 616.8325,-643.3261 616,-640.5 593.6433,-564.6084 612.0787,-541.3942 618,-462.5 618.7141,-452.9853 619.8812,-442.6937 621.106,-433.2809"/>
<polygon fill="#000000" stroke="#000000" points="624.6089,-433.4965 622.4922,-423.1152 617.6731,-432.5506 624.6089,-433.4965"/>
</g>
<!-- care&#45;&gt;rwtrace -->
<g id="edge3" class="edge">
<title>care&#45;&gt;rwtrace</title>
<path fill="none" stroke="#000000" d="M644.0394,-648.7216C647.2937,-639.5011 651.1096,-628.6893 654.6394,-618.6883"/>
<polygon fill="#000000" stroke="#000000" points="658.0146,-619.6414 658.0424,-609.0466 651.4137,-617.3116 658.0146,-619.6414"/>
</g>
<!-- uga -->
<g id="node22" class="node">
<title>uga</title>
<path fill="#d3d3d3" stroke="#d3d3d3" d="M148.5,-378C148.5,-378 209.5,-378 209.5,-378 215.5,-378 221.5,-384 221.5,-390 221.5,-390 221.5,-411 221.5,-411 221.5,-417 215.5,-423 209.5,-423 209.5,-423 148.5,-423 148.5,-423 142.5,-423 136.5,-417 136.5,-411 136.5,-411 136.5,-390 136.5,-390 136.5,-384 142.5,-378 148.5,-378"/>
<polygon fill="none" stroke="#d3d3d3" points="148,-384.5 148,-415.5 211,-415.5 211,-384.5 148,-384.5"/>
<text text-anchor="start" x="164.5" y="-402.3" font-family="Times,serif" font-size="14.00" fill="#000000">UGA</text>
<text text-anchor="start" x="151" y="-390.7" font-family="Arial" font-size="11.00" fill="#606060">[APSEC14]</text>
<polygon fill="none" stroke="#d3d3d3" points="144.5,-382 144.5,-419 213.5,-419 213.5,-382 144.5,-382"/>
</g>
<!-- uga&#45;&gt;att -->
<g id="edge10" class="edge">
<title>uga&#45;&gt;att</title>
<path fill="none" stroke="#000000" d="M205.3859,-377.9873C219.8722,-365.6274 238.0079,-350.1538 253.594,-336.8556"/>
<polygon fill="#000000" stroke="#000000" points="256.1437,-339.281 261.4793,-330.1277 251.6002,-333.9558 256.1437,-339.281"/>
</g>
<!-- tapir -->
<g id="node24" class="node">
<title>tapir</title>
<path fill="#d3d3d3" stroke="#d3d3d3" d="M44,-378C44,-378 106,-378 106,-378 112,-378 118,-384 118,-390 118,-390 118,-411 118,-411 118,-417 112,-423 106,-423 106,-423 44,-423 44,-423 38,-423 32,-417 32,-411 32,-411 32,-390 32,-390 32,-384 38,-378 44,-378"/>
<polygon fill="none" stroke="#d3d3d3" points="43,-384.5 43,-415.5 107,-415.5 107,-384.5 43,-384.5"/>
<text text-anchor="start" x="55" y="-402.3" font-family="Times,serif" font-size="14.00" fill="#000000">TAPIR</text>
<text text-anchor="start" x="46" y="-390.7" font-family="Arial" font-size="11.00" fill="#606060">[SANER19]</text>
<polygon fill="none" stroke="#d3d3d3" points="40,-382 40,-419 110,-419 110,-382 40,-382"/>
</g>
<!-- test&#45;survey -->
<g id="node26" class="node">
<title>test&#45;survey</title>
<path fill="#d3d3d3" stroke="#d3d3d3" d="M215.5,-649C215.5,-649 260.5,-649 260.5,-649 266.5,-649 272.5,-655 272.5,-661 272.5,-661 272.5,-682 272.5,-682 272.5,-688 266.5,-694 260.5,-694 260.5,-694 215.5,-694 215.5,-694 209.5,-694 203.5,-688 203.5,-682 203.5,-682 203.5,-661 203.5,-661 203.5,-655 209.5,-649 215.5,-649"/>
<polygon fill="none" stroke="#d3d3d3" points="215,-655.5 215,-686.5 262,-686.5 262,-655.5 215,-655.5"/>
<text text-anchor="start" x="219" y="-673.3" font-family="Times,serif" font-size="14.00" fill="#000000">Survey</text>
<text text-anchor="start" x="218" y="-661.7" font-family="Arial" font-size="11.00" fill="#606060">[FCS19]</text>
<polygon fill="none" stroke="#d3d3d3" points="211.5,-653 211.5,-690 264.5,-690 264.5,-653 211.5,-653"/>
</g>
<!-- test&#45;survey&#45;&gt;c2v -->
<g id="edge19" class="edge">
<title>test&#45;survey&#45;&gt;c2v</title>
<path fill="none" stroke="#000000" d="M238,-648.7216C238,-639.6932 238,-629.1391 238,-619.3144"/>
<polygon fill="#000000" stroke="#000000" points="241.5001,-619.0465 238,-609.0466 234.5001,-619.0466 241.5001,-619.0465"/>
</g>
</g>
</svg>
