<?xml version="1.0" encoding="UTF-8" standalone="no"?>
<!DOCTYPE svg PUBLIC "-//W3C//DTD SVG 1.1//EN"
 "http://www.w3.org/Graphics/SVG/1.1/DTD/svg11.dtd">
<!-- Generated by graphviz version 2.40.1 (20161225.0304)
 -->
<!-- Title: G Pages: 1 -->
<svg width="906pt" height="760pt"
 viewBox="0.00 0.00 906.00 759.59" xmlns="http://www.w3.org/2000/svg" xmlns:xlink="http://www.w3.org/1999/xlink">
<g id="graph0" class="graph" transform="scale(1 1) rotate(0) translate(4 755.5918)">
<title>G</title>
<polygon fill="#ffffff" stroke="transparent" points="-4,4 -4,-755.5918 902,-755.5918 902,4 -4,4"/>
<g id="clust1" class="cluster">
<title>cluster_subG</title>
<polygon fill="none" stroke="#000000" points="8,-8 8,-743.5918 890,-743.5918 890,-8 8,-8"/>
</g>
<g id="clust2" class="cluster">
<title>cluster_sta</title>
<polygon fill="none" stroke="#000000" points="16,-161.1973 16,-735.5918 882,-735.5918 882,-161.1973 16,-161.1973"/>
<text text-anchor="middle" x="449" y="-720.3918" font-family="Arial" font-size="14.00" fill="#000000">Software Testing and Analysis</text>
</g>
<g id="clust3" class="cluster">
<title>cluster_adverse</title>
<polygon fill="none" stroke="#000000" points="559,-367.2959 559,-453.3945 731,-453.3945 731,-367.2959 559,-367.2959"/>
<text text-anchor="middle" x="645" y="-438.1945" font-family="Arial" font-size="14.00" fill="#000000">Adversarial Conditions</text>
</g>
<g id="clust4" class="cluster">
<title>cluster_concurrency</title>
<polygon fill="none" stroke="#000000" points="265,-169.1973 265,-266.2959 493,-266.2959 493,-169.1973 265,-169.1973"/>
<text text-anchor="middle" x="379" y="-251.0959" font-family="Arial" font-size="14.00" fill="#000000">Exploration of Interleaving Spaces</text>
</g>
<g id="clust5" class="cluster">
<title>cluster_analysis</title>
<polygon fill="none" stroke="#000000" points="559,-535.3945 559,-703.4932 874,-703.4932 874,-535.3945 559,-535.3945"/>
<text text-anchor="middle" x="716.5" y="-688.2932" font-family="Arial" font-size="14.00" fill="#000000">Software Analysis</text>
</g>
<g id="clust6" class="cluster">
<title>cluster_smd</title>
<polygon fill="none" stroke="#000000" points="251,-274.2959 251,-703.4932 551,-703.4932 551,-274.2959 251,-274.2959"/>
<text text-anchor="middle" x="401" y="-688.2932" font-family="Arial" font-size="14.00" fill="#000000">Understanding Shared Memory Dependences</text>
</g>
<g id="clust7" class="cluster">
<title>cluster_mobile</title>
<polygon fill="none" stroke="#000000" points="24,-174.6973 24,-453.3945 243,-453.3945 243,-174.6973 24,-174.6973"/>
<text text-anchor="middle" x="133.5" y="-438.1945" font-family="Arial" font-size="14.00" fill="#000000">Mobile Apps</text>
</g>
<g id="clust8" class="cluster">
<title>cluster_synthesis</title>
<polygon fill="none" stroke="#000000" points="463,-16 463,-153.1973 725,-153.1973 725,-16 463,-16"/>
<text text-anchor="middle" x="594" y="-137.9973" font-family="Arial" font-size="14.00" fill="#000000">Program Synthesis</text>
</g>
<g id="clust9" class="cluster">
<title>cluster_transformer</title>
<polygon fill="none" stroke="#000000" points="471,-24 471,-121.0986 717,-121.0986 717,-24 471,-24"/>
<text text-anchor="middle" x="594" y="-105.8986" font-family="Arial" font-size="14.00" fill="#000000">Transformers</text>
</g>
<g id="clust10" class="cluster">
<title>cluster_tech</title>
<polygon fill="none" stroke="#000000" points="254,-24 254,-121.0986 455,-121.0986 455,-24 254,-24"/>
<text text-anchor="middle" x="354.5" y="-105.8986" font-family="Arial" font-size="14.00" fill="#000000">Fun and Profits</text>
</g>
<!-- rescue -->
<g id="node1" class="node">
<title>rescue</title>
<path fill="#d3d3d3" stroke="#d3d3d3" d="M665,-375.7959C665,-375.7959 711,-375.7959 711,-375.7959 717,-375.7959 723,-381.7959 723,-387.7959 723,-387.7959 723,-408.7959 723,-408.7959 723,-414.7959 717,-420.7959 711,-420.7959 711,-420.7959 665,-420.7959 665,-420.7959 659,-420.7959 653,-414.7959 653,-408.7959 653,-408.7959 653,-387.7959 653,-387.7959 653,-381.7959 659,-375.7959 665,-375.7959"/>
<polygon fill="none" stroke="#d3d3d3" points="664,-382.2959 664,-413.2959 712,-413.2959 712,-382.2959 664,-382.2959"/>
<text text-anchor="start" x="666.6172" y="-400.0959" font-family="Times,serif" font-size="14.00" fill="#000000">ReScue</text>
<text text-anchor="start" x="667.8208" y="-388.4959" font-family="Arial" font-size="11.00" fill="#606060">[ASE18]</text>
<polygon fill="none" stroke="#d3d3d3" points="661,-379.7959 661,-416.7959 715,-416.7959 715,-379.7959 661,-379.7959"/>
</g>
<!-- scs -->
<g id="node2" class="node">
<title>scs</title>
<path fill="#d3d3d3" stroke="#d3d3d3" d="M396.5,-183.1973C396.5,-183.1973 439.5,-183.1973 439.5,-183.1973 445.5,-183.1973 451.5,-189.1973 451.5,-195.1973 451.5,-195.1973 451.5,-216.1973 451.5,-216.1973 451.5,-222.1973 445.5,-228.1973 439.5,-228.1973 439.5,-228.1973 396.5,-228.1973 396.5,-228.1973 390.5,-228.1973 384.5,-222.1973 384.5,-216.1973 384.5,-216.1973 384.5,-195.1973 384.5,-195.1973 384.5,-189.1973 390.5,-183.1973 396.5,-183.1973"/>
<polygon fill="none" stroke="#d3d3d3" points="396,-189.6973 396,-220.6973 441,-220.6973 441,-189.6973 396,-189.6973"/>
<text text-anchor="start" x="406.0449" y="-207.4973" font-family="Times,serif" font-size="14.00" fill="#000000">SCS</text>
<text text-anchor="start" x="398.6296" y="-195.8973" font-family="Arial" font-size="11.00" fill="#606060">[FSE18]</text>
<polygon fill="none" stroke="#d3d3d3" points="392.5,-187.1973 392.5,-224.1973 443.5,-224.1973 443.5,-187.1973 392.5,-187.1973"/>
</g>
<!-- abc -->
<g id="node12" class="node">
<title>abc</title>
<path fill="#d3d3d3" stroke="#d3d3d3" d="M274.5,-38C274.5,-38 333.5,-38 333.5,-38 339.5,-38 345.5,-44 345.5,-50 345.5,-50 345.5,-71 345.5,-71 345.5,-77 339.5,-83 333.5,-83 333.5,-83 274.5,-83 274.5,-83 268.5,-83 262.5,-77 262.5,-71 262.5,-71 262.5,-50 262.5,-50 262.5,-44 268.5,-38 274.5,-38"/>
<polygon fill="none" stroke="#d3d3d3" points="274,-44.5 274,-75.5 335,-75.5 335,-44.5 274,-44.5"/>
<text text-anchor="start" x="290.1069" y="-62.3" font-family="Times,serif" font-size="14.00" fill="#000000">ABC</text>
<text text-anchor="start" x="276.6804" y="-50.7" font-family="Arial" font-size="11.00" fill="#606060">[APSEC15]</text>
<polygon fill="none" stroke="#d3d3d3" points="270.5,-42 270.5,-79 337.5,-79 337.5,-42 270.5,-42"/>
</g>
<!-- scs&#45;&gt;abc -->
<!-- enter -->
<g id="node14" class="node">
<title>enter</title>
<path fill="#d3d3d3" stroke="#d3d3d3" d="M491,-38C491,-38 573,-38 573,-38 579,-38 585,-44 585,-50 585,-50 585,-71 585,-71 585,-77 579,-83 573,-83 573,-83 491,-83 491,-83 485,-83 479,-77 479,-71 479,-71 479,-50 479,-50 479,-44 485,-38 491,-38"/>
<polygon fill="none" stroke="#d3d3d3" points="490,-44.5 490,-75.5 574,-75.5 574,-44.5 490,-44.5"/>
<text text-anchor="start" x="509.4482" y="-62.3" font-family="Times,serif" font-size="14.00" fill="#000000">ENTER</text>
<text text-anchor="start" x="492.5654" y="-50.7" font-family="Arial" font-size="11.00" fill="#606060">[ICSE18 Poster]</text>
<polygon fill="none" stroke="#d3d3d3" points="487,-42 487,-79 577,-79 577,-42 487,-42"/>
</g>
<!-- scs&#45;&gt;enter -->
<!-- aotes -->
<g id="node3" class="node">
<title>aotes</title>
<path fill="#d3d3d3" stroke="#d3d3d3" d="M615,-32.5C615,-32.5 697,-32.5 697,-32.5 703,-32.5 709,-38.5 709,-44.5 709,-44.5 709,-76.5 709,-76.5 709,-82.5 703,-88.5 697,-88.5 697,-88.5 615,-88.5 615,-88.5 609,-88.5 603,-82.5 603,-76.5 603,-76.5 603,-44.5 603,-44.5 603,-38.5 609,-32.5 615,-32.5"/>
<polygon fill="none" stroke="#d3d3d3" points="614,-39.5 614,-81.5 698,-81.5 698,-39.5 614,-39.5"/>
<text text-anchor="start" x="633.4448" y="-68.3" font-family="Times,serif" font-size="14.00" fill="#000000">AOTES</text>
<text text-anchor="start" x="616.5654" y="-56.7" font-family="Arial" font-size="11.00" fill="#606060">[ICSE17 Poster]</text>
<text text-anchor="start" x="626.9612" y="-45.7" font-family="Arial" font-size="11.00" fill="#606060">[ECOOP18]</text>
<polygon fill="none" stroke="#d3d3d3" points="611,-36.5 611,-84.5 701,-84.5 701,-36.5 611,-36.5"/>
</g>
<!-- needle -->
<g id="node4" class="node">
<title>needle</title>
<path fill="#d3d3d3" stroke="#d3d3d3" d="M802,-625.8945C802,-625.8945 854,-625.8945 854,-625.8945 860,-625.8945 866,-631.8945 866,-637.8945 866,-637.8945 866,-658.8945 866,-658.8945 866,-664.8945 860,-670.8945 854,-670.8945 854,-670.8945 802,-670.8945 802,-670.8945 796,-670.8945 790,-664.8945 790,-658.8945 790,-658.8945 790,-637.8945 790,-637.8945 790,-631.8945 796,-625.8945 802,-625.8945"/>
<polygon fill="none" stroke="#d3d3d3" points="801,-632.3945 801,-663.3945 855,-663.3945 855,-632.3945 801,-632.3945"/>
<text text-anchor="start" x="808.1792" y="-650.1945" font-family="Times,serif" font-size="14.00" fill="#000000">Needle</text>
<text text-anchor="start" x="803.5508" y="-638.5945" font-family="Arial" font-size="11.00" fill="#606060">[TURC18]</text>
<polygon fill="none" stroke="#d3d3d3" points="798,-629.8945 798,-666.8945 858,-666.8945 858,-629.8945 798,-629.8945"/>
</g>
<!-- repdroid -->
<g id="node10" class="node">
<title>repdroid</title>
<path fill="#d3d3d3" stroke="#d3d3d3" d="M794.5,-543.8945C794.5,-543.8945 853.5,-543.8945 853.5,-543.8945 859.5,-543.8945 865.5,-549.8945 865.5,-555.8945 865.5,-555.8945 865.5,-576.8945 865.5,-576.8945 865.5,-582.8945 859.5,-588.8945 853.5,-588.8945 853.5,-588.8945 794.5,-588.8945 794.5,-588.8945 788.5,-588.8945 782.5,-582.8945 782.5,-576.8945 782.5,-576.8945 782.5,-555.8945 782.5,-555.8945 782.5,-549.8945 788.5,-543.8945 794.5,-543.8945"/>
<polygon fill="none" stroke="#d3d3d3" points="794,-550.3945 794,-581.3945 855,-581.3945 855,-550.3945 794,-550.3945"/>
<text text-anchor="start" x="796.8931" y="-568.1945" font-family="Times,serif" font-size="14.00" fill="#000000">RepDroid</text>
<text text-anchor="start" x="802.1858" y="-556.5945" font-family="Arial" font-size="11.00" fill="#606060">[ICPC17]</text>
<polygon fill="none" stroke="#d3d3d3" points="790.5,-547.8945 790.5,-584.8945 857.5,-584.8945 857.5,-547.8945 790.5,-547.8945"/>
</g>
<!-- needle&#45;&gt;repdroid -->
<g id="edge10" class="edge">
<title>needle&#45;&gt;repdroid</title>
<path fill="none" stroke="#000000" d="M826.8858,-625.553C826.487,-617.3784 826.0294,-607.9969 825.5978,-599.1497"/>
<polygon fill="#000000" stroke="#000000" points="829.0914,-598.9312 825.1082,-589.1136 822.0997,-599.2723 829.0914,-598.9312"/>
</g>
<!-- thesis -->
<g id="node5" class="node">
<title>thesis</title>
<path fill="#d3d3d3" stroke="#d3d3d3" d="M372,-282.7959C372,-282.7959 464,-282.7959 464,-282.7959 470,-282.7959 476,-288.7959 476,-294.7959 476,-294.7959 476,-326.7959 476,-326.7959 476,-332.7959 470,-338.7959 464,-338.7959 464,-338.7959 372,-338.7959 372,-338.7959 366,-338.7959 360,-332.7959 360,-326.7959 360,-326.7959 360,-294.7959 360,-294.7959 360,-288.7959 366,-282.7959 372,-282.7959"/>
<polygon fill="none" stroke="#d3d3d3" points="371,-289.7959 371,-331.7959 465,-331.7959 465,-289.7959 371,-289.7959"/>
<text text-anchor="start" x="385.6489" y="-318.5959" font-family="Times,serif" font-size="14.00" fill="#000000">PhD Thesis</text>
<text text-anchor="start" x="385.0779" y="-306.9959" font-family="Arial" font-size="11.00" fill="#606060">Yanyan Jiang</text>
<text text-anchor="start" x="373.6777" y="-295.9959" font-family="Arial" font-size="11.00" fill="#606060">Nanjing University</text>
<polygon fill="none" stroke="#d3d3d3" points="368,-286.7959 368,-334.7959 468,-334.7959 468,-286.7959 368,-286.7959"/>
</g>
<!-- thesis&#45;&gt;scs -->
<g id="edge11" class="edge">
<title>thesis&#45;&gt;scs</title>
<path fill="none" stroke="#000000" d="M418,-282.6314C418,-269.0646 418,-252.7115 418,-238.5771"/>
<polygon fill="#000000" stroke="#000000" points="421.5001,-238.2839 418,-228.2839 414.5001,-238.2839 421.5001,-238.2839"/>
</g>
<!-- gat -->
<g id="node6" class="node">
<title>gat</title>
<path fill="#d3d3d3" stroke="#d3d3d3" d="M151.5,-183.1973C151.5,-183.1973 210.5,-183.1973 210.5,-183.1973 216.5,-183.1973 222.5,-189.1973 222.5,-195.1973 222.5,-195.1973 222.5,-216.1973 222.5,-216.1973 222.5,-222.1973 216.5,-228.1973 210.5,-228.1973 210.5,-228.1973 151.5,-228.1973 151.5,-228.1973 145.5,-228.1973 139.5,-222.1973 139.5,-216.1973 139.5,-216.1973 139.5,-195.1973 139.5,-195.1973 139.5,-189.1973 145.5,-183.1973 151.5,-183.1973"/>
<polygon fill="none" stroke="#d3d3d3" points="151,-189.6973 151,-220.6973 212,-220.6973 212,-189.6973 151,-189.6973"/>
<text text-anchor="start" x="167.8896" y="-207.4973" font-family="Times,serif" font-size="14.00" fill="#000000">GAT</text>
<text text-anchor="start" x="153.6804" y="-195.8973" font-family="Arial" font-size="11.00" fill="#606060">[APSEC16]</text>
<polygon fill="none" stroke="#d3d3d3" points="147.5,-187.1973 147.5,-224.1973 214.5,-224.1973 214.5,-187.1973 147.5,-187.1973"/>
</g>
<!-- gain -->
<g id="node7" class="node">
<title>gain</title>
<path fill="#d3d3d3" stroke="#d3d3d3" d="M375.5,-32.5C375.5,-32.5 434.5,-32.5 434.5,-32.5 440.5,-32.5 446.5,-38.5 446.5,-44.5 446.5,-44.5 446.5,-76.5 446.5,-76.5 446.5,-82.5 440.5,-88.5 434.5,-88.5 434.5,-88.5 375.5,-88.5 375.5,-88.5 369.5,-88.5 363.5,-82.5 363.5,-76.5 363.5,-76.5 363.5,-44.5 363.5,-44.5 363.5,-38.5 369.5,-32.5 375.5,-32.5"/>
<polygon fill="none" stroke="#d3d3d3" points="375,-39.5 375,-81.5 436,-81.5 436,-39.5 375,-39.5"/>
<text text-anchor="start" x="388.0034" y="-68.3" font-family="Times,serif" font-size="14.00" fill="#000000">GAIN</text>
<text text-anchor="start" x="377.6804" y="-56.7" font-family="Arial" font-size="11.00" fill="#606060">[APSEC14]</text>
<text text-anchor="start" x="387.77" y="-45.7" font-family="Arial" font-size="11.00" fill="#606060">[IST16]</text>
<polygon fill="none" stroke="#d3d3d3" points="371.5,-36.5 371.5,-84.5 438.5,-84.5 438.5,-36.5 371.5,-36.5"/>
</g>
<!-- survey -->
<g id="node8" class="node">
<title>survey</title>
<path fill="#d3d3d3" stroke="#d3d3d3" d="M396.5,-375.7959C396.5,-375.7959 439.5,-375.7959 439.5,-375.7959 445.5,-375.7959 451.5,-381.7959 451.5,-387.7959 451.5,-387.7959 451.5,-408.7959 451.5,-408.7959 451.5,-414.7959 445.5,-420.7959 439.5,-420.7959 439.5,-420.7959 396.5,-420.7959 396.5,-420.7959 390.5,-420.7959 384.5,-414.7959 384.5,-408.7959 384.5,-408.7959 384.5,-387.7959 384.5,-387.7959 384.5,-381.7959 390.5,-375.7959 396.5,-375.7959"/>
<polygon fill="none" stroke="#d3d3d3" points="396,-382.2959 396,-413.2959 441,-413.2959 441,-382.2959 396,-382.2959"/>
<text text-anchor="start" x="398.6689" y="-400.0959" font-family="Times,serif" font-size="14.00" fill="#000000">Survey</text>
<text text-anchor="start" x="399.8489" y="-388.4959" font-family="Arial" font-size="11.00" fill="#606060">[JoS17]</text>
<polygon fill="none" stroke="#d3d3d3" points="392.5,-379.7959 392.5,-416.7959 443.5,-416.7959 443.5,-379.7959 392.5,-379.7959"/>
</g>
<!-- survey&#45;&gt;thesis -->
<g id="edge8" class="edge">
<title>survey&#45;&gt;thesis</title>
<path fill="none" stroke="#000000" d="M418,-375.7625C418,-367.595 418,-358.126 418,-348.986"/>
<polygon fill="#000000" stroke="#000000" points="421.5001,-348.8933 418,-338.8934 414.5001,-348.8934 421.5001,-348.8933"/>
</g>
<!-- aatt -->
<g id="node9" class="node">
<title>aatt</title>
<path fill="#d3d3d3" stroke="#d3d3d3" d="M292.5,-177.6973C292.5,-177.6973 351.5,-177.6973 351.5,-177.6973 357.5,-177.6973 363.5,-183.6973 363.5,-189.6973 363.5,-189.6973 363.5,-221.6973 363.5,-221.6973 363.5,-227.6973 357.5,-233.6973 351.5,-233.6973 351.5,-233.6973 292.5,-233.6973 292.5,-233.6973 286.5,-233.6973 280.5,-227.6973 280.5,-221.6973 280.5,-221.6973 280.5,-189.6973 280.5,-189.6973 280.5,-183.6973 286.5,-177.6973 292.5,-177.6973"/>
<polygon fill="none" stroke="#d3d3d3" points="292,-184.6973 292,-226.6973 353,-226.6973 353,-184.6973 292,-184.6973"/>
<text text-anchor="start" x="304.6138" y="-213.4973" font-family="Times,serif" font-size="14.00" fill="#000000">AATT</text>
<text text-anchor="start" x="294.6804" y="-201.8973" font-family="Arial" font-size="11.00" fill="#606060">[APSEC16]</text>
<text text-anchor="start" x="302.0173" y="-190.8973" font-family="Arial" font-size="11.00" fill="#606060">[SCP18]</text>
<polygon fill="none" stroke="#d3d3d3" points="288.5,-181.6973 288.5,-229.6973 355.5,-229.6973 355.5,-181.6973 288.5,-181.6973"/>
</g>
<!-- aatt&#45;&gt;thesis -->
<g id="edge13" class="edge">
<title>aatt&#45;&gt;thesis</title>
<path fill="none" stroke="#000000" d="M346.8366,-233.9055C355.9456,-244.1617 366.3802,-255.8067 376,-266.2959 378.6702,-269.2074 381.4509,-272.2121 384.2536,-275.2214"/>
<polygon fill="#000000" stroke="#000000" points="381.8272,-277.7508 391.2156,-282.6608 386.9382,-272.9678 381.8272,-277.7508"/>
</g>
<!-- c3 -->
<g id="node11" class="node">
<title>c3</title>
<path fill="#d3d3d3" stroke="#d3d3d3" d="M579.5,-375.7959C579.5,-375.7959 622.5,-375.7959 622.5,-375.7959 628.5,-375.7959 634.5,-381.7959 634.5,-387.7959 634.5,-387.7959 634.5,-408.7959 634.5,-408.7959 634.5,-414.7959 628.5,-420.7959 622.5,-420.7959 622.5,-420.7959 579.5,-420.7959 579.5,-420.7959 573.5,-420.7959 567.5,-414.7959 567.5,-408.7959 567.5,-408.7959 567.5,-387.7959 567.5,-387.7959 567.5,-381.7959 573.5,-375.7959 579.5,-375.7959"/>
<polygon fill="none" stroke="#d3d3d3" points="579,-382.2959 579,-413.2959 624,-413.2959 624,-382.2959 579,-382.2959"/>
<text text-anchor="start" x="593.3311" y="-400.0959" font-family="Times,serif" font-size="14.00" fill="#000000">C3</text>
<text text-anchor="start" x="581.6296" y="-388.4959" font-family="Arial" font-size="11.00" fill="#606060">[FSE16]</text>
<polygon fill="none" stroke="#d3d3d3" points="575.5,-379.7959 575.5,-416.7959 626.5,-416.7959 626.5,-379.7959 575.5,-379.7959"/>
</g>
<!-- c3&#45;&gt;thesis -->
<g id="edge14" class="edge">
<title>c3&#45;&gt;thesis</title>
<path fill="none" stroke="#000000" d="M569.3437,-375.7626C564.6279,-372.7605 559.7531,-369.8439 555,-367.2959 533.0757,-355.5431 508.1698,-344.6085 485.662,-335.5506"/>
<polygon fill="#000000" stroke="#000000" points="486.7642,-332.2225 476.1783,-331.7866 484.1818,-338.7287 486.7642,-332.2225"/>
</g>
<!-- att -->
<g id="node13" class="node">
<title>att</title>
<path fill="#d3d3d3" stroke="#d3d3d3" d="M139.5,-288.2959C139.5,-288.2959 222.5,-288.2959 222.5,-288.2959 228.5,-288.2959 234.5,-294.2959 234.5,-300.2959 234.5,-300.2959 234.5,-321.2959 234.5,-321.2959 234.5,-327.2959 228.5,-333.2959 222.5,-333.2959 222.5,-333.2959 139.5,-333.2959 139.5,-333.2959 133.5,-333.2959 127.5,-327.2959 127.5,-321.2959 127.5,-321.2959 127.5,-300.2959 127.5,-300.2959 127.5,-294.2959 133.5,-288.2959 139.5,-288.2959"/>
<polygon fill="none" stroke="#d3d3d3" points="139,-294.7959 139,-325.7959 224,-325.7959 224,-294.7959 139,-294.7959"/>
<text text-anchor="start" x="168.6689" y="-312.5959" font-family="Times,serif" font-size="14.00" fill="#000000">ATT</text>
<text text-anchor="start" x="141.7539" y="-300.9959" font-family="Arial" font-size="11.00" fill="#606060">[Internetware15]</text>
<polygon fill="none" stroke="#d3d3d3" points="135.5,-292.2959 135.5,-329.2959 226.5,-329.2959 226.5,-292.2959 135.5,-292.2959"/>
</g>
<!-- att&#45;&gt;gat -->
<g id="edge1" class="edge">
<title>att&#45;&gt;gat</title>
<path fill="none" stroke="#000000" d="M181,-288.2496C181,-273.7032 181,-254.5442 181,-238.3454"/>
<polygon fill="#000000" stroke="#000000" points="184.5001,-238.2062 181,-228.2063 177.5001,-238.2063 184.5001,-238.2062"/>
</g>
<!-- att&#45;&gt;aatt -->
<g id="edge2" class="edge">
<title>att&#45;&gt;aatt</title>
<path fill="none" stroke="#000000" d="M215.646,-288.2529C225.8703,-281.3822 236.9973,-273.6877 247,-266.2959 258.05,-258.1302 269.7241,-248.9713 280.4861,-240.2956"/>
<polygon fill="#000000" stroke="#000000" points="282.9547,-242.7997 288.5127,-233.7798 278.5428,-237.365 282.9547,-242.7997"/>
</g>
<!-- bc -->
<g id="node15" class="node">
<title>bc</title>
<path fill="#d3d3d3" stroke="#d3d3d3" d="M449.5,-461.8945C449.5,-461.8945 526.5,-461.8945 526.5,-461.8945 532.5,-461.8945 538.5,-467.8945 538.5,-473.8945 538.5,-473.8945 538.5,-494.8945 538.5,-494.8945 538.5,-500.8945 532.5,-506.8945 526.5,-506.8945 526.5,-506.8945 449.5,-506.8945 449.5,-506.8945 443.5,-506.8945 437.5,-500.8945 437.5,-494.8945 437.5,-494.8945 437.5,-473.8945 437.5,-473.8945 437.5,-467.8945 443.5,-461.8945 449.5,-461.8945"/>
<polygon fill="none" stroke="#d3d3d3" points="449,-468.3945 449,-499.3945 528,-499.3945 528,-468.3945 449,-468.3945"/>
<text text-anchor="start" x="451.7534" y="-486.1945" font-family="Times,serif" font-size="14.00" fill="#000000">Bisect Coord</text>
<text text-anchor="start" x="468.6296" y="-474.5945" font-family="Arial" font-size="11.00" fill="#606060">[FSE16]</text>
<polygon fill="none" stroke="#d3d3d3" points="445.5,-465.8945 445.5,-502.8945 530.5,-502.8945 530.5,-465.8945 445.5,-465.8945"/>
</g>
<!-- bc&#45;&gt;survey -->
<g id="edge7" class="edge">
<title>bc&#45;&gt;survey</title>
<path fill="none" stroke="#000000" d="M469.6083,-461.7731C461.4739,-451.768 451.7814,-439.8464 443.0044,-429.0508"/>
<polygon fill="#000000" stroke="#000000" points="445.536,-426.6164 436.5119,-421.0652 440.1046,-431.0323 445.536,-426.6164"/>
</g>
<!-- comedy -->
<g id="node16" class="node">
<title>comedy</title>
<path fill="#d3d3d3" stroke="#d3d3d3" d="M682.5,-625.8945C682.5,-625.8945 759.5,-625.8945 759.5,-625.8945 765.5,-625.8945 771.5,-631.8945 771.5,-637.8945 771.5,-637.8945 771.5,-658.8945 771.5,-658.8945 771.5,-664.8945 765.5,-670.8945 759.5,-670.8945 759.5,-670.8945 682.5,-670.8945 682.5,-670.8945 676.5,-670.8945 670.5,-664.8945 670.5,-658.8945 670.5,-658.8945 670.5,-637.8945 670.5,-637.8945 670.5,-631.8945 676.5,-625.8945 682.5,-625.8945"/>
<polygon fill="none" stroke="#d3d3d3" points="682,-632.3945 682,-663.3945 761,-663.3945 761,-632.3945 682,-632.3945"/>
<text text-anchor="start" x="697.7793" y="-650.1945" font-family="Times,serif" font-size="14.00" fill="#000000">Comedy</text>
<text text-anchor="start" x="684.5173" y="-638.5945" font-family="Arial" font-size="11.00" fill="#606060">[COMPSAC15]</text>
<polygon fill="none" stroke="#d3d3d3" points="678.5,-629.8945 678.5,-666.8945 763.5,-666.8945 763.5,-629.8945 678.5,-629.8945"/>
</g>
<!-- cosedroid -->
<g id="node17" class="node">
<title>cosedroid</title>
<path fill="#d3d3d3" stroke="#d3d3d3" d="M145.5,-375.7959C145.5,-375.7959 222.5,-375.7959 222.5,-375.7959 228.5,-375.7959 234.5,-381.7959 234.5,-387.7959 234.5,-387.7959 234.5,-408.7959 234.5,-408.7959 234.5,-414.7959 228.5,-420.7959 222.5,-420.7959 222.5,-420.7959 145.5,-420.7959 145.5,-420.7959 139.5,-420.7959 133.5,-414.7959 133.5,-408.7959 133.5,-408.7959 133.5,-387.7959 133.5,-387.7959 133.5,-381.7959 139.5,-375.7959 145.5,-375.7959"/>
<polygon fill="none" stroke="#d3d3d3" points="145,-382.2959 145,-413.2959 224,-413.2959 224,-382.2959 145,-382.2959"/>
<text text-anchor="start" x="154.1689" y="-400.0959" font-family="Times,serif" font-size="14.00" fill="#000000">CoseDroid</text>
<text text-anchor="start" x="147.5173" y="-388.4959" font-family="Arial" font-size="11.00" fill="#606060">[COMPSAC14]</text>
<polygon fill="none" stroke="#d3d3d3" points="141.5,-379.7959 141.5,-416.7959 226.5,-416.7959 226.5,-379.7959 141.5,-379.7959"/>
</g>
<!-- cosedroid&#45;&gt;att -->
<g id="edge12" class="edge">
<title>cosedroid&#45;&gt;att</title>
<path fill="none" stroke="#000000" d="M183.2274,-375.7625C182.8941,-366.0404 182.4975,-354.4739 182.132,-343.8135"/>
<polygon fill="#000000" stroke="#000000" points="185.6211,-343.4312 181.7804,-333.5571 178.6252,-343.6712 185.6211,-343.4312"/>
</g>
<!-- rwtrace -->
<g id="node18" class="node">
<title>rwtrace</title>
<path fill="#d3d3d3" stroke="#d3d3d3" d="M429.5,-543.8945C429.5,-543.8945 486.5,-543.8945 486.5,-543.8945 492.5,-543.8945 498.5,-549.8945 498.5,-555.8945 498.5,-555.8945 498.5,-576.8945 498.5,-576.8945 498.5,-582.8945 492.5,-588.8945 486.5,-588.8945 486.5,-588.8945 429.5,-588.8945 429.5,-588.8945 423.5,-588.8945 417.5,-582.8945 417.5,-576.8945 417.5,-576.8945 417.5,-555.8945 417.5,-555.8945 417.5,-549.8945 423.5,-543.8945 429.5,-543.8945"/>
<polygon fill="none" stroke="#d3d3d3" points="429,-550.3945 429,-581.3945 488,-581.3945 488,-550.3945 429,-550.3945"/>
<text text-anchor="start" x="431.9219" y="-568.1945" font-family="Times,serif" font-size="14.00" fill="#000000">RWTrace</text>
<text text-anchor="start" x="438.3208" y="-556.5945" font-family="Arial" font-size="11.00" fill="#606060">[ASE15]</text>
<polygon fill="none" stroke="#d3d3d3" points="425.5,-547.8945 425.5,-584.8945 490.5,-584.8945 490.5,-547.8945 425.5,-547.8945"/>
</g>
<!-- rwtrace&#45;&gt;survey -->
<g id="edge6" class="edge">
<title>rwtrace&#45;&gt;survey</title>
<path fill="none" stroke="#000000" d="M444.4342,-543.6207C438.7213,-532.9721 432.5791,-519.904 429,-507.3945 421.8448,-482.386 419.194,-452.9929 418.2776,-431.0205"/>
<polygon fill="#000000" stroke="#000000" points="421.7713,-430.7655 417.9549,-420.8819 414.7749,-430.9882 421.7713,-430.7655"/>
</g>
<!-- rwtrace&#45;&gt;bc -->
<g id="edge4" class="edge">
<title>rwtrace&#45;&gt;bc</title>
<path fill="none" stroke="#000000" d="M466.3567,-543.553C469.4124,-535.2007 472.9291,-525.5884 476.2272,-516.5735"/>
<polygon fill="#000000" stroke="#000000" points="479.5392,-517.7074 479.6881,-507.1136 472.9653,-515.3023 479.5392,-517.7074"/>
</g>
<!-- uga -->
<g id="node19" class="node">
<title>uga</title>
<path fill="#d3d3d3" stroke="#d3d3d3" d="M44.5,-375.7959C44.5,-375.7959 103.5,-375.7959 103.5,-375.7959 109.5,-375.7959 115.5,-381.7959 115.5,-387.7959 115.5,-387.7959 115.5,-408.7959 115.5,-408.7959 115.5,-414.7959 109.5,-420.7959 103.5,-420.7959 103.5,-420.7959 44.5,-420.7959 44.5,-420.7959 38.5,-420.7959 32.5,-414.7959 32.5,-408.7959 32.5,-408.7959 32.5,-387.7959 32.5,-387.7959 32.5,-381.7959 38.5,-375.7959 44.5,-375.7959"/>
<polygon fill="none" stroke="#d3d3d3" points="44,-382.2959 44,-413.2959 105,-413.2959 105,-382.2959 44,-382.2959"/>
<text text-anchor="start" x="59.3345" y="-400.0959" font-family="Times,serif" font-size="14.00" fill="#000000">UGA</text>
<text text-anchor="start" x="46.6804" y="-388.4959" font-family="Arial" font-size="11.00" fill="#606060">[APSEC14]</text>
<polygon fill="none" stroke="#d3d3d3" points="40.5,-379.7959 40.5,-416.7959 107.5,-416.7959 107.5,-379.7959 40.5,-379.7959"/>
</g>
<!-- uga&#45;&gt;att -->
<g id="edge9" class="edge">
<title>uga&#45;&gt;att</title>
<path fill="none" stroke="#000000" d="M101.5552,-375.7625C114.8062,-364.9264 130.859,-351.7991 145.0566,-340.1889"/>
<polygon fill="#000000" stroke="#000000" points="147.6408,-342.5969 153.1663,-333.5571 143.2095,-337.1781 147.6408,-342.5969"/>
</g>
<!-- lesdroid -->
<g id="node20" class="node">
<title>lesdroid</title>
<path fill="#d3d3d3" stroke="#d3d3d3" d="M579.5,-625.8945C579.5,-625.8945 640.5,-625.8945 640.5,-625.8945 646.5,-625.8945 652.5,-631.8945 652.5,-637.8945 652.5,-637.8945 652.5,-658.8945 652.5,-658.8945 652.5,-664.8945 646.5,-670.8945 640.5,-670.8945 640.5,-670.8945 579.5,-670.8945 579.5,-670.8945 573.5,-670.8945 567.5,-664.8945 567.5,-658.8945 567.5,-658.8945 567.5,-637.8945 567.5,-637.8945 567.5,-631.8945 573.5,-625.8945 579.5,-625.8945"/>
<polygon fill="none" stroke="#d3d3d3" points="579,-632.3945 579,-663.3945 642,-663.3945 642,-632.3945 579,-632.3945"/>
<text text-anchor="start" x="581.7241" y="-650.1945" font-family="Times,serif" font-size="14.00" fill="#000000">LESDroid</text>
<text text-anchor="start" x="588.1858" y="-638.5945" font-family="Arial" font-size="11.00" fill="#606060">[ICPC18]</text>
<polygon fill="none" stroke="#d3d3d3" points="575.5,-629.8945 575.5,-666.8945 644.5,-666.8945 644.5,-629.8945 575.5,-629.8945"/>
</g>
<!-- care -->
<g id="node21" class="node">
<title>care</title>
<path fill="#d3d3d3" stroke="#d3d3d3" d="M404,-625.8945C404,-625.8945 452,-625.8945 452,-625.8945 458,-625.8945 464,-631.8945 464,-637.8945 464,-637.8945 464,-658.8945 464,-658.8945 464,-664.8945 458,-670.8945 452,-670.8945 452,-670.8945 404,-670.8945 404,-670.8945 398,-670.8945 392,-664.8945 392,-658.8945 392,-658.8945 392,-637.8945 392,-637.8945 392,-631.8945 398,-625.8945 404,-625.8945"/>
<polygon fill="none" stroke="#d3d3d3" points="403,-632.3945 403,-663.3945 453,-663.3945 453,-632.3945 403,-632.3945"/>
<text text-anchor="start" x="409.3311" y="-650.1945" font-family="Times,serif" font-size="14.00" fill="#000000">CARE</text>
<text text-anchor="start" x="405.9893" y="-638.5945" font-family="Arial" font-size="11.00" fill="#606060">[ICSE14]</text>
<polygon fill="none" stroke="#d3d3d3" points="400,-629.8945 400,-666.8945 456,-666.8945 456,-629.8945 400,-629.8945"/>
</g>
<!-- care&#45;&gt;survey -->
<g id="edge5" class="edge">
<title>care&#45;&gt;survey</title>
<path fill="none" stroke="#000000" d="M418.9056,-625.8225C415.0193,-614.9964 410.9366,-601.7262 409,-589.3945 400.3335,-534.2098 406.9391,-469.0527 412.4905,-430.8458"/>
<polygon fill="#000000" stroke="#000000" points="415.9726,-431.2272 414.0147,-420.8148 409.0521,-430.1755 415.9726,-431.2272"/>
</g>
<!-- care&#45;&gt;rwtrace -->
<g id="edge3" class="edge">
<title>care&#45;&gt;rwtrace</title>
<path fill="none" stroke="#000000" d="M436.3567,-625.553C439.4124,-617.2007 442.9291,-607.5884 446.2272,-598.5735"/>
<polygon fill="#000000" stroke="#000000" points="449.5392,-599.7074 449.6881,-589.1136 442.9653,-597.3023 449.5392,-599.7074"/>
</g>
</g>
</svg>
