<?xml version="1.0" encoding="UTF-8" standalone="no"?>
<!DOCTYPE svg PUBLIC "-//W3C//DTD SVG 1.1//EN"
 "http://www.w3.org/Graphics/SVG/1.1/DTD/svg11.dtd">
<!-- Generated by graphviz version 2.40.1 (20161225.0304)
 -->
<!-- Title: G Pages: 1 -->
<svg width="683pt" height="755pt"
 viewBox="0.00 0.00 683.19 755.49" xmlns="http://www.w3.org/2000/svg" xmlns:xlink="http://www.w3.org/1999/xlink">
<g id="graph0" class="graph" transform="scale(1 1) rotate(0) translate(4 751.4932)">
<title>G</title>
<polygon fill="#ffffff" stroke="transparent" points="-4,4 -4,-751.4932 679.1903,-751.4932 679.1903,4 -4,4"/>
<g id="clust1" class="cluster">
<title>cluster_subG</title>
<polygon fill="none" stroke="#000000" points="8,-8 8,-739.4932 641,-739.4932 641,-8 8,-8"/>
</g>
<g id="clust2" class="cluster">
<title>cluster_sta</title>
<polygon fill="none" stroke="#000000" points="16,-161.1973 16,-731.4932 633,-731.4932 633,-161.1973 16,-161.1973"/>
<text text-anchor="middle" x="324.5" y="-716.2932" font-family="Arial" font-size="14.00" fill="#000000">Software Testing and Analysis</text>
</g>
<g id="clust3" class="cluster">
<title>cluster_analysis</title>
<polygon fill="none" stroke="#000000" points="239,-613.2959 239,-699.3945 625,-699.3945 625,-613.2959 239,-613.2959"/>
<text text-anchor="middle" x="432" y="-684.1945" font-family="Arial" font-size="14.00" fill="#000000">Software Analysis</text>
</g>
<g id="clust4" class="cluster">
<title>cluster_concurrency</title>
<polygon fill="none" stroke="#000000" points="24,-169.1973 24,-699.3945 182,-699.3945 182,-169.1973 24,-169.1973"/>
<text text-anchor="middle" x="103" y="-684.1945" font-family="Arial" font-size="14.00" fill="#000000">Concurrent Programs</text>
</g>
<g id="clust5" class="cluster">
<title>cluster_mobile</title>
<polygon fill="none" stroke="#000000" points="190,-344.1973 190,-605.2959 613,-605.2959 613,-344.1973 190,-344.1973"/>
<text text-anchor="middle" x="401.5" y="-590.0959" font-family="Arial" font-size="14.00" fill="#000000">Mobile Apps</text>
</g>
<g id="clust6" class="cluster">
<title>cluster_synthesis</title>
<polygon fill="none" stroke="#000000" points="250,-16 250,-153.1973 512,-153.1973 512,-16 250,-16"/>
<text text-anchor="middle" x="381" y="-137.9973" font-family="Arial" font-size="14.00" fill="#000000">Program Synthesis</text>
</g>
<g id="clust7" class="cluster">
<title>cluster_transformer</title>
<polygon fill="none" stroke="#000000" points="258,-24 258,-121.0986 504,-121.0986 504,-24 258,-24"/>
<text text-anchor="middle" x="381" y="-105.8986" font-family="Arial" font-size="14.00" fill="#000000">Transformers</text>
</g>
<g id="clust8" class="cluster">
<title>cluster_tech</title>
<polygon fill="none" stroke="#000000" points="41,-24 41,-121.0986 242,-121.0986 242,-24 41,-24"/>
<text text-anchor="middle" x="141.5" y="-105.8986" font-family="Arial" font-size="14.00" fill="#000000">Fun and Profits</text>
</g>
<!-- rescue -->
<g id="node1" class="node">
<title>rescue</title>
<path fill="#d3d3d3" stroke="#d3d3d3" d="M559,-621.7959C559,-621.7959 605,-621.7959 605,-621.7959 611,-621.7959 617,-627.7959 617,-633.7959 617,-633.7959 617,-654.7959 617,-654.7959 617,-660.7959 611,-666.7959 605,-666.7959 605,-666.7959 559,-666.7959 559,-666.7959 553,-666.7959 547,-660.7959 547,-654.7959 547,-654.7959 547,-633.7959 547,-633.7959 547,-627.7959 553,-621.7959 559,-621.7959"/>
<polygon fill="none" stroke="#d3d3d3" points="558,-628.2959 558,-659.2959 606,-659.2959 606,-628.2959 558,-628.2959"/>
<text text-anchor="start" x="560.6172" y="-646.0959" font-family="Times,serif" font-size="14.00" fill="#000000">ReScue</text>
<text text-anchor="start" x="561.8208" y="-634.4959" font-family="Arial" font-size="11.00" fill="#606060">[ASE18]</text>
<polygon fill="none" stroke="#d3d3d3" points="555,-625.7959 555,-662.7959 609,-662.7959 609,-625.7959 555,-625.7959"/>
</g>
<!-- scs -->
<g id="node2" class="node">
<title>scs</title>
<path fill="#d3d3d3" stroke="#d3d3d3" d="M94.5,-177.6973C94.5,-177.6973 137.5,-177.6973 137.5,-177.6973 143.5,-177.6973 149.5,-183.6973 149.5,-189.6973 149.5,-189.6973 149.5,-210.6973 149.5,-210.6973 149.5,-216.6973 143.5,-222.6973 137.5,-222.6973 137.5,-222.6973 94.5,-222.6973 94.5,-222.6973 88.5,-222.6973 82.5,-216.6973 82.5,-210.6973 82.5,-210.6973 82.5,-189.6973 82.5,-189.6973 82.5,-183.6973 88.5,-177.6973 94.5,-177.6973"/>
<polygon fill="none" stroke="#d3d3d3" points="94,-184.1973 94,-215.1973 139,-215.1973 139,-184.1973 94,-184.1973"/>
<text text-anchor="start" x="104.0449" y="-201.9973" font-family="Times,serif" font-size="14.00" fill="#000000">SCS</text>
<text text-anchor="start" x="96.6296" y="-190.3973" font-family="Arial" font-size="11.00" fill="#606060">[FSE18]</text>
<polygon fill="none" stroke="#d3d3d3" points="90.5,-181.6973 90.5,-218.6973 141.5,-218.6973 141.5,-181.6973 90.5,-181.6973"/>
</g>
<!-- abc -->
<g id="node9" class="node">
<title>abc</title>
<path fill="#d3d3d3" stroke="#d3d3d3" d="M61.5,-38C61.5,-38 120.5,-38 120.5,-38 126.5,-38 132.5,-44 132.5,-50 132.5,-50 132.5,-71 132.5,-71 132.5,-77 126.5,-83 120.5,-83 120.5,-83 61.5,-83 61.5,-83 55.5,-83 49.5,-77 49.5,-71 49.5,-71 49.5,-50 49.5,-50 49.5,-44 55.5,-38 61.5,-38"/>
<polygon fill="none" stroke="#d3d3d3" points="61,-44.5 61,-75.5 122,-75.5 122,-44.5 61,-44.5"/>
<text text-anchor="start" x="77.1069" y="-62.3" font-family="Times,serif" font-size="14.00" fill="#000000">ABC</text>
<text text-anchor="start" x="63.6804" y="-50.7" font-family="Arial" font-size="11.00" fill="#606060">[APSEC15]</text>
<polygon fill="none" stroke="#d3d3d3" points="57.5,-42 57.5,-79 124.5,-79 124.5,-42 57.5,-42"/>
</g>
<!-- scs&#45;&gt;abc -->
<!-- enter -->
<g id="node10" class="node">
<title>enter</title>
<path fill="#d3d3d3" stroke="#d3d3d3" d="M278,-38C278,-38 360,-38 360,-38 366,-38 372,-44 372,-50 372,-50 372,-71 372,-71 372,-77 366,-83 360,-83 360,-83 278,-83 278,-83 272,-83 266,-77 266,-71 266,-71 266,-50 266,-50 266,-44 272,-38 278,-38"/>
<polygon fill="none" stroke="#d3d3d3" points="277,-44.5 277,-75.5 361,-75.5 361,-44.5 277,-44.5"/>
<text text-anchor="start" x="296.4482" y="-62.3" font-family="Times,serif" font-size="14.00" fill="#000000">ENTER</text>
<text text-anchor="start" x="279.5654" y="-50.7" font-family="Arial" font-size="11.00" fill="#606060">[ICSE18 Poster]</text>
<polygon fill="none" stroke="#d3d3d3" points="274,-42 274,-79 364,-79 364,-42 274,-42"/>
</g>
<!-- scs&#45;&gt;enter -->
<!-- aotes -->
<g id="node3" class="node">
<title>aotes</title>
<path fill="#d3d3d3" stroke="#d3d3d3" d="M402,-32.5C402,-32.5 484,-32.5 484,-32.5 490,-32.5 496,-38.5 496,-44.5 496,-44.5 496,-76.5 496,-76.5 496,-82.5 490,-88.5 484,-88.5 484,-88.5 402,-88.5 402,-88.5 396,-88.5 390,-82.5 390,-76.5 390,-76.5 390,-44.5 390,-44.5 390,-38.5 396,-32.5 402,-32.5"/>
<polygon fill="none" stroke="#d3d3d3" points="401,-39.5 401,-81.5 485,-81.5 485,-39.5 401,-39.5"/>
<text text-anchor="start" x="420.4448" y="-68.3" font-family="Times,serif" font-size="14.00" fill="#000000">AOTES</text>
<text text-anchor="start" x="403.5654" y="-56.7" font-family="Arial" font-size="11.00" fill="#606060">[ICSE17 Poster]</text>
<text text-anchor="start" x="413.9612" y="-45.7" font-family="Arial" font-size="11.00" fill="#606060">[ECOOP18]</text>
<polygon fill="none" stroke="#d3d3d3" points="398,-36.5 398,-84.5 488,-84.5 488,-36.5 398,-36.5"/>
</g>
<!-- aatt -->
<g id="node4" class="node">
<title>aatt</title>
<path fill="#d3d3d3" stroke="#d3d3d3" d="M211.5,-352.6973C211.5,-352.6973 270.5,-352.6973 270.5,-352.6973 276.5,-352.6973 282.5,-358.6973 282.5,-364.6973 282.5,-364.6973 282.5,-396.6973 282.5,-396.6973 282.5,-402.6973 276.5,-408.6973 270.5,-408.6973 270.5,-408.6973 211.5,-408.6973 211.5,-408.6973 205.5,-408.6973 199.5,-402.6973 199.5,-396.6973 199.5,-396.6973 199.5,-364.6973 199.5,-364.6973 199.5,-358.6973 205.5,-352.6973 211.5,-352.6973"/>
<polygon fill="none" stroke="#d3d3d3" points="211,-359.6973 211,-401.6973 272,-401.6973 272,-359.6973 211,-359.6973"/>
<text text-anchor="start" x="223.6138" y="-388.4973" font-family="Times,serif" font-size="14.00" fill="#000000">AATT</text>
<text text-anchor="start" x="213.6804" y="-376.8973" font-family="Arial" font-size="11.00" fill="#606060">[APSEC16]</text>
<text text-anchor="start" x="221.0173" y="-365.8973" font-family="Arial" font-size="11.00" fill="#606060">[SCP18]</text>
<polygon fill="none" stroke="#d3d3d3" points="207.5,-356.6973 207.5,-404.6973 274.5,-404.6973 274.5,-356.6973 207.5,-356.6973"/>
</g>
<!-- thesis -->
<g id="node7" class="node">
<title>thesis</title>
<path fill="#d3d3d3" stroke="#d3d3d3" d="M70,-259.6973C70,-259.6973 162,-259.6973 162,-259.6973 168,-259.6973 174,-265.6973 174,-271.6973 174,-271.6973 174,-303.6973 174,-303.6973 174,-309.6973 168,-315.6973 162,-315.6973 162,-315.6973 70,-315.6973 70,-315.6973 64,-315.6973 58,-309.6973 58,-303.6973 58,-303.6973 58,-271.6973 58,-271.6973 58,-265.6973 64,-259.6973 70,-259.6973"/>
<polygon fill="none" stroke="#d3d3d3" points="69,-266.6973 69,-308.6973 163,-308.6973 163,-266.6973 69,-266.6973"/>
<text text-anchor="start" x="83.6489" y="-295.4973" font-family="Times,serif" font-size="14.00" fill="#000000">PhD Thesis</text>
<text text-anchor="start" x="83.0779" y="-283.8973" font-family="Arial" font-size="11.00" fill="#606060">Yanyan Jiang</text>
<text text-anchor="start" x="71.6777" y="-272.8973" font-family="Arial" font-size="11.00" fill="#606060">Nanjing University</text>
<polygon fill="none" stroke="#d3d3d3" points="66,-263.6973 66,-311.6973 166,-311.6973 166,-263.6973 66,-263.6973"/>
</g>
<!-- aatt&#45;&gt;thesis -->
<g id="edge13" class="edge">
<title>aatt&#45;&gt;thesis</title>
<path fill="none" stroke="#000000" d="M203.1567,-352.5418C190.1842,-342.8903 175.5241,-331.9832 161.9792,-321.9058"/>
<polygon fill="#000000" stroke="#000000" points="163.827,-318.9181 153.7147,-315.757 159.6486,-324.5343 163.827,-318.9181"/>
</g>
<!-- gain -->
<g id="node5" class="node">
<title>gain</title>
<path fill="#d3d3d3" stroke="#d3d3d3" d="M162.5,-32.5C162.5,-32.5 221.5,-32.5 221.5,-32.5 227.5,-32.5 233.5,-38.5 233.5,-44.5 233.5,-44.5 233.5,-76.5 233.5,-76.5 233.5,-82.5 227.5,-88.5 221.5,-88.5 221.5,-88.5 162.5,-88.5 162.5,-88.5 156.5,-88.5 150.5,-82.5 150.5,-76.5 150.5,-76.5 150.5,-44.5 150.5,-44.5 150.5,-38.5 156.5,-32.5 162.5,-32.5"/>
<polygon fill="none" stroke="#d3d3d3" points="162,-39.5 162,-81.5 223,-81.5 223,-39.5 162,-39.5"/>
<text text-anchor="start" x="175.0034" y="-68.3" font-family="Times,serif" font-size="14.00" fill="#000000">GAIN</text>
<text text-anchor="start" x="164.6804" y="-56.7" font-family="Arial" font-size="11.00" fill="#606060">[APSEC14]</text>
<text text-anchor="start" x="174.77" y="-45.7" font-family="Arial" font-size="11.00" fill="#606060">[IST16]</text>
<polygon fill="none" stroke="#d3d3d3" points="158.5,-36.5 158.5,-84.5 225.5,-84.5 225.5,-36.5 158.5,-36.5"/>
</g>
<!-- needle -->
<g id="node6" class="node">
<title>needle</title>
<path fill="#d3d3d3" stroke="#d3d3d3" d="M379,-621.7959C379,-621.7959 431,-621.7959 431,-621.7959 437,-621.7959 443,-627.7959 443,-633.7959 443,-633.7959 443,-654.7959 443,-654.7959 443,-660.7959 437,-666.7959 431,-666.7959 431,-666.7959 379,-666.7959 379,-666.7959 373,-666.7959 367,-660.7959 367,-654.7959 367,-654.7959 367,-633.7959 367,-633.7959 367,-627.7959 373,-621.7959 379,-621.7959"/>
<polygon fill="none" stroke="#d3d3d3" points="378,-628.2959 378,-659.2959 432,-659.2959 432,-628.2959 378,-628.2959"/>
<text text-anchor="start" x="385.1792" y="-646.0959" font-family="Times,serif" font-size="14.00" fill="#000000">Needle</text>
<text text-anchor="start" x="380.5508" y="-634.4959" font-family="Arial" font-size="11.00" fill="#606060">[TURC18]</text>
<polygon fill="none" stroke="#d3d3d3" points="375,-625.7959 375,-662.7959 435,-662.7959 435,-625.7959 375,-625.7959"/>
</g>
<!-- repdroid -->
<g id="node8" class="node">
<title>repdroid</title>
<path fill="#d3d3d3" stroke="#d3d3d3" d="M533.5,-527.6973C533.5,-527.6973 592.5,-527.6973 592.5,-527.6973 598.5,-527.6973 604.5,-533.6973 604.5,-539.6973 604.5,-539.6973 604.5,-560.6973 604.5,-560.6973 604.5,-566.6973 598.5,-572.6973 592.5,-572.6973 592.5,-572.6973 533.5,-572.6973 533.5,-572.6973 527.5,-572.6973 521.5,-566.6973 521.5,-560.6973 521.5,-560.6973 521.5,-539.6973 521.5,-539.6973 521.5,-533.6973 527.5,-527.6973 533.5,-527.6973"/>
<polygon fill="none" stroke="#d3d3d3" points="533,-534.1973 533,-565.1973 594,-565.1973 594,-534.1973 533,-534.1973"/>
<text text-anchor="start" x="535.8931" y="-551.9973" font-family="Times,serif" font-size="14.00" fill="#000000">RepDroid</text>
<text text-anchor="start" x="541.1858" y="-540.3973" font-family="Arial" font-size="11.00" fill="#606060">[ICPC17]</text>
<polygon fill="none" stroke="#d3d3d3" points="529.5,-531.6973 529.5,-568.6973 596.5,-568.6973 596.5,-531.6973 529.5,-531.6973"/>
</g>
<!-- needle&#45;&gt;repdroid -->
<g id="edge10" class="edge">
<title>needle&#45;&gt;repdroid</title>
<path fill="none" stroke="#000000" d="M435.0264,-621.6816C440.4564,-618.4253 446.2319,-615.4526 452,-613.2959 477.1988,-603.8738 488.1162,-617.6779 512,-605.2959 523.3007,-599.4373 533.4011,-590.0306 541.5725,-580.6352"/>
<polygon fill="#000000" stroke="#000000" points="544.3408,-582.779 547.9668,-572.824 538.9242,-578.345 544.3408,-582.779"/>
</g>
<!-- thesis&#45;&gt;scs -->
<g id="edge11" class="edge">
<title>thesis&#45;&gt;scs</title>
<path fill="none" stroke="#000000" d="M116,-259.5301C116,-251.0768 116,-241.7308 116,-233.0053"/>
<polygon fill="#000000" stroke="#000000" points="119.5001,-232.7715 116,-222.7716 112.5001,-232.7716 119.5001,-232.7715"/>
</g>
<!-- survey -->
<g id="node11" class="node">
<title>survey</title>
<path fill="#d3d3d3" stroke="#d3d3d3" d="M69.5,-358.1973C69.5,-358.1973 112.5,-358.1973 112.5,-358.1973 118.5,-358.1973 124.5,-364.1973 124.5,-370.1973 124.5,-370.1973 124.5,-391.1973 124.5,-391.1973 124.5,-397.1973 118.5,-403.1973 112.5,-403.1973 112.5,-403.1973 69.5,-403.1973 69.5,-403.1973 63.5,-403.1973 57.5,-397.1973 57.5,-391.1973 57.5,-391.1973 57.5,-370.1973 57.5,-370.1973 57.5,-364.1973 63.5,-358.1973 69.5,-358.1973"/>
<polygon fill="none" stroke="#d3d3d3" points="69,-364.6973 69,-395.6973 114,-395.6973 114,-364.6973 69,-364.6973"/>
<text text-anchor="start" x="71.6689" y="-382.4973" font-family="Times,serif" font-size="14.00" fill="#000000">Survey</text>
<text text-anchor="start" x="72.8489" y="-370.8973" font-family="Arial" font-size="11.00" fill="#606060">[JoS17]</text>
<polygon fill="none" stroke="#d3d3d3" points="65.5,-362.1973 65.5,-399.1973 116.5,-399.1973 116.5,-362.1973 65.5,-362.1973"/>
</g>
<!-- survey&#45;&gt;thesis -->
<g id="edge8" class="edge">
<title>survey&#45;&gt;thesis</title>
<path fill="none" stroke="#000000" d="M97.0518,-358.1846C99.6629,-348.4713 102.7909,-336.8352 105.7458,-325.843"/>
<polygon fill="#000000" stroke="#000000" points="109.1749,-326.5686 108.391,-316.0028 102.4149,-324.7514 109.1749,-326.5686"/>
</g>
<!-- c3 -->
<g id="node12" class="node">
<title>c3</title>
<path fill="#d3d3d3" stroke="#d3d3d3" d="M473.5,-621.7959C473.5,-621.7959 516.5,-621.7959 516.5,-621.7959 522.5,-621.7959 528.5,-627.7959 528.5,-633.7959 528.5,-633.7959 528.5,-654.7959 528.5,-654.7959 528.5,-660.7959 522.5,-666.7959 516.5,-666.7959 516.5,-666.7959 473.5,-666.7959 473.5,-666.7959 467.5,-666.7959 461.5,-660.7959 461.5,-654.7959 461.5,-654.7959 461.5,-633.7959 461.5,-633.7959 461.5,-627.7959 467.5,-621.7959 473.5,-621.7959"/>
<polygon fill="none" stroke="#d3d3d3" points="473,-628.2959 473,-659.2959 518,-659.2959 518,-628.2959 473,-628.2959"/>
<text text-anchor="start" x="487.3311" y="-646.0959" font-family="Times,serif" font-size="14.00" fill="#000000">C3</text>
<text text-anchor="start" x="475.6296" y="-634.4959" font-family="Arial" font-size="11.00" fill="#606060">[FSE16]</text>
<polygon fill="none" stroke="#d3d3d3" points="469.5,-625.7959 469.5,-662.7959 520.5,-662.7959 520.5,-625.7959 469.5,-625.7959"/>
</g>
<!-- c3&#45;&gt;thesis -->
<g id="edge14" class="edge">
<title>c3&#45;&gt;thesis</title>
<path fill="none" stroke="#000000" d="M521.9889,-621.6668C527.0526,-618.3687 532.4934,-615.3861 538,-613.2959 554.4969,-607.034 605.1681,-618.3865 617,-605.2959 694.8121,-519.2061 694.3211,-430.7283 617,-344.1973 588.6787,-312.5025 314.9092,-296.3774 184.4632,-290.4417"/>
<polygon fill="#000000" stroke="#000000" points="184.3349,-286.9326 174.1884,-289.9818 184.0218,-293.9256 184.3349,-286.9326"/>
</g>
<!-- gat -->
<g id="node13" class="node">
<title>gat</title>
<path fill="#d3d3d3" stroke="#d3d3d3" d="M313.5,-358.1973C313.5,-358.1973 372.5,-358.1973 372.5,-358.1973 378.5,-358.1973 384.5,-364.1973 384.5,-370.1973 384.5,-370.1973 384.5,-391.1973 384.5,-391.1973 384.5,-397.1973 378.5,-403.1973 372.5,-403.1973 372.5,-403.1973 313.5,-403.1973 313.5,-403.1973 307.5,-403.1973 301.5,-397.1973 301.5,-391.1973 301.5,-391.1973 301.5,-370.1973 301.5,-370.1973 301.5,-364.1973 307.5,-358.1973 313.5,-358.1973"/>
<polygon fill="none" stroke="#d3d3d3" points="313,-364.6973 313,-395.6973 374,-395.6973 374,-364.6973 313,-364.6973"/>
<text text-anchor="start" x="329.8896" y="-382.4973" font-family="Times,serif" font-size="14.00" fill="#000000">GAT</text>
<text text-anchor="start" x="315.6804" y="-370.8973" font-family="Arial" font-size="11.00" fill="#606060">[APSEC16]</text>
<polygon fill="none" stroke="#d3d3d3" points="309.5,-362.1973 309.5,-399.1973 376.5,-399.1973 376.5,-362.1973 309.5,-362.1973"/>
</g>
<!-- bc -->
<g id="node14" class="node">
<title>bc</title>
<path fill="#d3d3d3" stroke="#d3d3d3" d="M84.5,-445.6973C84.5,-445.6973 161.5,-445.6973 161.5,-445.6973 167.5,-445.6973 173.5,-451.6973 173.5,-457.6973 173.5,-457.6973 173.5,-478.6973 173.5,-478.6973 173.5,-484.6973 167.5,-490.6973 161.5,-490.6973 161.5,-490.6973 84.5,-490.6973 84.5,-490.6973 78.5,-490.6973 72.5,-484.6973 72.5,-478.6973 72.5,-478.6973 72.5,-457.6973 72.5,-457.6973 72.5,-451.6973 78.5,-445.6973 84.5,-445.6973"/>
<polygon fill="none" stroke="#d3d3d3" points="84,-452.1973 84,-483.1973 163,-483.1973 163,-452.1973 84,-452.1973"/>
<text text-anchor="start" x="86.7534" y="-469.9973" font-family="Times,serif" font-size="14.00" fill="#000000">Bisect Coord</text>
<text text-anchor="start" x="103.6296" y="-458.3973" font-family="Arial" font-size="11.00" fill="#606060">[FSE16]</text>
<polygon fill="none" stroke="#d3d3d3" points="80.5,-449.6973 80.5,-486.6973 165.5,-486.6973 165.5,-449.6973 80.5,-449.6973"/>
</g>
<!-- bc&#45;&gt;survey -->
<g id="edge7" class="edge">
<title>bc&#45;&gt;survey</title>
<path fill="none" stroke="#000000" d="M114.7592,-445.6638C111.1296,-435.7392 106.7971,-423.8925 102.8318,-413.0498"/>
<polygon fill="#000000" stroke="#000000" points="106.0459,-411.6479 99.3241,-403.4584 99.4717,-414.0523 106.0459,-411.6479"/>
</g>
<!-- comedy -->
<g id="node15" class="node">
<title>comedy</title>
<path fill="#d3d3d3" stroke="#d3d3d3" d="M259.5,-621.7959C259.5,-621.7959 336.5,-621.7959 336.5,-621.7959 342.5,-621.7959 348.5,-627.7959 348.5,-633.7959 348.5,-633.7959 348.5,-654.7959 348.5,-654.7959 348.5,-660.7959 342.5,-666.7959 336.5,-666.7959 336.5,-666.7959 259.5,-666.7959 259.5,-666.7959 253.5,-666.7959 247.5,-660.7959 247.5,-654.7959 247.5,-654.7959 247.5,-633.7959 247.5,-633.7959 247.5,-627.7959 253.5,-621.7959 259.5,-621.7959"/>
<polygon fill="none" stroke="#d3d3d3" points="259,-628.2959 259,-659.2959 338,-659.2959 338,-628.2959 259,-628.2959"/>
<text text-anchor="start" x="274.7793" y="-646.0959" font-family="Times,serif" font-size="14.00" fill="#000000">Comedy</text>
<text text-anchor="start" x="261.5173" y="-634.4959" font-family="Arial" font-size="11.00" fill="#606060">[COMPSAC15]</text>
<polygon fill="none" stroke="#d3d3d3" points="255.5,-625.7959 255.5,-662.7959 340.5,-662.7959 340.5,-625.7959 255.5,-625.7959"/>
</g>
<!-- att -->
<g id="node16" class="node">
<title>att</title>
<path fill="#d3d3d3" stroke="#d3d3d3" d="M301.5,-445.6973C301.5,-445.6973 384.5,-445.6973 384.5,-445.6973 390.5,-445.6973 396.5,-451.6973 396.5,-457.6973 396.5,-457.6973 396.5,-478.6973 396.5,-478.6973 396.5,-484.6973 390.5,-490.6973 384.5,-490.6973 384.5,-490.6973 301.5,-490.6973 301.5,-490.6973 295.5,-490.6973 289.5,-484.6973 289.5,-478.6973 289.5,-478.6973 289.5,-457.6973 289.5,-457.6973 289.5,-451.6973 295.5,-445.6973 301.5,-445.6973"/>
<polygon fill="none" stroke="#d3d3d3" points="301,-452.1973 301,-483.1973 386,-483.1973 386,-452.1973 301,-452.1973"/>
<text text-anchor="start" x="330.6689" y="-469.9973" font-family="Times,serif" font-size="14.00" fill="#000000">ATT</text>
<text text-anchor="start" x="303.7539" y="-458.3973" font-family="Arial" font-size="11.00" fill="#606060">[Internetware15]</text>
<polygon fill="none" stroke="#d3d3d3" points="297.5,-449.6973 297.5,-486.6973 388.5,-486.6973 388.5,-449.6973 297.5,-449.6973"/>
</g>
<!-- att&#45;&gt;aatt -->
<g id="edge2" class="edge">
<title>att&#45;&gt;aatt</title>
<path fill="none" stroke="#000000" d="M316.7325,-445.6638C305.9831,-436.4426 293.2995,-425.562 281.4176,-415.3692"/>
<polygon fill="#000000" stroke="#000000" points="283.6224,-412.6492 273.7536,-408.7947 279.0647,-417.9622 283.6224,-412.6492"/>
</g>
<!-- att&#45;&gt;gat -->
<g id="edge1" class="edge">
<title>att&#45;&gt;gat</title>
<path fill="none" stroke="#000000" d="M343,-445.6638C343,-435.9417 343,-424.3753 343,-413.7149"/>
<polygon fill="#000000" stroke="#000000" points="346.5001,-413.4584 343,-403.4584 339.5001,-413.4585 346.5001,-413.4584"/>
</g>
<!-- rwtrace -->
<g id="node17" class="node">
<title>rwtrace</title>
<path fill="#d3d3d3" stroke="#d3d3d3" d="M64.5,-527.6973C64.5,-527.6973 121.5,-527.6973 121.5,-527.6973 127.5,-527.6973 133.5,-533.6973 133.5,-539.6973 133.5,-539.6973 133.5,-560.6973 133.5,-560.6973 133.5,-566.6973 127.5,-572.6973 121.5,-572.6973 121.5,-572.6973 64.5,-572.6973 64.5,-572.6973 58.5,-572.6973 52.5,-566.6973 52.5,-560.6973 52.5,-560.6973 52.5,-539.6973 52.5,-539.6973 52.5,-533.6973 58.5,-527.6973 64.5,-527.6973"/>
<polygon fill="none" stroke="#d3d3d3" points="64,-534.1973 64,-565.1973 123,-565.1973 123,-534.1973 64,-534.1973"/>
<text text-anchor="start" x="66.9219" y="-551.9973" font-family="Times,serif" font-size="14.00" fill="#000000">RWTrace</text>
<text text-anchor="start" x="73.3208" y="-540.3973" font-family="Arial" font-size="11.00" fill="#606060">[ASE15]</text>
<polygon fill="none" stroke="#d3d3d3" points="60.5,-531.6973 60.5,-568.6973 125.5,-568.6973 125.5,-531.6973 60.5,-531.6973"/>
</g>
<!-- rwtrace&#45;&gt;survey -->
<g id="edge6" class="edge">
<title>rwtrace&#45;&gt;survey</title>
<path fill="none" stroke="#000000" d="M78.3667,-527.6355C72.3358,-517.0298 66.0528,-503.9365 63,-491.1973 58.2356,-471.3157 58.8426,-465.2145 63,-445.1973 65.2951,-434.1468 69.5844,-422.6656 74.1281,-412.5059"/>
<polygon fill="#000000" stroke="#000000" points="77.4041,-413.7648 78.5057,-403.2274 71.0733,-410.7779 77.4041,-413.7648"/>
</g>
<!-- rwtrace&#45;&gt;bc -->
<g id="edge4" class="edge">
<title>rwtrace&#45;&gt;bc</title>
<path fill="none" stroke="#000000" d="M101.3567,-527.3557C104.4124,-519.0034 107.9291,-509.3912 111.2272,-500.3762"/>
<polygon fill="#000000" stroke="#000000" points="114.5392,-501.5101 114.6881,-490.9163 107.9653,-499.105 114.5392,-501.5101"/>
</g>
<!-- cosedroid -->
<g id="node18" class="node">
<title>cosedroid</title>
<path fill="#d3d3d3" stroke="#d3d3d3" d="M414.5,-527.6973C414.5,-527.6973 491.5,-527.6973 491.5,-527.6973 497.5,-527.6973 503.5,-533.6973 503.5,-539.6973 503.5,-539.6973 503.5,-560.6973 503.5,-560.6973 503.5,-566.6973 497.5,-572.6973 491.5,-572.6973 491.5,-572.6973 414.5,-572.6973 414.5,-572.6973 408.5,-572.6973 402.5,-566.6973 402.5,-560.6973 402.5,-560.6973 402.5,-539.6973 402.5,-539.6973 402.5,-533.6973 408.5,-527.6973 414.5,-527.6973"/>
<polygon fill="none" stroke="#d3d3d3" points="414,-534.1973 414,-565.1973 493,-565.1973 493,-534.1973 414,-534.1973"/>
<text text-anchor="start" x="423.1689" y="-551.9973" font-family="Times,serif" font-size="14.00" fill="#000000">CoseDroid</text>
<text text-anchor="start" x="416.5173" y="-540.3973" font-family="Arial" font-size="11.00" fill="#606060">[COMPSAC14]</text>
<polygon fill="none" stroke="#d3d3d3" points="410.5,-531.6973 410.5,-568.6973 495.5,-568.6973 495.5,-531.6973 410.5,-531.6973"/>
</g>
<!-- cosedroid&#45;&gt;att -->
<g id="edge12" class="edge">
<title>cosedroid&#45;&gt;att</title>
<path fill="none" stroke="#000000" d="M422.6508,-527.5733C409.9065,-518.073 394.9357,-506.913 381.434,-496.8481"/>
<polygon fill="#000000" stroke="#000000" points="383.3594,-493.9179 373.2501,-490.7474 379.1758,-499.5302 383.3594,-493.9179"/>
</g>
<!-- care -->
<g id="node19" class="node">
<title>care</title>
<path fill="#d3d3d3" stroke="#d3d3d3" d="M56,-621.7959C56,-621.7959 104,-621.7959 104,-621.7959 110,-621.7959 116,-627.7959 116,-633.7959 116,-633.7959 116,-654.7959 116,-654.7959 116,-660.7959 110,-666.7959 104,-666.7959 104,-666.7959 56,-666.7959 56,-666.7959 50,-666.7959 44,-660.7959 44,-654.7959 44,-654.7959 44,-633.7959 44,-633.7959 44,-627.7959 50,-621.7959 56,-621.7959"/>
<polygon fill="none" stroke="#d3d3d3" points="55,-628.2959 55,-659.2959 105,-659.2959 105,-628.2959 55,-628.2959"/>
<text text-anchor="start" x="61.3311" y="-646.0959" font-family="Times,serif" font-size="14.00" fill="#000000">CARE</text>
<text text-anchor="start" x="57.9893" y="-634.4959" font-family="Arial" font-size="11.00" fill="#606060">[ICSE14]</text>
<polygon fill="none" stroke="#d3d3d3" points="52,-625.7959 52,-662.7959 108,-662.7959 108,-625.7959 52,-625.7959"/>
</g>
<!-- care&#45;&gt;survey -->
<g id="edge5" class="edge">
<title>care&#45;&gt;survey</title>
<path fill="none" stroke="#000000" d="M53.2492,-621.6266C49.0642,-616.7057 45.3514,-611.1908 43,-605.2959 30.1399,-573.0556 40.2741,-561.8006 43,-527.1973 45.8978,-490.4116 44.1407,-480.1392 56,-445.1973 59.7933,-434.0207 65.4246,-422.4867 71.0669,-412.3174"/>
<polygon fill="#000000" stroke="#000000" points="74.2387,-413.8233 76.1993,-403.4115 68.1737,-410.3281 74.2387,-413.8233"/>
</g>
<!-- care&#45;&gt;rwtrace -->
<g id="edge3" class="edge">
<title>care&#45;&gt;rwtrace</title>
<path fill="none" stroke="#000000" d="M83.1469,-621.5172C84.7438,-609.9589 86.7124,-595.7095 88.4691,-582.9938"/>
<polygon fill="#000000" stroke="#000000" points="91.9805,-583.1511 89.882,-572.7662 85.0464,-582.1931 91.9805,-583.1511"/>
</g>
<!-- uga -->
<g id="node20" class="node">
<title>uga</title>
<path fill="#d3d3d3" stroke="#d3d3d3" d="M313.5,-527.6973C313.5,-527.6973 372.5,-527.6973 372.5,-527.6973 378.5,-527.6973 384.5,-533.6973 384.5,-539.6973 384.5,-539.6973 384.5,-560.6973 384.5,-560.6973 384.5,-566.6973 378.5,-572.6973 372.5,-572.6973 372.5,-572.6973 313.5,-572.6973 313.5,-572.6973 307.5,-572.6973 301.5,-566.6973 301.5,-560.6973 301.5,-560.6973 301.5,-539.6973 301.5,-539.6973 301.5,-533.6973 307.5,-527.6973 313.5,-527.6973"/>
<polygon fill="none" stroke="#d3d3d3" points="313,-534.1973 313,-565.1973 374,-565.1973 374,-534.1973 313,-534.1973"/>
<text text-anchor="start" x="328.3345" y="-551.9973" font-family="Times,serif" font-size="14.00" fill="#000000">UGA</text>
<text text-anchor="start" x="315.6804" y="-540.3973" font-family="Arial" font-size="11.00" fill="#606060">[APSEC14]</text>
<polygon fill="none" stroke="#d3d3d3" points="309.5,-531.6973 309.5,-568.6973 376.5,-568.6973 376.5,-531.6973 309.5,-531.6973"/>
</g>
<!-- uga&#45;&gt;att -->
<g id="edge9" class="edge">
<title>uga&#45;&gt;att</title>
<path fill="none" stroke="#000000" d="M343,-527.3557C343,-519.1811 343,-509.7996 343,-500.9524"/>
<polygon fill="#000000" stroke="#000000" points="346.5001,-500.9163 343,-490.9163 339.5001,-500.9164 346.5001,-500.9163"/>
</g>
<!-- lesdroid -->
<g id="node21" class="node">
<title>lesdroid</title>
<path fill="#d3d3d3" stroke="#d3d3d3" d="M210.5,-527.6973C210.5,-527.6973 271.5,-527.6973 271.5,-527.6973 277.5,-527.6973 283.5,-533.6973 283.5,-539.6973 283.5,-539.6973 283.5,-560.6973 283.5,-560.6973 283.5,-566.6973 277.5,-572.6973 271.5,-572.6973 271.5,-572.6973 210.5,-572.6973 210.5,-572.6973 204.5,-572.6973 198.5,-566.6973 198.5,-560.6973 198.5,-560.6973 198.5,-539.6973 198.5,-539.6973 198.5,-533.6973 204.5,-527.6973 210.5,-527.6973"/>
<polygon fill="none" stroke="#d3d3d3" points="210,-534.1973 210,-565.1973 273,-565.1973 273,-534.1973 210,-534.1973"/>
<text text-anchor="start" x="212.7241" y="-551.9973" font-family="Times,serif" font-size="14.00" fill="#000000">LESDroid</text>
<text text-anchor="start" x="219.1858" y="-540.3973" font-family="Arial" font-size="11.00" fill="#606060">[ICPC18]</text>
<polygon fill="none" stroke="#d3d3d3" points="206.5,-531.6973 206.5,-568.6973 275.5,-568.6973 275.5,-531.6973 206.5,-531.6973"/>
</g>
</g>
</svg>
